<ttFont>
    <TTGlyph name=".ttfautohint" xMin="0" yMin="0" xMax="0" yMax="0">
      <contour>
        <pt x="0" y="0" on="1"/>
      </contour>
    </TTGlyph>
    <TTGlyph name="A" xMin="-38" yMin="0" xMax="529" yMax="626">
      <contour>
        <pt x="177" y="203" on="1"/>
        <pt x="102" y="53" on="1"/>
        <pt x="166" y="39" on="1"/>
        <pt x="157" y="0" on="1"/>
        <pt x="-38" y="0" on="1"/>
        <pt x="-32" y="38" on="1"/>
        <pt x="39" y="54" on="1"/>
        <pt x="324" y="615" on="1"/>
        <pt x="384" y="626" on="1"/>
        <pt x="467" y="57" on="1"/>
        <pt x="529" y="38" on="1"/>
        <pt x="522" y="0" on="1"/>
        <pt x="300" y="0" on="1"/>
        <pt x="306" y="39" on="1"/>
        <pt x="369" y="53" on="1"/>
        <pt x="349" y="203" on="1"/>
      </contour>
      <contour>
        <pt x="342" y="250" on="1"/>
        <pt x="312" y="470" on="1"/>
        <pt x="201" y="250" on="1"/>
      </contour>
    </TTGlyph>
    <TTGlyph name="AE" xMin="-113" yMin="0" xMax="678" yMax="612">
      <contour>
        <pt x="525" y="311" on="1"/>
        <pt x="558" y="377" on="1"/>
        <pt x="596" y="377" on="1"/>
        <pt x="560" y="193" on="1"/>
        <pt x="523" y="193" on="1"/>
        <pt x="513" y="262" on="1"/>
        <pt x="411" y="262" on="1"/>
        <pt x="385" y="60" on="1"/>
        <pt x="552" y="60" on="1"/>
        <pt x="594" y="151" on="1"/>
        <pt x="635" y="151" on="1"/>
        <pt x="606" y="0" on="1"/>
        <pt x="192" y="0" on="1"/>
        <pt x="198" y="37" on="1"/>
        <pt x="289" y="58" on="1"/>
        <pt x="315" y="262" on="1"/>
        <pt x="180" y="262" on="1"/>
        <pt x="29" y="53" on="1"/>
        <pt x="93" y="39" on="1"/>
        <pt x="84" y="0" on="1"/>
        <pt x="-113" y="0" on="1"/>
        <pt x="-107" y="38" on="1"/>
        <pt x="-35" y="54" on="1"/>
        <pt x="329" y="561" on="1"/>
        <pt x="271" y="575" on="1"/>
        <pt x="277" y="612" on="1"/>
        <pt x="678" y="612" on="1"/>
        <pt x="652" y="476" on="1"/>
        <pt x="610" y="476" on="1"/>
        <pt x="608" y="555" on="1"/>
        <pt x="450" y="555" on="1"/>
        <pt x="417" y="311" on="1"/>
      </contour>
      <contour>
        <pt x="344" y="490" on="1"/>
        <pt x="215" y="311" on="1"/>
        <pt x="321" y="311" on="1"/>
      </contour>
    </TTGlyph>
    <TTGlyph name="AEacute" xMin="-113" yMin="0" xMax="678" yMax="800">
      <component glyphName=".ttfautohint" x="0" y="0" flags="0x0"/>
      <component glyphName="AE" x="0" y="0" flags="0x0"/>
      <component glyphName="acutecomb" x="531" y="0" flags="0x0"/>
    </TTGlyph>
    <TTGlyph name="Aacute" xMin="-39" yMin="0" xMax="528" yMax="800">
      <contour>
        <pt x="260" y="670" on="1"/>
        <pt x="415" y="800" on="1"/>
        <pt x="498" y="770" on="1"/>
        <pt x="498" y="751" on="1"/>
        <pt x="280" y="646" on="1"/>
      </contour>
      <contour>
        <pt x="-32" y="38" on="1"/>
        <pt x="39" y="54" on="1"/>
        <pt x="323" y="615" on="1"/>
        <pt x="383" y="626" on="1"/>
        <pt x="466" y="57" on="1"/>
        <pt x="528" y="38" on="1"/>
        <pt x="521" y="0" on="1"/>
        <pt x="299" y="0" on="1"/>
        <pt x="305" y="39" on="1"/>
        <pt x="368" y="53" on="1"/>
        <pt x="348" y="203" on="1"/>
        <pt x="176" y="203" on="1"/>
        <pt x="102" y="53" on="1"/>
        <pt x="165" y="39" on="1"/>
        <pt x="156" y="0" on="1"/>
        <pt x="-39" y="0" on="1"/>
      </contour>
      <contour>
        <pt x="341" y="250" on="1"/>
        <pt x="311" y="470" on="1"/>
        <pt x="200" y="250" on="1"/>
      </contour>
    </TTGlyph>
    <TTGlyph name="Abreve" xMin="-39" yMin="0" xMax="528" yMax="786">
      <contour>
        <pt x="259" y="664" on="0"/>
        <pt x="259" y="751" on="1"/>
        <pt x="259" y="764" on="0"/>
        <pt x="265" y="786" on="1"/>
        <pt x="305" y="786" on="1"/>
        <pt x="303" y="776" on="0"/>
        <pt x="303" y="769" on="1"/>
        <pt x="304" y="748" on="0"/>
        <pt x="331" y="724" on="0"/>
        <pt x="369" y="724" on="1"/>
        <pt x="416" y="724" on="0"/>
        <pt x="457" y="758" on="0"/>
        <pt x="462" y="786" on="1"/>
        <pt x="501" y="786" on="1"/>
        <pt x="477" y="664" on="0"/>
        <pt x="360" y="664" on="1"/>
      </contour>
      <contour>
        <pt x="-32" y="38" on="1"/>
        <pt x="39" y="54" on="1"/>
        <pt x="323" y="615" on="1"/>
        <pt x="383" y="626" on="1"/>
        <pt x="466" y="57" on="1"/>
        <pt x="528" y="38" on="1"/>
        <pt x="521" y="0" on="1"/>
        <pt x="299" y="0" on="1"/>
        <pt x="305" y="39" on="1"/>
        <pt x="368" y="53" on="1"/>
        <pt x="348" y="203" on="1"/>
        <pt x="176" y="203" on="1"/>
        <pt x="102" y="53" on="1"/>
        <pt x="165" y="39" on="1"/>
        <pt x="156" y="0" on="1"/>
        <pt x="-39" y="0" on="1"/>
      </contour>
      <contour>
        <pt x="341" y="250" on="1"/>
        <pt x="311" y="470" on="1"/>
        <pt x="200" y="250" on="1"/>
      </contour>
    </TTGlyph>
    <TTGlyph name="Acircumflex" xMin="-39" yMin="0" xMax="528" yMax="801">
      <contour>
        <pt x="379" y="725" on="1"/>
        <pt x="241" y="647" on="1"/>
        <pt x="220" y="669" on="1"/>
        <pt x="356" y="801" on="1"/>
        <pt x="424" y="801" on="1"/>
        <pt x="503" y="668" on="1"/>
        <pt x="476" y="647" on="1"/>
      </contour>
      <contour>
        <pt x="176" y="203" on="1"/>
        <pt x="102" y="53" on="1"/>
        <pt x="165" y="39" on="1"/>
        <pt x="156" y="0" on="1"/>
        <pt x="-39" y="0" on="1"/>
        <pt x="-32" y="38" on="1"/>
        <pt x="39" y="54" on="1"/>
        <pt x="323" y="615" on="1"/>
        <pt x="383" y="626" on="1"/>
        <pt x="466" y="57" on="1"/>
        <pt x="528" y="38" on="1"/>
        <pt x="521" y="0" on="1"/>
        <pt x="299" y="0" on="1"/>
        <pt x="305" y="39" on="1"/>
        <pt x="368" y="53" on="1"/>
        <pt x="348" y="203" on="1"/>
      </contour>
      <contour>
        <pt x="341" y="250" on="1"/>
        <pt x="311" y="470" on="1"/>
        <pt x="200" y="250" on="1"/>
      </contour>
    </TTGlyph>
    <TTGlyph name="Adieresis" xMin="-39" yMin="0" xMax="540" yMax="786">
      <contour>
        <pt x="247" y="664" on="0"/>
        <pt x="209" y="699" on="0"/>
        <pt x="209" y="724" on="1"/>
        <pt x="209" y="750" on="0"/>
        <pt x="247" y="786" on="0"/>
        <pt x="272" y="786" on="1"/>
        <pt x="297" y="786" on="0"/>
        <pt x="334" y="750" on="0"/>
        <pt x="334" y="724" on="1"/>
        <pt x="334" y="699" on="0"/>
        <pt x="297" y="664" on="0"/>
        <pt x="272" y="664" on="1"/>
      </contour>
      <contour>
        <pt x="452" y="664" on="0"/>
        <pt x="414" y="699" on="0"/>
        <pt x="414" y="724" on="1"/>
        <pt x="414" y="750" on="0"/>
        <pt x="452" y="786" on="0"/>
        <pt x="477" y="786" on="1"/>
        <pt x="502" y="786" on="0"/>
        <pt x="540" y="750" on="0"/>
        <pt x="540" y="724" on="1"/>
        <pt x="540" y="699" on="0"/>
        <pt x="502" y="664" on="0"/>
        <pt x="477" y="664" on="1"/>
      </contour>
      <contour>
        <pt x="-32" y="38" on="1"/>
        <pt x="39" y="54" on="1"/>
        <pt x="323" y="615" on="1"/>
        <pt x="383" y="626" on="1"/>
        <pt x="466" y="57" on="1"/>
        <pt x="528" y="38" on="1"/>
        <pt x="521" y="0" on="1"/>
        <pt x="299" y="0" on="1"/>
        <pt x="305" y="39" on="1"/>
        <pt x="368" y="53" on="1"/>
        <pt x="348" y="203" on="1"/>
        <pt x="176" y="203" on="1"/>
        <pt x="102" y="53" on="1"/>
        <pt x="165" y="39" on="1"/>
        <pt x="156" y="0" on="1"/>
        <pt x="-39" y="0" on="1"/>
      </contour>
      <contour>
        <pt x="341" y="250" on="1"/>
        <pt x="311" y="470" on="1"/>
        <pt x="200" y="250" on="1"/>
      </contour>
    </TTGlyph>
    <TTGlyph name="Agrave" xMin="-39" yMin="0" xMax="528" yMax="800">
      <contour>
        <pt x="223" y="751" on="1"/>
        <pt x="224" y="770" on="1"/>
        <pt x="307" y="800" on="1"/>
        <pt x="461" y="670" on="1"/>
        <pt x="443" y="646" on="1"/>
      </contour>
      <contour>
        <pt x="-32" y="38" on="1"/>
        <pt x="39" y="54" on="1"/>
        <pt x="323" y="615" on="1"/>
        <pt x="383" y="626" on="1"/>
        <pt x="466" y="57" on="1"/>
        <pt x="528" y="38" on="1"/>
        <pt x="521" y="0" on="1"/>
        <pt x="299" y="0" on="1"/>
        <pt x="305" y="39" on="1"/>
        <pt x="368" y="53" on="1"/>
        <pt x="348" y="203" on="1"/>
        <pt x="176" y="203" on="1"/>
        <pt x="102" y="53" on="1"/>
        <pt x="165" y="39" on="1"/>
        <pt x="156" y="0" on="1"/>
        <pt x="-39" y="0" on="1"/>
      </contour>
      <contour>
        <pt x="341" y="250" on="1"/>
        <pt x="311" y="470" on="1"/>
        <pt x="200" y="250" on="1"/>
      </contour>
    </TTGlyph>
    <TTGlyph name="Amacron" xMin="-39" yMin="0" xMax="528" yMax="747">
      <contour>
        <pt x="246" y="747" on="1"/>
        <pt x="490" y="747" on="1"/>
        <pt x="481" y="686" on="1"/>
        <pt x="237" y="686" on="1"/>
      </contour>
      <contour>
        <pt x="-32" y="38" on="1"/>
        <pt x="39" y="54" on="1"/>
        <pt x="323" y="615" on="1"/>
        <pt x="383" y="626" on="1"/>
        <pt x="466" y="57" on="1"/>
        <pt x="528" y="38" on="1"/>
        <pt x="521" y="0" on="1"/>
        <pt x="299" y="0" on="1"/>
        <pt x="305" y="39" on="1"/>
        <pt x="368" y="53" on="1"/>
        <pt x="348" y="203" on="1"/>
        <pt x="176" y="203" on="1"/>
        <pt x="102" y="53" on="1"/>
        <pt x="165" y="39" on="1"/>
        <pt x="156" y="0" on="1"/>
        <pt x="-39" y="0" on="1"/>
      </contour>
      <contour>
        <pt x="341" y="250" on="1"/>
        <pt x="311" y="470" on="1"/>
        <pt x="200" y="250" on="1"/>
      </contour>
    </TTGlyph>
    <TTGlyph name="Aogonek" xMin="-39" yMin="-236" xMax="531" yMax="625">
      <contour>
        <pt x="268" y="-236" on="0"/>
        <pt x="227" y="-196" on="0"/>
        <pt x="227" y="-164" on="1"/>
        <pt x="227" y="-120" on="0"/>
        <pt x="278" y="-52" on="0"/>
        <pt x="324" y="-11" on="1"/>
        <pt x="347" y="8" on="0"/>
        <pt x="369" y="32" on="0"/>
        <pt x="369" y="42" on="1"/>
        <pt x="369" y="46" on="0"/>
        <pt x="367" y="64" on="1"/>
        <pt x="350" y="205" on="1"/>
        <pt x="181" y="205" on="1"/>
        <pt x="102" y="53" on="1"/>
        <pt x="165" y="39" on="1"/>
        <pt x="156" y="0" on="1"/>
        <pt x="-39" y="0" on="1"/>
        <pt x="-32" y="38" on="1"/>
        <pt x="39" y="54" on="1"/>
        <pt x="331" y="612" on="1"/>
        <pt x="395" y="625" on="1"/>
        <pt x="469" y="56" on="1"/>
        <pt x="531" y="38" on="1"/>
        <pt x="524" y="0" on="1"/>
        <pt x="413" y="0" on="1"/>
        <pt x="388" y="0" on="0"/>
        <pt x="336" y="-45" on="0"/>
        <pt x="301" y="-111" on="0"/>
        <pt x="301" y="-140" on="1"/>
        <pt x="301" y="-187" on="0"/>
        <pt x="347" y="-187" on="1"/>
        <pt x="375" y="-187" on="0"/>
        <pt x="403" y="-165" on="1"/>
        <pt x="419" y="-183" on="1"/>
        <pt x="419" y="-185" on="0"/>
        <pt x="390" y="-212" on="0"/>
        <pt x="343" y="-236" on="0"/>
        <pt x="313" y="-236" on="1"/>
      </contour>
      <contour>
        <pt x="345" y="254" on="1"/>
        <pt x="319" y="469" on="1"/>
        <pt x="207" y="254" on="1"/>
      </contour>
    </TTGlyph>
    <TTGlyph name="Aring" xMin="-39" yMin="0" xMax="528" yMax="820">
      <contour>
        <pt x="321" y="636" on="0"/>
        <pt x="276" y="674" on="0"/>
        <pt x="276" y="706" on="1"/>
        <pt x="276" y="755" on="0"/>
        <pt x="340" y="820" on="0"/>
        <pt x="398" y="820" on="1"/>
        <pt x="440" y="820" on="0"/>
        <pt x="484" y="779" on="0"/>
        <pt x="484" y="746" on="1"/>
        <pt x="484" y="699" on="0"/>
        <pt x="418" y="636" on="0"/>
        <pt x="364" y="636" on="1"/>
      </contour>
      <contour>
        <pt x="400" y="674" on="0"/>
        <pt x="425" y="715" on="0"/>
        <pt x="425" y="744" on="1"/>
        <pt x="425" y="781" on="0"/>
        <pt x="389" y="781" on="1"/>
        <pt x="360" y="781" on="0"/>
        <pt x="335" y="740" on="0"/>
        <pt x="335" y="710" on="1"/>
        <pt x="335" y="692" on="0"/>
        <pt x="351" y="674" on="0"/>
        <pt x="371" y="674" on="1"/>
      </contour>
      <contour>
        <pt x="-32" y="38" on="1"/>
        <pt x="39" y="54" on="1"/>
        <pt x="323" y="615" on="1"/>
        <pt x="383" y="626" on="1"/>
        <pt x="466" y="57" on="1"/>
        <pt x="528" y="38" on="1"/>
        <pt x="521" y="0" on="1"/>
        <pt x="299" y="0" on="1"/>
        <pt x="305" y="39" on="1"/>
        <pt x="368" y="53" on="1"/>
        <pt x="348" y="203" on="1"/>
        <pt x="176" y="203" on="1"/>
        <pt x="102" y="53" on="1"/>
        <pt x="165" y="39" on="1"/>
        <pt x="156" y="0" on="1"/>
        <pt x="-39" y="0" on="1"/>
      </contour>
      <contour>
        <pt x="341" y="250" on="1"/>
        <pt x="311" y="470" on="1"/>
        <pt x="200" y="250" on="1"/>
      </contour>
    </TTGlyph>
    <TTGlyph name="Aringacute" xMin="-38" yMin="0" xMax="572" yMax="980">
      <component glyphName=".ttfautohint" x="0" y="0" flags="0x0"/>
      <component glyphName="A" x="0" y="0" flags="0x0"/>
      <component glyphName="uni030A" x="405" y="0" flags="0x0"/>
      <component glyphName="acutecomb" x="491" y="180" flags="0x4"/>
    </TTGlyph>
    <TTGlyph name="Atilde" xMin="-39" yMin="0" xMax="532" yMax="782">
      <contour>
        <pt x="513" y="716" on="0"/>
        <pt x="476" y="665" on="0"/>
        <pt x="454" y="665" on="1"/>
        <pt x="430" y="665" on="0"/>
        <pt x="369" y="686" on="1"/>
        <pt x="311" y="704" on="0"/>
        <pt x="295" y="704" on="1"/>
        <pt x="285" y="704" on="0"/>
        <pt x="265" y="689" on="0"/>
        <pt x="253" y="673" on="0"/>
        <pt x="251" y="670" on="1"/>
        <pt x="216" y="684" on="1"/>
        <pt x="254" y="782" on="0"/>
        <pt x="296" y="782" on="1"/>
        <pt x="316" y="782" on="0"/>
        <pt x="376" y="762" on="1"/>
        <pt x="384" y="760" on="0"/>
        <pt x="440" y="743" on="0"/>
        <pt x="455" y="743" on="1"/>
        <pt x="465" y="743" on="0"/>
        <pt x="484" y="758" on="0"/>
        <pt x="496" y="774" on="0"/>
        <pt x="497" y="777" on="1"/>
        <pt x="532" y="763" on="1"/>
      </contour>
      <contour>
        <pt x="176" y="203" on="1"/>
        <pt x="102" y="53" on="1"/>
        <pt x="165" y="39" on="1"/>
        <pt x="156" y="0" on="1"/>
        <pt x="-39" y="0" on="1"/>
        <pt x="-32" y="38" on="1"/>
        <pt x="39" y="54" on="1"/>
        <pt x="323" y="615" on="1"/>
        <pt x="383" y="626" on="1"/>
        <pt x="466" y="57" on="1"/>
        <pt x="528" y="38" on="1"/>
        <pt x="521" y="0" on="1"/>
        <pt x="299" y="0" on="1"/>
        <pt x="305" y="39" on="1"/>
        <pt x="368" y="53" on="1"/>
        <pt x="348" y="203" on="1"/>
      </contour>
      <contour>
        <pt x="341" y="250" on="1"/>
        <pt x="311" y="470" on="1"/>
        <pt x="200" y="250" on="1"/>
      </contour>
    </TTGlyph>
    <TTGlyph name="B" xMin="-15" yMin="0" xMax="513" yMax="612">
      <contour>
        <pt x="475" y="298" on="0"/>
        <pt x="475" y="197" on="1"/>
        <pt x="475" y="141" on="0"/>
        <pt x="411" y="51" on="0"/>
        <pt x="296" y="0" on="0"/>
        <pt x="222" y="0" on="1"/>
        <pt x="-15" y="0" on="1"/>
        <pt x="-9" y="37" on="1"/>
        <pt x="78" y="58" on="1"/>
        <pt x="174" y="555" on="1"/>
        <pt x="96" y="575" on="1"/>
        <pt x="103" y="612" on="1"/>
        <pt x="339" y="612" on="1"/>
        <pt x="427" y="612" on="0"/>
        <pt x="513" y="550" on="0"/>
        <pt x="513" y="497" on="1"/>
        <pt x="513" y="428" on="0"/>
        <pt x="423" y="336" on="0"/>
        <pt x="354" y="323" on="1"/>
      </contour>
      <contour>
        <pt x="327" y="339" on="0"/>
        <pt x="413" y="413" on="0"/>
        <pt x="413" y="486" on="1"/>
        <pt x="413" y="564" on="0"/>
        <pt x="325" y="564" on="1"/>
        <pt x="300" y="564" on="0"/>
        <pt x="270" y="558" on="1"/>
        <pt x="228" y="339" on="1"/>
        <pt x="267" y="339" on="1"/>
      </contour>
      <contour>
        <pt x="193" y="47" on="0"/>
        <pt x="225" y="47" on="1"/>
        <pt x="262" y="47" on="0"/>
        <pt x="330" y="79" on="0"/>
        <pt x="373" y="149" on="0"/>
        <pt x="373" y="202" on="1"/>
        <pt x="373" y="248" on="0"/>
        <pt x="311" y="296" on="0"/>
        <pt x="254" y="296" on="1"/>
        <pt x="219" y="296" on="1"/>
        <pt x="172" y="55" on="1"/>
      </contour>
    </TTGlyph>
    <TTGlyph name="C" xMin="35" yMin="-9" xMax="549" yMax="627">
      <contour>
        <pt x="392" y="6" on="0"/>
        <pt x="311" y="-9" on="0"/>
        <pt x="259" y="-9" on="1"/>
        <pt x="144" y="-9" on="0"/>
        <pt x="35" y="107" on="0"/>
        <pt x="35" y="212" on="1"/>
        <pt x="35" y="322" on="0"/>
        <pt x="118" y="512" on="0"/>
        <pt x="276" y="627" on="0"/>
        <pt x="383" y="627" on="1"/>
        <pt x="479" y="627" on="0"/>
        <pt x="549" y="600" on="1"/>
        <pt x="512" y="462" on="1"/>
        <pt x="473" y="462" on="1"/>
        <pt x="472" y="561" on="1"/>
        <pt x="433" y="573" on="0"/>
        <pt x="377" y="573" on="1"/>
        <pt x="298" y="573" on="0"/>
        <pt x="192" y="468" on="0"/>
        <pt x="142" y="304" on="0"/>
        <pt x="142" y="214" on="1"/>
        <pt x="142" y="130" on="0"/>
        <pt x="208" y="45" on="0"/>
        <pt x="284" y="45" on="1"/>
        <pt x="328" y="45" on="0"/>
        <pt x="373" y="59" on="1"/>
        <pt x="412" y="144" on="1"/>
        <pt x="452" y="144" on="1"/>
        <pt x="436" y="22" on="1"/>
      </contour>
    </TTGlyph>
    <TTGlyph name="Cacute" xMin="26" yMin="-9" xMax="540" yMax="800">
      <contour>
        <pt x="280" y="670" on="1"/>
        <pt x="435" y="800" on="1"/>
        <pt x="518" y="770" on="1"/>
        <pt x="518" y="751" on="1"/>
        <pt x="300" y="646" on="1"/>
      </contour>
      <contour>
        <pt x="382" y="6" on="0"/>
        <pt x="301" y="-9" on="0"/>
        <pt x="250" y="-9" on="1"/>
        <pt x="134" y="-9" on="0"/>
        <pt x="26" y="107" on="0"/>
        <pt x="26" y="212" on="1"/>
        <pt x="26" y="322" on="0"/>
        <pt x="109" y="512" on="0"/>
        <pt x="267" y="627" on="0"/>
        <pt x="374" y="627" on="1"/>
        <pt x="470" y="627" on="0"/>
        <pt x="540" y="600" on="1"/>
        <pt x="503" y="462" on="1"/>
        <pt x="464" y="462" on="1"/>
        <pt x="463" y="561" on="1"/>
        <pt x="424" y="573" on="0"/>
        <pt x="368" y="573" on="1"/>
        <pt x="289" y="573" on="0"/>
        <pt x="183" y="468" on="0"/>
        <pt x="133" y="304" on="0"/>
        <pt x="133" y="214" on="1"/>
        <pt x="133" y="130" on="0"/>
        <pt x="199" y="45" on="0"/>
        <pt x="275" y="45" on="1"/>
        <pt x="320" y="45" on="0"/>
        <pt x="363" y="59" on="1"/>
        <pt x="402" y="144" on="1"/>
        <pt x="443" y="144" on="1"/>
        <pt x="427" y="22" on="1"/>
      </contour>
    </TTGlyph>
    <TTGlyph name="Cacute.loclPLK" xMin="35" yMin="-9" xMax="549" yMax="810">
      <component glyphName=".ttfautohint" x="35" y="0" flags="0x0"/>
      <component glyphName="C" x="0" y="0" flags="0x0"/>
      <component glyphName="acute.loclPLK.case" x="206" y="0" flags="0x0"/>
    </TTGlyph>
    <TTGlyph name="Ccaron" xMin="26" yMin="-9" xMax="540" yMax="802">
      <contour>
        <pt x="380" y="723" on="1"/>
        <pt x="511" y="802" on="1"/>
        <pt x="532" y="780" on="1"/>
        <pt x="402" y="648" on="1"/>
        <pt x="335" y="648" on="1"/>
        <pt x="248" y="781" on="1"/>
        <pt x="276" y="801" on="1"/>
      </contour>
      <contour>
        <pt x="382" y="6" on="0"/>
        <pt x="301" y="-9" on="0"/>
        <pt x="250" y="-9" on="1"/>
        <pt x="134" y="-9" on="0"/>
        <pt x="26" y="107" on="0"/>
        <pt x="26" y="212" on="1"/>
        <pt x="26" y="322" on="0"/>
        <pt x="109" y="512" on="0"/>
        <pt x="267" y="627" on="0"/>
        <pt x="374" y="627" on="1"/>
        <pt x="470" y="627" on="0"/>
        <pt x="540" y="600" on="1"/>
        <pt x="503" y="462" on="1"/>
        <pt x="464" y="462" on="1"/>
        <pt x="463" y="561" on="1"/>
        <pt x="424" y="573" on="0"/>
        <pt x="368" y="573" on="1"/>
        <pt x="289" y="573" on="0"/>
        <pt x="183" y="468" on="0"/>
        <pt x="133" y="304" on="0"/>
        <pt x="133" y="214" on="1"/>
        <pt x="133" y="130" on="0"/>
        <pt x="199" y="45" on="0"/>
        <pt x="275" y="45" on="1"/>
        <pt x="320" y="45" on="0"/>
        <pt x="363" y="59" on="1"/>
        <pt x="402" y="144" on="1"/>
        <pt x="443" y="144" on="1"/>
        <pt x="427" y="22" on="1"/>
      </contour>
    </TTGlyph>
    <TTGlyph name="Ccedilla" xMin="26" yMin="-219" xMax="540" yMax="627">
      <contour>
        <pt x="384" y="7" on="0"/>
        <pt x="305" y="-8" on="0"/>
        <pt x="255" y="-9" on="1"/>
        <pt x="236" y="-45" on="1"/>
        <pt x="282" y="-45" on="0"/>
        <pt x="327" y="-78" on="0"/>
        <pt x="327" y="-104" on="1"/>
        <pt x="327" y="-136" on="0"/>
        <pt x="284" y="-189" on="0"/>
        <pt x="217" y="-219" on="0"/>
        <pt x="182" y="-219" on="1"/>
        <pt x="144" y="-219" on="0"/>
        <pt x="120" y="-210" on="1"/>
        <pt x="135" y="-180" on="1"/>
        <pt x="152" y="-187" on="0"/>
        <pt x="172" y="-187" on="1"/>
        <pt x="205" y="-187" on="0"/>
        <pt x="252" y="-148" on="0"/>
        <pt x="252" y="-120" on="1"/>
        <pt x="252" y="-103" on="0"/>
        <pt x="223" y="-80" on="0"/>
        <pt x="190" y="-80" on="1"/>
        <pt x="188" y="-68" on="1"/>
        <pt x="219" y="-8" on="1"/>
        <pt x="119" y="-1" on="0"/>
        <pt x="26" y="114" on="0"/>
        <pt x="26" y="212" on="1"/>
        <pt x="26" y="322" on="0"/>
        <pt x="109" y="512" on="0"/>
        <pt x="267" y="627" on="0"/>
        <pt x="374" y="627" on="1"/>
        <pt x="470" y="627" on="0"/>
        <pt x="540" y="600" on="1"/>
        <pt x="503" y="462" on="1"/>
        <pt x="464" y="462" on="1"/>
        <pt x="463" y="561" on="1"/>
        <pt x="424" y="573" on="0"/>
        <pt x="368" y="573" on="1"/>
        <pt x="289" y="573" on="0"/>
        <pt x="183" y="468" on="0"/>
        <pt x="133" y="304" on="0"/>
        <pt x="133" y="214" on="1"/>
        <pt x="133" y="130" on="0"/>
        <pt x="199" y="45" on="0"/>
        <pt x="275" y="45" on="1"/>
        <pt x="320" y="45" on="0"/>
        <pt x="363" y="59" on="1"/>
        <pt x="402" y="144" on="1"/>
        <pt x="443" y="144" on="1"/>
        <pt x="427" y="22" on="1"/>
      </contour>
    </TTGlyph>
    <TTGlyph name="Ccircumflex" xMin="35" yMin="-9" xMax="549" yMax="801">
      <component glyphName=".ttfautohint" x="35" y="0" flags="0x0"/>
      <component glyphName="C" x="0" y="0" flags="0x0"/>
      <component glyphName="uni0302" x="433" y="0" flags="0x0"/>
    </TTGlyph>
    <TTGlyph name="Cdotaccent" xMin="35" yMin="-9" xMax="549" yMax="789">
      <component glyphName=".ttfautohint" x="35" y="0" flags="0x0"/>
      <component glyphName="C" x="0" y="0" flags="0x0"/>
      <component glyphName="uni0307" x="438" y="0" flags="0x0"/>
    </TTGlyph>
    <TTGlyph name="D" xMin="-12" yMin="0" xMax="599" yMax="612">
      <contour>
        <pt x="-5" y="37" on="1"/>
        <pt x="82" y="58" on="1"/>
        <pt x="178" y="555" on="1"/>
        <pt x="100" y="575" on="1"/>
        <pt x="106" y="612" on="1"/>
        <pt x="364" y="612" on="1"/>
        <pt x="483" y="612" on="0"/>
        <pt x="599" y="502" on="0"/>
        <pt x="599" y="402" on="1"/>
        <pt x="599" y="298" on="0"/>
        <pt x="519" y="114" on="0"/>
        <pt x="363" y="0" on="0"/>
        <pt x="256" y="0" on="1"/>
        <pt x="-12" y="0" on="1"/>
      </contour>
      <contour>
        <pt x="342" y="47" on="0"/>
        <pt x="446" y="156" on="0"/>
        <pt x="494" y="320" on="0"/>
        <pt x="494" y="402" on="1"/>
        <pt x="494" y="481" on="0"/>
        <pt x="422" y="561" on="0"/>
        <pt x="348" y="561" on="1"/>
        <pt x="305" y="561" on="0"/>
        <pt x="273" y="555" on="1"/>
        <pt x="177" y="62" on="1"/>
        <pt x="214" y="47" on="0"/>
        <pt x="263" y="47" on="1"/>
      </contour>
    </TTGlyph>
    <TTGlyph name="Dcaron" xMin="-7" yMin="0" xMax="604" yMax="802">
      <contour>
        <pt x="239" y="781" on="1"/>
        <pt x="267" y="801" on="1"/>
        <pt x="371" y="723" on="1"/>
        <pt x="502" y="802" on="1"/>
        <pt x="523" y="780" on="1"/>
        <pt x="394" y="648" on="1"/>
        <pt x="326" y="648" on="1"/>
      </contour>
      <contour>
        <pt x="0" y="37" on="1"/>
        <pt x="87" y="58" on="1"/>
        <pt x="183" y="555" on="1"/>
        <pt x="104" y="575" on="1"/>
        <pt x="111" y="612" on="1"/>
        <pt x="369" y="612" on="1"/>
        <pt x="488" y="612" on="0"/>
        <pt x="604" y="502" on="0"/>
        <pt x="604" y="402" on="1"/>
        <pt x="604" y="298" on="0"/>
        <pt x="524" y="114" on="0"/>
        <pt x="368" y="0" on="0"/>
        <pt x="261" y="0" on="1"/>
        <pt x="-7" y="0" on="1"/>
      </contour>
      <contour>
        <pt x="347" y="47" on="0"/>
        <pt x="451" y="156" on="0"/>
        <pt x="499" y="320" on="0"/>
        <pt x="499" y="402" on="1"/>
        <pt x="499" y="481" on="0"/>
        <pt x="427" y="561" on="0"/>
        <pt x="353" y="561" on="1"/>
        <pt x="310" y="561" on="0"/>
        <pt x="278" y="555" on="1"/>
        <pt x="182" y="62" on="1"/>
        <pt x="219" y="47" on="0"/>
        <pt x="268" y="47" on="1"/>
      </contour>
    </TTGlyph>
    <TTGlyph name="Dcroat" xMin="-6" yMin="0" xMax="605" yMax="612">
      <contour>
        <pt x="1" y="37" on="1"/>
        <pt x="88" y="58" on="1"/>
        <pt x="130" y="276" on="1"/>
        <pt x="55" y="276" on="1"/>
        <pt x="64" y="325" on="1"/>
        <pt x="139" y="325" on="1"/>
        <pt x="184" y="555" on="1"/>
        <pt x="105" y="575" on="1"/>
        <pt x="112" y="612" on="1"/>
        <pt x="370" y="612" on="1"/>
        <pt x="489" y="612" on="0"/>
        <pt x="605" y="502" on="0"/>
        <pt x="605" y="402" on="1"/>
        <pt x="605" y="298" on="0"/>
        <pt x="525" y="114" on="0"/>
        <pt x="369" y="0" on="0"/>
        <pt x="262" y="0" on="1"/>
        <pt x="-6" y="0" on="1"/>
      </contour>
      <contour>
        <pt x="347" y="47" on="0"/>
        <pt x="452" y="156" on="0"/>
        <pt x="500" y="319" on="0"/>
        <pt x="500" y="402" on="1"/>
        <pt x="500" y="481" on="0"/>
        <pt x="428" y="561" on="0"/>
        <pt x="354" y="561" on="1"/>
        <pt x="309" y="561" on="0"/>
        <pt x="279" y="555" on="1"/>
        <pt x="234" y="325" on="1"/>
        <pt x="337" y="325" on="1"/>
        <pt x="328" y="276" on="1"/>
        <pt x="225" y="276" on="1"/>
        <pt x="183" y="62" on="1"/>
        <pt x="199" y="55" on="0"/>
        <pt x="246" y="47" on="0"/>
        <pt x="268" y="47" on="1"/>
      </contour>
    </TTGlyph>
    <TTGlyph name="E" xMin="-12" yMin="0" xMax="527" yMax="612">
      <contour>
        <pt x="430" y="393" on="1"/>
        <pt x="394" y="209" on="1"/>
        <pt x="356" y="209" on="1"/>
        <pt x="347" y="278" on="1"/>
        <pt x="223" y="278" on="1"/>
        <pt x="181" y="60" on="1"/>
        <pt x="375" y="60" on="1"/>
        <pt x="417" y="151" on="1"/>
        <pt x="459" y="151" on="1"/>
        <pt x="430" y="0" on="1"/>
        <pt x="-12" y="0" on="1"/>
        <pt x="-5" y="37" on="1"/>
        <pt x="85" y="58" on="1"/>
        <pt x="182" y="555" on="1"/>
        <pt x="100" y="575" on="1"/>
        <pt x="106" y="612" on="1"/>
        <pt x="527" y="612" on="1"/>
        <pt x="501" y="476" on="1"/>
        <pt x="458" y="476" on="1"/>
        <pt x="457" y="555" on="1"/>
        <pt x="277" y="555" on="1"/>
        <pt x="233" y="327" on="1"/>
        <pt x="359" y="327" on="1"/>
        <pt x="391" y="393" on="1"/>
      </contour>
    </TTGlyph>
    <TTGlyph name="Eacute" xMin="-7" yMin="0" xMax="531" yMax="800">
      <contour>
        <pt x="255" y="670" on="1"/>
        <pt x="409" y="800" on="1"/>
        <pt x="492" y="770" on="1"/>
        <pt x="492" y="751" on="1"/>
        <pt x="274" y="646" on="1"/>
      </contour>
      <contour>
        <pt x="435" y="393" on="1"/>
        <pt x="399" y="209" on="1"/>
        <pt x="361" y="209" on="1"/>
        <pt x="352" y="278" on="1"/>
        <pt x="228" y="278" on="1"/>
        <pt x="186" y="60" on="1"/>
        <pt x="380" y="60" on="1"/>
        <pt x="422" y="151" on="1"/>
        <pt x="464" y="151" on="1"/>
        <pt x="435" y="0" on="1"/>
        <pt x="-7" y="0" on="1"/>
        <pt x="0" y="37" on="1"/>
        <pt x="90" y="58" on="1"/>
        <pt x="187" y="555" on="1"/>
        <pt x="104" y="575" on="1"/>
        <pt x="111" y="612" on="1"/>
        <pt x="531" y="612" on="1"/>
        <pt x="506" y="476" on="1"/>
        <pt x="463" y="476" on="1"/>
        <pt x="462" y="555" on="1"/>
        <pt x="282" y="555" on="1"/>
        <pt x="238" y="327" on="1"/>
        <pt x="364" y="327" on="1"/>
        <pt x="396" y="393" on="1"/>
      </contour>
    </TTGlyph>
    <TTGlyph name="Ebreve" xMin="-12" yMin="0" xMax="527" yMax="786">
      <component glyphName=".ttfautohint" x="0" y="0" flags="0x0"/>
      <component glyphName="E" x="0" y="0" flags="0x0"/>
      <component glyphName="uni0306" x="390" y="0" flags="0x0"/>
    </TTGlyph>
    <TTGlyph name="Ecaron" xMin="-7" yMin="0" xMax="531" yMax="802">
      <contour>
        <pt x="357" y="723" on="1"/>
        <pt x="488" y="802" on="1"/>
        <pt x="509" y="780" on="1"/>
        <pt x="380" y="648" on="1"/>
        <pt x="312" y="648" on="1"/>
        <pt x="225" y="781" on="1"/>
        <pt x="253" y="801" on="1"/>
      </contour>
      <contour>
        <pt x="435" y="393" on="1"/>
        <pt x="399" y="209" on="1"/>
        <pt x="361" y="209" on="1"/>
        <pt x="352" y="278" on="1"/>
        <pt x="228" y="278" on="1"/>
        <pt x="186" y="60" on="1"/>
        <pt x="380" y="60" on="1"/>
        <pt x="422" y="151" on="1"/>
        <pt x="464" y="151" on="1"/>
        <pt x="435" y="0" on="1"/>
        <pt x="-7" y="0" on="1"/>
        <pt x="0" y="37" on="1"/>
        <pt x="90" y="58" on="1"/>
        <pt x="187" y="555" on="1"/>
        <pt x="104" y="575" on="1"/>
        <pt x="111" y="612" on="1"/>
        <pt x="531" y="612" on="1"/>
        <pt x="506" y="476" on="1"/>
        <pt x="463" y="476" on="1"/>
        <pt x="462" y="555" on="1"/>
        <pt x="282" y="555" on="1"/>
        <pt x="238" y="327" on="1"/>
        <pt x="364" y="327" on="1"/>
        <pt x="396" y="393" on="1"/>
      </contour>
    </TTGlyph>
    <TTGlyph name="Ecircumflex" xMin="-7" yMin="0" xMax="531" yMax="801">
      <contour>
        <pt x="354" y="727" on="1"/>
        <pt x="217" y="647" on="1"/>
        <pt x="196" y="669" on="1"/>
        <pt x="332" y="801" on="1"/>
        <pt x="399" y="801" on="1"/>
        <pt x="479" y="668" on="1"/>
        <pt x="452" y="647" on="1"/>
      </contour>
      <contour>
        <pt x="435" y="393" on="1"/>
        <pt x="399" y="209" on="1"/>
        <pt x="361" y="209" on="1"/>
        <pt x="352" y="278" on="1"/>
        <pt x="228" y="278" on="1"/>
        <pt x="186" y="60" on="1"/>
        <pt x="380" y="60" on="1"/>
        <pt x="422" y="151" on="1"/>
        <pt x="464" y="151" on="1"/>
        <pt x="435" y="0" on="1"/>
        <pt x="-7" y="0" on="1"/>
        <pt x="0" y="37" on="1"/>
        <pt x="90" y="58" on="1"/>
        <pt x="187" y="555" on="1"/>
        <pt x="104" y="575" on="1"/>
        <pt x="111" y="612" on="1"/>
        <pt x="531" y="612" on="1"/>
        <pt x="506" y="476" on="1"/>
        <pt x="463" y="476" on="1"/>
        <pt x="462" y="555" on="1"/>
        <pt x="282" y="555" on="1"/>
        <pt x="238" y="327" on="1"/>
        <pt x="364" y="327" on="1"/>
        <pt x="396" y="393" on="1"/>
      </contour>
    </TTGlyph>
    <TTGlyph name="Edieresis" xMin="-7" yMin="0" xMax="531" yMax="786">
      <contour>
        <pt x="303" y="699" on="0"/>
        <pt x="266" y="664" on="0"/>
        <pt x="241" y="664" on="1"/>
        <pt x="216" y="664" on="0"/>
        <pt x="178" y="699" on="0"/>
        <pt x="178" y="724" on="1"/>
        <pt x="178" y="750" on="0"/>
        <pt x="216" y="786" on="0"/>
        <pt x="241" y="786" on="1"/>
        <pt x="266" y="786" on="0"/>
        <pt x="303" y="750" on="0"/>
        <pt x="303" y="724" on="1"/>
      </contour>
      <contour>
        <pt x="509" y="699" on="0"/>
        <pt x="471" y="664" on="0"/>
        <pt x="446" y="664" on="1"/>
        <pt x="421" y="664" on="0"/>
        <pt x="384" y="699" on="0"/>
        <pt x="384" y="724" on="1"/>
        <pt x="384" y="750" on="0"/>
        <pt x="421" y="786" on="0"/>
        <pt x="446" y="786" on="1"/>
        <pt x="471" y="786" on="0"/>
        <pt x="509" y="750" on="0"/>
        <pt x="509" y="724" on="1"/>
      </contour>
      <contour>
        <pt x="435" y="393" on="1"/>
        <pt x="399" y="209" on="1"/>
        <pt x="361" y="209" on="1"/>
        <pt x="352" y="278" on="1"/>
        <pt x="228" y="278" on="1"/>
        <pt x="186" y="60" on="1"/>
        <pt x="380" y="60" on="1"/>
        <pt x="422" y="151" on="1"/>
        <pt x="464" y="151" on="1"/>
        <pt x="435" y="0" on="1"/>
        <pt x="-7" y="0" on="1"/>
        <pt x="0" y="37" on="1"/>
        <pt x="90" y="58" on="1"/>
        <pt x="187" y="555" on="1"/>
        <pt x="104" y="575" on="1"/>
        <pt x="111" y="612" on="1"/>
        <pt x="531" y="612" on="1"/>
        <pt x="506" y="476" on="1"/>
        <pt x="463" y="476" on="1"/>
        <pt x="462" y="555" on="1"/>
        <pt x="282" y="555" on="1"/>
        <pt x="238" y="327" on="1"/>
        <pt x="364" y="327" on="1"/>
        <pt x="396" y="393" on="1"/>
      </contour>
    </TTGlyph>
    <TTGlyph name="Edotaccent" xMin="-7" yMin="0" xMax="531" yMax="789">
      <contour>
        <pt x="418" y="695" on="0"/>
        <pt x="378" y="658" on="0"/>
        <pt x="351" y="658" on="1"/>
        <pt x="324" y="658" on="0"/>
        <pt x="284" y="695" on="0"/>
        <pt x="284" y="722" on="1"/>
        <pt x="284" y="750" on="0"/>
        <pt x="324" y="789" on="0"/>
        <pt x="351" y="789" on="1"/>
        <pt x="378" y="789" on="0"/>
        <pt x="418" y="749" on="0"/>
        <pt x="418" y="722" on="1"/>
      </contour>
      <contour>
        <pt x="435" y="393" on="1"/>
        <pt x="399" y="209" on="1"/>
        <pt x="361" y="209" on="1"/>
        <pt x="352" y="278" on="1"/>
        <pt x="228" y="278" on="1"/>
        <pt x="186" y="60" on="1"/>
        <pt x="380" y="60" on="1"/>
        <pt x="422" y="151" on="1"/>
        <pt x="464" y="151" on="1"/>
        <pt x="435" y="0" on="1"/>
        <pt x="-7" y="0" on="1"/>
        <pt x="0" y="37" on="1"/>
        <pt x="90" y="58" on="1"/>
        <pt x="187" y="555" on="1"/>
        <pt x="104" y="575" on="1"/>
        <pt x="111" y="612" on="1"/>
        <pt x="531" y="612" on="1"/>
        <pt x="506" y="476" on="1"/>
        <pt x="463" y="476" on="1"/>
        <pt x="462" y="555" on="1"/>
        <pt x="282" y="555" on="1"/>
        <pt x="238" y="327" on="1"/>
        <pt x="364" y="327" on="1"/>
        <pt x="396" y="393" on="1"/>
      </contour>
    </TTGlyph>
    <TTGlyph name="Egrave" xMin="-7" yMin="0" xMax="531" yMax="790">
      <contour>
        <pt x="211" y="764" on="1"/>
        <pt x="266" y="790" on="1"/>
        <pt x="403" y="708" on="1"/>
        <pt x="437" y="656" on="1"/>
        <pt x="279" y="719" on="1"/>
      </contour>
      <contour>
        <pt x="435" y="393" on="1"/>
        <pt x="399" y="209" on="1"/>
        <pt x="361" y="209" on="1"/>
        <pt x="352" y="278" on="1"/>
        <pt x="228" y="278" on="1"/>
        <pt x="186" y="60" on="1"/>
        <pt x="380" y="60" on="1"/>
        <pt x="422" y="151" on="1"/>
        <pt x="464" y="151" on="1"/>
        <pt x="435" y="0" on="1"/>
        <pt x="-7" y="0" on="1"/>
        <pt x="0" y="37" on="1"/>
        <pt x="90" y="58" on="1"/>
        <pt x="187" y="555" on="1"/>
        <pt x="104" y="575" on="1"/>
        <pt x="111" y="612" on="1"/>
        <pt x="531" y="612" on="1"/>
        <pt x="506" y="476" on="1"/>
        <pt x="463" y="476" on="1"/>
        <pt x="462" y="555" on="1"/>
        <pt x="282" y="555" on="1"/>
        <pt x="238" y="327" on="1"/>
        <pt x="364" y="327" on="1"/>
        <pt x="396" y="393" on="1"/>
      </contour>
    </TTGlyph>
    <TTGlyph name="Emacron" xMin="-7" yMin="0" xMax="531" yMax="747">
      <contour>
        <pt x="484" y="747" on="1"/>
        <pt x="475" y="686" on="1"/>
        <pt x="231" y="686" on="1"/>
        <pt x="240" y="747" on="1"/>
      </contour>
      <contour>
        <pt x="435" y="393" on="1"/>
        <pt x="399" y="209" on="1"/>
        <pt x="361" y="209" on="1"/>
        <pt x="352" y="278" on="1"/>
        <pt x="228" y="278" on="1"/>
        <pt x="186" y="60" on="1"/>
        <pt x="380" y="60" on="1"/>
        <pt x="422" y="151" on="1"/>
        <pt x="464" y="151" on="1"/>
        <pt x="435" y="0" on="1"/>
        <pt x="-7" y="0" on="1"/>
        <pt x="0" y="37" on="1"/>
        <pt x="90" y="58" on="1"/>
        <pt x="187" y="555" on="1"/>
        <pt x="104" y="575" on="1"/>
        <pt x="111" y="612" on="1"/>
        <pt x="531" y="612" on="1"/>
        <pt x="506" y="476" on="1"/>
        <pt x="463" y="476" on="1"/>
        <pt x="462" y="555" on="1"/>
        <pt x="282" y="555" on="1"/>
        <pt x="238" y="327" on="1"/>
        <pt x="364" y="327" on="1"/>
        <pt x="396" y="393" on="1"/>
      </contour>
    </TTGlyph>
    <TTGlyph name="Eng" xMin="-14" yMin="-172" xMax="709" yMax="612">
      <contour>
        <pt x="709" y="612" on="1"/>
        <pt x="703" y="575" on="1"/>
        <pt x="620" y="555" on="1"/>
        <pt x="525" y="63" on="1"/>
        <pt x="508" y="-27" on="0"/>
        <pt x="457" y="-130" on="0"/>
        <pt x="384" y="-172" on="0"/>
        <pt x="330" y="-172" on="1"/>
        <pt x="274" y="-172" on="0"/>
        <pt x="220" y="-142" on="1"/>
        <pt x="230" y="-100" on="1"/>
        <pt x="265" y="-112" on="0"/>
        <pt x="310" y="-112" on="1"/>
        <pt x="363" y="-112" on="0"/>
        <pt x="416" y="-40" on="0"/>
        <pt x="425" y="41" on="1"/>
        <pt x="214" y="473" on="1"/>
        <pt x="134" y="58" on="1"/>
        <pt x="210" y="37" on="1"/>
        <pt x="203" y="0" on="1"/>
        <pt x="-14" y="0" on="1"/>
        <pt x="-7" y="37" on="1"/>
        <pt x="74" y="58" on="1"/>
        <pt x="170" y="555" on="1"/>
        <pt x="98" y="575" on="1"/>
        <pt x="104" y="612" on="1"/>
        <pt x="250" y="612" on="1"/>
        <pt x="483" y="142" on="1"/>
        <pt x="562" y="555" on="1"/>
        <pt x="487" y="575" on="1"/>
        <pt x="493" y="612" on="1"/>
      </contour>
    </TTGlyph>
    <TTGlyph name="Eogonek" xMin="-7" yMin="-236" xMax="531" yMax="612">
      <contour>
        <pt x="324" y="-236" on="0"/>
        <pt x="283" y="-196" on="0"/>
        <pt x="283" y="-164" on="1"/>
        <pt x="283" y="-129" on="0"/>
        <pt x="339" y="-42" on="0"/>
        <pt x="397" y="0" on="1"/>
        <pt x="-7" y="0" on="1"/>
        <pt x="0" y="37" on="1"/>
        <pt x="90" y="58" on="1"/>
        <pt x="187" y="555" on="1"/>
        <pt x="104" y="575" on="1"/>
        <pt x="111" y="612" on="1"/>
        <pt x="531" y="612" on="1"/>
        <pt x="506" y="476" on="1"/>
        <pt x="463" y="476" on="1"/>
        <pt x="462" y="555" on="1"/>
        <pt x="282" y="555" on="1"/>
        <pt x="238" y="327" on="1"/>
        <pt x="364" y="327" on="1"/>
        <pt x="396" y="393" on="1"/>
        <pt x="435" y="393" on="1"/>
        <pt x="399" y="209" on="1"/>
        <pt x="361" y="209" on="1"/>
        <pt x="352" y="278" on="1"/>
        <pt x="228" y="278" on="1"/>
        <pt x="186" y="60" on="1"/>
        <pt x="380" y="60" on="1"/>
        <pt x="422" y="151" on="1"/>
        <pt x="464" y="151" on="1"/>
        <pt x="435" y="0" on="1"/>
        <pt x="405" y="-27" on="0"/>
        <pt x="357" y="-108" on="0"/>
        <pt x="357" y="-142" on="1"/>
        <pt x="357" y="-164" on="0"/>
        <pt x="380" y="-187" on="0"/>
        <pt x="402" y="-187" on="1"/>
        <pt x="430" y="-187" on="0"/>
        <pt x="458" y="-165" on="1"/>
        <pt x="474" y="-183" on="1"/>
        <pt x="474" y="-185" on="0"/>
        <pt x="445" y="-212" on="0"/>
        <pt x="398" y="-236" on="0"/>
        <pt x="368" y="-236" on="1"/>
      </contour>
    </TTGlyph>
    <TTGlyph name="Eth" xMin="-10" yMin="0" xMax="601" yMax="612">
      <contour>
        <pt x="-3" y="37" on="1"/>
        <pt x="83" y="58" on="1"/>
        <pt x="126" y="276" on="1"/>
        <pt x="50" y="276" on="1"/>
        <pt x="60" y="325" on="1"/>
        <pt x="135" y="325" on="1"/>
        <pt x="180" y="555" on="1"/>
        <pt x="101" y="575" on="1"/>
        <pt x="108" y="612" on="1"/>
        <pt x="366" y="612" on="1"/>
        <pt x="485" y="612" on="0"/>
        <pt x="601" y="502" on="0"/>
        <pt x="601" y="402" on="1"/>
        <pt x="601" y="298" on="0"/>
        <pt x="521" y="114" on="0"/>
        <pt x="365" y="0" on="0"/>
        <pt x="258" y="0" on="1"/>
        <pt x="-10" y="0" on="1"/>
      </contour>
      <contour>
        <pt x="343" y="47" on="0"/>
        <pt x="447" y="156" on="0"/>
        <pt x="495" y="319" on="0"/>
        <pt x="495" y="402" on="1"/>
        <pt x="495" y="482" on="0"/>
        <pt x="424" y="561" on="0"/>
        <pt x="350" y="561" on="1"/>
        <pt x="305" y="561" on="0"/>
        <pt x="275" y="555" on="1"/>
        <pt x="230" y="325" on="1"/>
        <pt x="334" y="325" on="1"/>
        <pt x="324" y="276" on="1"/>
        <pt x="220" y="276" on="1"/>
        <pt x="179" y="62" on="1"/>
        <pt x="195" y="55" on="0"/>
        <pt x="242" y="47" on="0"/>
        <pt x="264" y="47" on="1"/>
      </contour>
    </TTGlyph>
    <TTGlyph name="Euro" xMin="9" yMin="-6" xMax="513" yMax="620">
      <contour>
        <pt x="184" y="-6" on="0"/>
        <pt x="86" y="70" on="0"/>
        <pt x="86" y="178" on="1"/>
        <pt x="86" y="188" on="0"/>
        <pt x="88" y="216" on="1"/>
        <pt x="9" y="216" on="1"/>
        <pt x="26" y="263" on="1"/>
        <pt x="93" y="263" on="1"/>
        <pt x="104" y="330" on="1"/>
        <pt x="31" y="330" on="1"/>
        <pt x="48" y="377" on="1"/>
        <pt x="118" y="377" on="1"/>
        <pt x="157" y="514" on="0"/>
        <pt x="292" y="620" on="0"/>
        <pt x="375" y="620" on="1"/>
        <pt x="447" y="620" on="0"/>
        <pt x="513" y="592" on="1"/>
        <pt x="476" y="472" on="1"/>
        <pt x="442" y="472" on="1"/>
        <pt x="438" y="555" on="1"/>
        <pt x="409" y="564" on="0"/>
        <pt x="381" y="564" on="1"/>
        <pt x="323" y="564" on="0"/>
        <pt x="239" y="485" on="0"/>
        <pt x="208" y="377" on="1"/>
        <pt x="393" y="377" on="1"/>
        <pt x="376" y="330" on="1"/>
        <pt x="196" y="330" on="1"/>
        <pt x="185" y="263" on="1"/>
        <pt x="371" y="263" on="1"/>
        <pt x="355" y="216" on="1"/>
        <pt x="180" y="216" on="1"/>
        <pt x="179" y="207" on="0"/>
        <pt x="179" y="190" on="1"/>
        <pt x="179" y="51" on="0"/>
        <pt x="308" y="51" on="1"/>
        <pt x="347" y="51" on="0"/>
        <pt x="399" y="63" on="1"/>
        <pt x="399" y="19" on="1"/>
        <pt x="340" y="-6" on="0"/>
        <pt x="270" y="-6" on="1"/>
      </contour>
    </TTGlyph>
    <TTGlyph name="F" xMin="-12" yMin="0" xMax="528" yMax="612">
      <contour>
        <pt x="502" y="476" on="1"/>
        <pt x="459" y="476" on="1"/>
        <pt x="458" y="555" on="1"/>
        <pt x="277" y="555" on="1"/>
        <pt x="231" y="315" on="1"/>
        <pt x="357" y="315" on="1"/>
        <pt x="389" y="381" on="1"/>
        <pt x="427" y="381" on="1"/>
        <pt x="392" y="197" on="1"/>
        <pt x="353" y="197" on="1"/>
        <pt x="348" y="266" on="1"/>
        <pt x="221" y="266" on="1"/>
        <pt x="180" y="58" on="1"/>
        <pt x="285" y="38" on="1"/>
        <pt x="279" y="0" on="1"/>
        <pt x="-12" y="0" on="1"/>
        <pt x="-5" y="37" on="1"/>
        <pt x="85" y="58" on="1"/>
        <pt x="182" y="555" on="1"/>
        <pt x="100" y="575" on="1"/>
        <pt x="106" y="612" on="1"/>
        <pt x="528" y="612" on="1"/>
      </contour>
    </TTGlyph>
    <TTGlyph name="G" xMin="35" yMin="-11" xMax="571" yMax="627">
      <contour>
        <pt x="438" y="573" on="0"/>
        <pt x="386" y="573" on="1"/>
        <pt x="293" y="573" on="0"/>
        <pt x="184" y="450" on="0"/>
        <pt x="142" y="287" on="0"/>
        <pt x="142" y="217" on="1"/>
        <pt x="142" y="43" on="0"/>
        <pt x="285" y="43" on="1"/>
        <pt x="334" y="43" on="0"/>
        <pt x="370" y="59" on="1"/>
        <pt x="404" y="230" on="1"/>
        <pt x="326" y="251" on="1"/>
        <pt x="332" y="288" on="1"/>
        <pt x="571" y="288" on="1"/>
        <pt x="564" y="251" on="1"/>
        <pt x="496" y="231" on="1"/>
        <pt x="457" y="32" on="1"/>
        <pt x="421" y="12" on="0"/>
        <pt x="323" y="-11" on="0"/>
        <pt x="269" y="-11" on="1"/>
        <pt x="35" y="-11" on="0"/>
        <pt x="35" y="212" on="1"/>
        <pt x="35" y="323" on="0"/>
        <pt x="116" y="512" on="0"/>
        <pt x="279" y="627" on="0"/>
        <pt x="396" y="627" on="1"/>
        <pt x="444" y="627" on="0"/>
        <pt x="538" y="611" on="0"/>
        <pt x="567" y="597" on="1"/>
        <pt x="528" y="462" on="1"/>
        <pt x="487" y="462" on="1"/>
        <pt x="482" y="561" on="1"/>
      </contour>
    </TTGlyph>
    <TTGlyph name="G_tilde.loclGUA" xMin="29" yMin="-11" xMax="564" yMax="783">
      <contour>
        <pt x="523" y="717" on="0"/>
        <pt x="486" y="666" on="0"/>
        <pt x="463" y="666" on="1"/>
        <pt x="444" y="666" on="0"/>
        <pt x="380" y="686" on="1"/>
        <pt x="325" y="705" on="0"/>
        <pt x="304" y="705" on="1"/>
        <pt x="294" y="705" on="0"/>
        <pt x="275" y="689" on="0"/>
        <pt x="263" y="673" on="0"/>
        <pt x="261" y="670" on="1"/>
        <pt x="226" y="684" on="1"/>
        <pt x="263" y="783" on="0"/>
        <pt x="305" y="783" on="1"/>
        <pt x="326" y="783" on="0"/>
        <pt x="386" y="763" on="1"/>
        <pt x="409" y="755" on="0"/>
        <pt x="452" y="743" on="0"/>
        <pt x="464" y="743" on="1"/>
        <pt x="474" y="743" on="0"/>
        <pt x="493" y="758" on="0"/>
        <pt x="506" y="774" on="0"/>
        <pt x="507" y="777" on="1"/>
        <pt x="541" y="763" on="1"/>
      </contour>
      <contour>
        <pt x="433" y="573" on="0"/>
        <pt x="380" y="573" on="1"/>
        <pt x="287" y="573" on="0"/>
        <pt x="178" y="450" on="0"/>
        <pt x="136" y="287" on="0"/>
        <pt x="136" y="217" on="1"/>
        <pt x="136" y="43" on="0"/>
        <pt x="279" y="43" on="1"/>
        <pt x="327" y="43" on="0"/>
        <pt x="364" y="59" on="1"/>
        <pt x="397" y="230" on="1"/>
        <pt x="319" y="251" on="1"/>
        <pt x="326" y="288" on="1"/>
        <pt x="564" y="288" on="1"/>
        <pt x="558" y="251" on="1"/>
        <pt x="489" y="231" on="1"/>
        <pt x="451" y="32" on="1"/>
        <pt x="415" y="12" on="0"/>
        <pt x="317" y="-11" on="0"/>
        <pt x="262" y="-11" on="1"/>
        <pt x="29" y="-11" on="0"/>
        <pt x="29" y="212" on="1"/>
        <pt x="29" y="323" on="0"/>
        <pt x="110" y="512" on="0"/>
        <pt x="273" y="627" on="0"/>
        <pt x="390" y="627" on="1"/>
        <pt x="438" y="627" on="0"/>
        <pt x="532" y="611" on="0"/>
        <pt x="560" y="597" on="1"/>
        <pt x="521" y="462" on="1"/>
        <pt x="480" y="462" on="1"/>
        <pt x="475" y="561" on="1"/>
      </contour>
    </TTGlyph>
    <TTGlyph name="Gbreve" xMin="29" yMin="-11" xMax="564" yMax="786">
      <contour>
        <pt x="278" y="664" on="0"/>
        <pt x="278" y="751" on="1"/>
        <pt x="278" y="764" on="0"/>
        <pt x="284" y="786" on="1"/>
        <pt x="325" y="786" on="1"/>
        <pt x="322" y="779" on="0"/>
        <pt x="322" y="769" on="1"/>
        <pt x="323" y="748" on="0"/>
        <pt x="350" y="724" on="0"/>
        <pt x="388" y="724" on="1"/>
        <pt x="435" y="724" on="0"/>
        <pt x="476" y="758" on="0"/>
        <pt x="481" y="786" on="1"/>
        <pt x="521" y="786" on="1"/>
        <pt x="510" y="731" on="0"/>
        <pt x="445" y="664" on="0"/>
        <pt x="380" y="664" on="1"/>
      </contour>
      <contour>
        <pt x="433" y="573" on="0"/>
        <pt x="380" y="573" on="1"/>
        <pt x="287" y="573" on="0"/>
        <pt x="178" y="450" on="0"/>
        <pt x="136" y="287" on="0"/>
        <pt x="136" y="217" on="1"/>
        <pt x="136" y="43" on="0"/>
        <pt x="279" y="43" on="1"/>
        <pt x="327" y="43" on="0"/>
        <pt x="364" y="59" on="1"/>
        <pt x="397" y="230" on="1"/>
        <pt x="319" y="251" on="1"/>
        <pt x="326" y="288" on="1"/>
        <pt x="564" y="288" on="1"/>
        <pt x="558" y="251" on="1"/>
        <pt x="489" y="231" on="1"/>
        <pt x="451" y="32" on="1"/>
        <pt x="415" y="12" on="0"/>
        <pt x="317" y="-11" on="0"/>
        <pt x="262" y="-11" on="1"/>
        <pt x="29" y="-11" on="0"/>
        <pt x="29" y="212" on="1"/>
        <pt x="29" y="323" on="0"/>
        <pt x="110" y="512" on="0"/>
        <pt x="273" y="627" on="0"/>
        <pt x="390" y="627" on="1"/>
        <pt x="438" y="627" on="0"/>
        <pt x="532" y="611" on="0"/>
        <pt x="560" y="597" on="1"/>
        <pt x="521" y="462" on="1"/>
        <pt x="480" y="462" on="1"/>
        <pt x="475" y="561" on="1"/>
      </contour>
    </TTGlyph>
    <TTGlyph name="Gcaron" xMin="35" yMin="-11" xMax="571" yMax="802">
      <component glyphName=".ttfautohint" x="35" y="0" flags="0x0"/>
      <component glyphName="G" x="0" y="0" flags="0x0"/>
      <component glyphName="uni030C" x="419" y="0" flags="0x0"/>
    </TTGlyph>
    <TTGlyph name="Gcircumflex" xMin="35" yMin="-11" xMax="571" yMax="801">
      <component glyphName=".ttfautohint" x="35" y="0" flags="0x0"/>
      <component glyphName="G" x="0" y="0" flags="0x0"/>
      <component glyphName="uni0302" x="418" y="0" flags="0x0"/>
    </TTGlyph>
    <TTGlyph name="Gcommaaccent" xMin="29" yMin="-225" xMax="564" yMax="627">
      <contour>
        <pt x="433" y="573" on="0"/>
        <pt x="380" y="573" on="1"/>
        <pt x="287" y="573" on="0"/>
        <pt x="178" y="450" on="0"/>
        <pt x="136" y="287" on="0"/>
        <pt x="136" y="217" on="1"/>
        <pt x="136" y="43" on="0"/>
        <pt x="279" y="43" on="1"/>
        <pt x="327" y="43" on="0"/>
        <pt x="364" y="59" on="1"/>
        <pt x="397" y="230" on="1"/>
        <pt x="319" y="251" on="1"/>
        <pt x="326" y="288" on="1"/>
        <pt x="564" y="288" on="1"/>
        <pt x="558" y="251" on="1"/>
        <pt x="489" y="231" on="1"/>
        <pt x="451" y="32" on="1"/>
        <pt x="415" y="12" on="0"/>
        <pt x="317" y="-11" on="0"/>
        <pt x="262" y="-11" on="1"/>
        <pt x="29" y="-11" on="0"/>
        <pt x="29" y="212" on="1"/>
        <pt x="29" y="323" on="0"/>
        <pt x="110" y="512" on="0"/>
        <pt x="273" y="627" on="0"/>
        <pt x="390" y="627" on="1"/>
        <pt x="438" y="627" on="0"/>
        <pt x="532" y="611" on="0"/>
        <pt x="560" y="597" on="1"/>
        <pt x="521" y="462" on="1"/>
        <pt x="480" y="462" on="1"/>
        <pt x="475" y="561" on="1"/>
      </contour>
      <contour>
        <pt x="180" y="-217" on="1"/>
        <pt x="216" y="-46" on="1"/>
        <pt x="296" y="-29" on="1"/>
        <pt x="313" y="-48" on="1"/>
        <pt x="210" y="-225" on="1"/>
      </contour>
    </TTGlyph>
    <TTGlyph name="Gdotaccent" xMin="35" yMin="-11" xMax="571" yMax="789">
      <component glyphName=".ttfautohint" x="35" y="0" flags="0x0"/>
      <component glyphName="G" x="0" y="0" flags="0x0"/>
      <component glyphName="uni0307" x="423" y="0" flags="0x0"/>
    </TTGlyph>
    <TTGlyph name="H" xMin="-12" yMin="0" xMax="704" yMax="612">
      <contour>
        <pt x="-6" y="37" on="1"/>
        <pt x="77" y="58" on="1"/>
        <pt x="174" y="555" on="1"/>
        <pt x="99" y="575" on="1"/>
        <pt x="105" y="612" on="1"/>
        <pt x="358" y="612" on="1"/>
        <pt x="352" y="575" on="1"/>
        <pt x="268" y="555" on="1"/>
        <pt x="225" y="332" on="1"/>
        <pt x="476" y="332" on="1"/>
        <pt x="519" y="555" on="1"/>
        <pt x="444" y="575" on="1"/>
        <pt x="451" y="612" on="1"/>
        <pt x="704" y="612" on="1"/>
        <pt x="697" y="575" on="1"/>
        <pt x="614" y="555" on="1"/>
        <pt x="518" y="58" on="1"/>
        <pt x="594" y="37" on="1"/>
        <pt x="587" y="0" on="1"/>
        <pt x="334" y="0" on="1"/>
        <pt x="340" y="37" on="1"/>
        <pt x="423" y="58" on="1"/>
        <pt x="466" y="278" on="1"/>
        <pt x="215" y="278" on="1"/>
        <pt x="172" y="58" on="1"/>
        <pt x="247" y="37" on="1"/>
        <pt x="240" y="0" on="1"/>
        <pt x="-12" y="0" on="1"/>
      </contour>
    </TTGlyph>
    <TTGlyph name="Hbar" xMin="-12" yMin="0" xMax="704" yMax="612">
      <contour>
        <pt x="614" y="555" on="1"/>
        <pt x="592" y="441" on="1"/>
        <pt x="668" y="441" on="1"/>
        <pt x="658" y="392" on="1"/>
        <pt x="583" y="392" on="1"/>
        <pt x="518" y="58" on="1"/>
        <pt x="594" y="37" on="1"/>
        <pt x="587" y="0" on="1"/>
        <pt x="334" y="0" on="1"/>
        <pt x="340" y="37" on="1"/>
        <pt x="423" y="58" on="1"/>
        <pt x="460" y="247" on="1"/>
        <pt x="209" y="247" on="1"/>
        <pt x="172" y="58" on="1"/>
        <pt x="247" y="37" on="1"/>
        <pt x="240" y="0" on="1"/>
        <pt x="-12" y="0" on="1"/>
        <pt x="-6" y="37" on="1"/>
        <pt x="77" y="58" on="1"/>
        <pt x="142" y="392" on="1"/>
        <pt x="66" y="392" on="1"/>
        <pt x="75" y="441" on="1"/>
        <pt x="152" y="441" on="1"/>
        <pt x="174" y="555" on="1"/>
        <pt x="99" y="575" on="1"/>
        <pt x="105" y="612" on="1"/>
        <pt x="358" y="612" on="1"/>
        <pt x="352" y="575" on="1"/>
        <pt x="268" y="555" on="1"/>
        <pt x="246" y="441" on="1"/>
        <pt x="497" y="441" on="1"/>
        <pt x="519" y="555" on="1"/>
        <pt x="444" y="575" on="1"/>
        <pt x="451" y="612" on="1"/>
        <pt x="704" y="612" on="1"/>
        <pt x="697" y="575" on="1"/>
      </contour>
      <contour>
        <pt x="488" y="392" on="1"/>
        <pt x="237" y="392" on="1"/>
        <pt x="219" y="301" on="1"/>
        <pt x="470" y="301" on="1"/>
      </contour>
    </TTGlyph>
    <TTGlyph name="Hcircumflex" xMin="-12" yMin="0" xMax="704" yMax="801">
      <component glyphName=".ttfautohint" x="0" y="0" flags="0x0"/>
      <component glyphName="H" x="0" y="0" flags="0x0"/>
      <component glyphName="uni0302" x="460" y="0" flags="0x0"/>
    </TTGlyph>
    <TTGlyph name="I" xMin="-12" yMin="0" xMax="368" yMax="612">
      <contour>
        <pt x="-5" y="37" on="1"/>
        <pt x="82" y="58" on="1"/>
        <pt x="178" y="555" on="1"/>
        <pt x="100" y="575" on="1"/>
        <pt x="106" y="612" on="1"/>
        <pt x="368" y="612" on="1"/>
        <pt x="361" y="575" on="1"/>
        <pt x="273" y="555" on="1"/>
        <pt x="177" y="58" on="1"/>
        <pt x="256" y="37" on="1"/>
        <pt x="249" y="0" on="1"/>
        <pt x="-12" y="0" on="1"/>
      </contour>
    </TTGlyph>
    <TTGlyph name="IJ" xMin="-12" yMin="-149" xMax="703" yMax="612">
      <component glyphName=".ttfautohint" x="0" y="0" flags="0x0"/>
      <component glyphName="I" x="0" y="0" flags="0x0"/>
      <component glyphName="J" x="336" y="0" flags="0x0"/>
    </TTGlyph>
    <TTGlyph name="Iacute" xMin="-7" yMin="0" xMax="381" yMax="800">
      <contour>
        <pt x="144" y="670" on="1"/>
        <pt x="299" y="800" on="1"/>
        <pt x="381" y="770" on="1"/>
        <pt x="381" y="751" on="1"/>
        <pt x="163" y="646" on="1"/>
      </contour>
      <contour>
        <pt x="-1" y="37" on="1"/>
        <pt x="86" y="58" on="1"/>
        <pt x="183" y="555" on="1"/>
        <pt x="104" y="575" on="1"/>
        <pt x="111" y="612" on="1"/>
        <pt x="372" y="612" on="1"/>
        <pt x="365" y="575" on="1"/>
        <pt x="278" y="555" on="1"/>
        <pt x="181" y="58" on="1"/>
        <pt x="260" y="37" on="1"/>
        <pt x="254" y="0" on="1"/>
        <pt x="-7" y="0" on="1"/>
      </contour>
    </TTGlyph>
    <TTGlyph name="Iacute_J.loclNLD" xMin="-12" yMin="-149" xMax="755" yMax="800">
      <component glyphName=".ttfautohint" x="0" y="0" flags="0x0"/>
      <component glyphName="I" x="0" y="0" flags="0x0"/>
      <component glyphName="acutecomb" x="347" y="0" flags="0x0"/>
      <component glyphName="J" x="336" y="0" flags="0x0"/>
      <component glyphName="acutecomb" x="674" y="0" flags="0x0"/>
    </TTGlyph>
    <TTGlyph name="Ibreve" xMin="-12" yMin="0" xMax="389" yMax="786">
      <component glyphName=".ttfautohint" x="0" y="0" flags="0x0"/>
      <component glyphName="I" x="0" y="0" flags="0x0"/>
      <component glyphName="uni0306" x="294" y="0" flags="0x0"/>
    </TTGlyph>
    <TTGlyph name="Icircumflex" xMin="-7" yMin="0" xMax="393" yMax="801">
      <contour>
        <pt x="110" y="669" on="1"/>
        <pt x="246" y="801" on="1"/>
        <pt x="313" y="801" on="1"/>
        <pt x="393" y="668" on="1"/>
        <pt x="366" y="647" on="1"/>
        <pt x="268" y="727" on="1"/>
        <pt x="131" y="647" on="1"/>
      </contour>
      <contour>
        <pt x="-1" y="37" on="1"/>
        <pt x="86" y="58" on="1"/>
        <pt x="183" y="555" on="1"/>
        <pt x="104" y="575" on="1"/>
        <pt x="111" y="612" on="1"/>
        <pt x="372" y="612" on="1"/>
        <pt x="365" y="575" on="1"/>
        <pt x="278" y="555" on="1"/>
        <pt x="181" y="58" on="1"/>
        <pt x="260" y="37" on="1"/>
        <pt x="254" y="0" on="1"/>
        <pt x="-7" y="0" on="1"/>
      </contour>
    </TTGlyph>
    <TTGlyph name="Idieresis" xMin="-7" yMin="0" xMax="424" yMax="786">
      <contour>
        <pt x="131" y="664" on="0"/>
        <pt x="93" y="699" on="0"/>
        <pt x="93" y="724" on="1"/>
        <pt x="93" y="750" on="0"/>
        <pt x="131" y="786" on="0"/>
        <pt x="157" y="786" on="1"/>
        <pt x="182" y="786" on="0"/>
        <pt x="219" y="750" on="0"/>
        <pt x="219" y="724" on="1"/>
        <pt x="219" y="699" on="0"/>
        <pt x="182" y="664" on="0"/>
        <pt x="157" y="664" on="1"/>
      </contour>
      <contour>
        <pt x="336" y="664" on="0"/>
        <pt x="299" y="699" on="0"/>
        <pt x="299" y="724" on="1"/>
        <pt x="299" y="750" on="0"/>
        <pt x="336" y="786" on="0"/>
        <pt x="362" y="786" on="1"/>
        <pt x="387" y="786" on="0"/>
        <pt x="424" y="750" on="0"/>
        <pt x="424" y="724" on="1"/>
        <pt x="424" y="699" on="0"/>
        <pt x="387" y="664" on="0"/>
        <pt x="362" y="664" on="1"/>
      </contour>
      <contour>
        <pt x="-1" y="37" on="1"/>
        <pt x="86" y="58" on="1"/>
        <pt x="183" y="555" on="1"/>
        <pt x="104" y="575" on="1"/>
        <pt x="111" y="612" on="1"/>
        <pt x="372" y="612" on="1"/>
        <pt x="365" y="575" on="1"/>
        <pt x="278" y="555" on="1"/>
        <pt x="181" y="58" on="1"/>
        <pt x="260" y="37" on="1"/>
        <pt x="254" y="0" on="1"/>
        <pt x="-7" y="0" on="1"/>
      </contour>
    </TTGlyph>
    <TTGlyph name="Idotaccent" xMin="-7" yMin="0" xMax="372" yMax="789">
      <contour>
        <pt x="233" y="658" on="0"/>
        <pt x="192" y="695" on="0"/>
        <pt x="192" y="722" on="1"/>
        <pt x="192" y="749" on="0"/>
        <pt x="233" y="789" on="0"/>
        <pt x="260" y="789" on="1"/>
        <pt x="287" y="789" on="0"/>
        <pt x="326" y="750" on="0"/>
        <pt x="326" y="722" on="1"/>
        <pt x="326" y="695" on="0"/>
        <pt x="287" y="658" on="0"/>
        <pt x="260" y="658" on="1"/>
      </contour>
      <contour>
        <pt x="-1" y="37" on="1"/>
        <pt x="86" y="58" on="1"/>
        <pt x="183" y="555" on="1"/>
        <pt x="104" y="575" on="1"/>
        <pt x="111" y="612" on="1"/>
        <pt x="372" y="612" on="1"/>
        <pt x="365" y="575" on="1"/>
        <pt x="278" y="555" on="1"/>
        <pt x="181" y="58" on="1"/>
        <pt x="260" y="37" on="1"/>
        <pt x="254" y="0" on="1"/>
        <pt x="-7" y="0" on="1"/>
      </contour>
    </TTGlyph>
    <TTGlyph name="Igrave" xMin="-7" yMin="0" xMax="372" yMax="800">
      <contour>
        <pt x="132" y="751" on="1"/>
        <pt x="133" y="770" on="1"/>
        <pt x="215" y="800" on="1"/>
        <pt x="369" y="670" on="1"/>
        <pt x="351" y="646" on="1"/>
      </contour>
      <contour>
        <pt x="-1" y="37" on="1"/>
        <pt x="86" y="58" on="1"/>
        <pt x="183" y="555" on="1"/>
        <pt x="104" y="575" on="1"/>
        <pt x="111" y="612" on="1"/>
        <pt x="372" y="612" on="1"/>
        <pt x="365" y="575" on="1"/>
        <pt x="278" y="555" on="1"/>
        <pt x="181" y="58" on="1"/>
        <pt x="260" y="37" on="1"/>
        <pt x="254" y="0" on="1"/>
        <pt x="-7" y="0" on="1"/>
      </contour>
    </TTGlyph>
    <TTGlyph name="Imacron" xMin="-7" yMin="0" xMax="383" yMax="752">
      <contour>
        <pt x="153" y="752" on="1"/>
        <pt x="383" y="752" on="1"/>
        <pt x="374" y="692" on="1"/>
        <pt x="145" y="692" on="1"/>
      </contour>
      <contour>
        <pt x="-1" y="37" on="1"/>
        <pt x="86" y="58" on="1"/>
        <pt x="183" y="555" on="1"/>
        <pt x="104" y="575" on="1"/>
        <pt x="111" y="612" on="1"/>
        <pt x="372" y="612" on="1"/>
        <pt x="365" y="575" on="1"/>
        <pt x="278" y="555" on="1"/>
        <pt x="181" y="58" on="1"/>
        <pt x="260" y="37" on="1"/>
        <pt x="254" y="0" on="1"/>
        <pt x="-7" y="0" on="1"/>
      </contour>
    </TTGlyph>
    <TTGlyph name="Iogonek" xMin="-7" yMin="-236" xMax="372" yMax="612">
      <contour>
        <pt x="101" y="-236" on="0"/>
        <pt x="59" y="-195" on="0"/>
        <pt x="59" y="-163" on="1"/>
        <pt x="59" y="-121" on="0"/>
        <pt x="123" y="-32" on="0"/>
        <pt x="181" y="0" on="1"/>
        <pt x="-7" y="0" on="1"/>
        <pt x="-1" y="37" on="1"/>
        <pt x="86" y="58" on="1"/>
        <pt x="183" y="555" on="1"/>
        <pt x="104" y="575" on="1"/>
        <pt x="111" y="612" on="1"/>
        <pt x="372" y="612" on="1"/>
        <pt x="365" y="575" on="1"/>
        <pt x="278" y="555" on="1"/>
        <pt x="181" y="58" on="1"/>
        <pt x="261" y="37" on="1"/>
        <pt x="254" y="0" on="1"/>
        <pt x="204" y="-18" on="0"/>
        <pt x="134" y="-100" on="0"/>
        <pt x="134" y="-141" on="1"/>
        <pt x="134" y="-163" on="0"/>
        <pt x="157" y="-187" on="0"/>
        <pt x="179" y="-187" on="1"/>
        <pt x="207" y="-187" on="0"/>
        <pt x="235" y="-165" on="1"/>
        <pt x="251" y="-183" on="1"/>
        <pt x="251" y="-185" on="0"/>
        <pt x="222" y="-212" on="0"/>
        <pt x="175" y="-236" on="0"/>
        <pt x="145" y="-236" on="1"/>
      </contour>
    </TTGlyph>
    <TTGlyph name="Itilde" xMin="-7" yMin="0" xMax="415" yMax="783">
      <contour>
        <pt x="317" y="666" on="0"/>
        <pt x="253" y="686" on="1"/>
        <pt x="198" y="705" on="0"/>
        <pt x="177" y="705" on="1"/>
        <pt x="167" y="705" on="0"/>
        <pt x="148" y="689" on="0"/>
        <pt x="136" y="673" on="0"/>
        <pt x="134" y="670" on="1"/>
        <pt x="99" y="684" on="1"/>
        <pt x="117" y="730" on="0"/>
        <pt x="155" y="783" on="0"/>
        <pt x="178" y="783" on="1"/>
        <pt x="199" y="783" on="0"/>
        <pt x="259" y="763" on="1"/>
        <pt x="282" y="755" on="0"/>
        <pt x="325" y="743" on="0"/>
        <pt x="337" y="743" on="1"/>
        <pt x="348" y="743" on="0"/>
        <pt x="367" y="758" on="0"/>
        <pt x="379" y="774" on="0"/>
        <pt x="380" y="777" on="1"/>
        <pt x="415" y="763" on="1"/>
        <pt x="396" y="717" on="0"/>
        <pt x="359" y="666" on="0"/>
        <pt x="336" y="666" on="1"/>
      </contour>
      <contour>
        <pt x="-1" y="37" on="1"/>
        <pt x="86" y="58" on="1"/>
        <pt x="183" y="555" on="1"/>
        <pt x="104" y="575" on="1"/>
        <pt x="111" y="612" on="1"/>
        <pt x="372" y="612" on="1"/>
        <pt x="365" y="575" on="1"/>
        <pt x="278" y="555" on="1"/>
        <pt x="181" y="58" on="1"/>
        <pt x="260" y="37" on="1"/>
        <pt x="254" y="0" on="1"/>
        <pt x="-7" y="0" on="1"/>
      </contour>
    </TTGlyph>
    <TTGlyph name="J" xMin="-87" yMin="-149" xMax="367" yMax="612">
      <contour>
        <pt x="-52" y="-149" on="0"/>
        <pt x="-87" y="-121" on="1"/>
        <pt x="-77" y="-90" on="1"/>
        <pt x="-11" y="-90" on="1"/>
        <pt x="31" y="-90" on="0"/>
        <pt x="72" y="-27" on="0"/>
        <pt x="83" y="33" on="1"/>
        <pt x="180" y="555" on="1"/>
        <pt x="101" y="575" on="1"/>
        <pt x="108" y="612" on="1"/>
        <pt x="367" y="612" on="1"/>
        <pt x="361" y="575" on="1"/>
        <pt x="274" y="555" on="1"/>
        <pt x="183" y="63" on="1"/>
        <pt x="162" y="-55" on="0"/>
        <pt x="74" y="-149" on="0"/>
        <pt x="4" y="-149" on="1"/>
      </contour>
    </TTGlyph>
    <TTGlyph name="Jcircumflex" xMin="-87" yMin="-149" xMax="378" yMax="801">
      <component glyphName=".ttfautohint" x="0" y="0" flags="0x0"/>
      <component glyphName="J" x="0" y="0" flags="0x0"/>
      <component glyphName="uni0302" x="283" y="0" flags="0x0"/>
    </TTGlyph>
    <TTGlyph name="K" xMin="-12" yMin="0" xMax="617" yMax="612">
      <contour>
        <pt x="364" y="0" on="1"/>
        <pt x="224" y="300" on="1"/>
        <pt x="177" y="58" on="1"/>
        <pt x="252" y="37" on="1"/>
        <pt x="245" y="0" on="1"/>
        <pt x="-12" y="0" on="1"/>
        <pt x="-5" y="37" on="1"/>
        <pt x="82" y="58" on="1"/>
        <pt x="178" y="555" on="1"/>
        <pt x="100" y="575" on="1"/>
        <pt x="106" y="612" on="1"/>
        <pt x="365" y="612" on="1"/>
        <pt x="358" y="575" on="1"/>
        <pt x="273" y="555" on="1"/>
        <pt x="229" y="331" on="1"/>
        <pt x="468" y="557" on="1"/>
        <pt x="412" y="575" on="1"/>
        <pt x="419" y="612" on="1"/>
        <pt x="617" y="612" on="1"/>
        <pt x="611" y="576" on="1"/>
        <pt x="540" y="555" on="1"/>
        <pt x="310" y="335" on="1"/>
        <pt x="446" y="58" on="1"/>
        <pt x="526" y="37" on="1"/>
        <pt x="520" y="0" on="1"/>
      </contour>
    </TTGlyph>
    <TTGlyph name="Kcommaaccent" xMin="-7" yMin="-225" xMax="622" yMax="612">
      <contour>
        <pt x="369" y="0" on="1"/>
        <pt x="228" y="300" on="1"/>
        <pt x="181" y="58" on="1"/>
        <pt x="256" y="37" on="1"/>
        <pt x="249" y="0" on="1"/>
        <pt x="-7" y="0" on="1"/>
        <pt x="0" y="37" on="1"/>
        <pt x="87" y="58" on="1"/>
        <pt x="183" y="555" on="1"/>
        <pt x="104" y="575" on="1"/>
        <pt x="111" y="612" on="1"/>
        <pt x="369" y="612" on="1"/>
        <pt x="363" y="575" on="1"/>
        <pt x="278" y="555" on="1"/>
        <pt x="234" y="331" on="1"/>
        <pt x="472" y="557" on="1"/>
        <pt x="417" y="575" on="1"/>
        <pt x="424" y="612" on="1"/>
        <pt x="622" y="612" on="1"/>
        <pt x="615" y="576" on="1"/>
        <pt x="545" y="555" on="1"/>
        <pt x="315" y="335" on="1"/>
        <pt x="451" y="58" on="1"/>
        <pt x="531" y="37" on="1"/>
        <pt x="525" y="0" on="1"/>
      </contour>
      <contour>
        <pt x="180" y="-217" on="1"/>
        <pt x="215" y="-46" on="1"/>
        <pt x="295" y="-29" on="1"/>
        <pt x="312" y="-48" on="1"/>
        <pt x="210" y="-225" on="1"/>
      </contour>
    </TTGlyph>
    <TTGlyph name="L" xMin="-12" yMin="0" xMax="430" yMax="612">
      <contour>
        <pt x="-12" y="0" on="1"/>
        <pt x="-5" y="37" on="1"/>
        <pt x="82" y="58" on="1"/>
        <pt x="178" y="555" on="1"/>
        <pt x="100" y="575" on="1"/>
        <pt x="106" y="612" on="1"/>
        <pt x="368" y="612" on="1"/>
        <pt x="361" y="575" on="1"/>
        <pt x="273" y="555" on="1"/>
        <pt x="177" y="60" on="1"/>
        <pt x="348" y="60" on="1"/>
        <pt x="389" y="151" on="1"/>
        <pt x="430" y="151" on="1"/>
        <pt x="402" y="0" on="1"/>
      </contour>
    </TTGlyph>
    <TTGlyph name="Lacute" xMin="-7" yMin="0" xMax="435" yMax="800">
      <contour>
        <pt x="151" y="670" on="1"/>
        <pt x="306" y="800" on="1"/>
        <pt x="389" y="770" on="1"/>
        <pt x="389" y="751" on="1"/>
        <pt x="170" y="646" on="1"/>
      </contour>
      <contour>
        <pt x="-7" y="0" on="1"/>
        <pt x="0" y="37" on="1"/>
        <pt x="87" y="58" on="1"/>
        <pt x="183" y="555" on="1"/>
        <pt x="104" y="575" on="1"/>
        <pt x="111" y="612" on="1"/>
        <pt x="372" y="612" on="1"/>
        <pt x="366" y="575" on="1"/>
        <pt x="278" y="555" on="1"/>
        <pt x="181" y="60" on="1"/>
        <pt x="353" y="60" on="1"/>
        <pt x="394" y="151" on="1"/>
        <pt x="435" y="151" on="1"/>
        <pt x="406" y="0" on="1"/>
      </contour>
    </TTGlyph>
    <TTGlyph name="Lcaron" xMin="-7" yMin="0" xMax="435" yMax="802">
      <contour>
        <pt x="262" y="723" on="1"/>
        <pt x="394" y="802" on="1"/>
        <pt x="414" y="780" on="1"/>
        <pt x="285" y="648" on="1"/>
        <pt x="218" y="648" on="1"/>
        <pt x="131" y="781" on="1"/>
        <pt x="159" y="801" on="1"/>
      </contour>
      <contour>
        <pt x="-7" y="0" on="1"/>
        <pt x="0" y="37" on="1"/>
        <pt x="87" y="58" on="1"/>
        <pt x="183" y="555" on="1"/>
        <pt x="104" y="575" on="1"/>
        <pt x="111" y="612" on="1"/>
        <pt x="372" y="612" on="1"/>
        <pt x="366" y="575" on="1"/>
        <pt x="278" y="555" on="1"/>
        <pt x="181" y="60" on="1"/>
        <pt x="353" y="60" on="1"/>
        <pt x="394" y="151" on="1"/>
        <pt x="435" y="151" on="1"/>
        <pt x="406" y="0" on="1"/>
      </contour>
    </TTGlyph>
    <TTGlyph name="Lcommaaccent" xMin="-7" yMin="-225" xMax="435" yMax="612">
      <contour>
        <pt x="-7" y="0" on="1"/>
        <pt x="0" y="37" on="1"/>
        <pt x="87" y="58" on="1"/>
        <pt x="183" y="555" on="1"/>
        <pt x="104" y="575" on="1"/>
        <pt x="111" y="612" on="1"/>
        <pt x="372" y="612" on="1"/>
        <pt x="366" y="575" on="1"/>
        <pt x="278" y="555" on="1"/>
        <pt x="181" y="60" on="1"/>
        <pt x="353" y="60" on="1"/>
        <pt x="394" y="151" on="1"/>
        <pt x="435" y="151" on="1"/>
        <pt x="406" y="0" on="1"/>
      </contour>
      <contour>
        <pt x="141" y="-217" on="1"/>
        <pt x="176" y="-46" on="1"/>
        <pt x="256" y="-29" on="1"/>
        <pt x="273" y="-48" on="1"/>
        <pt x="171" y="-225" on="1"/>
      </contour>
    </TTGlyph>
    <TTGlyph name="Ldot" xMin="-12" yMin="0" xMax="474" yMax="612">
      <component glyphName=".ttfautohint" x="0" y="0" flags="0x0"/>
      <component glyphName="L" x="0" y="0" flags="0x0"/>
      <component glyphName="periodcentered" x="288" y="175" flags="0x4"/>
    </TTGlyph>
    <TTGlyph name="Lslash" xMin="-7" yMin="0" xMax="435" yMax="612">
      <contour>
        <pt x="-7" y="0" on="1"/>
        <pt x="0" y="37" on="1"/>
        <pt x="87" y="58" on="1"/>
        <pt x="124" y="251" on="1"/>
        <pt x="49" y="215" on="1"/>
        <pt x="27" y="259" on="1"/>
        <pt x="136" y="313" on="1"/>
        <pt x="183" y="555" on="1"/>
        <pt x="104" y="575" on="1"/>
        <pt x="111" y="612" on="1"/>
        <pt x="372" y="612" on="1"/>
        <pt x="366" y="575" on="1"/>
        <pt x="278" y="555" on="1"/>
        <pt x="240" y="364" on="1"/>
        <pt x="328" y="407" on="1"/>
        <pt x="351" y="363" on="1"/>
        <pt x="229" y="302" on="1"/>
        <pt x="181" y="60" on="1"/>
        <pt x="353" y="60" on="1"/>
        <pt x="394" y="151" on="1"/>
        <pt x="435" y="151" on="1"/>
        <pt x="406" y="0" on="1"/>
      </contour>
    </TTGlyph>
    <TTGlyph name="M" xMin="-10" yMin="-10" xMax="814" yMax="612">
      <contour>
        <pt x="-10" y="0" on="1"/>
        <pt x="-3" y="37" on="1"/>
        <pt x="78" y="58" on="1"/>
        <pt x="192" y="555" on="1"/>
        <pt x="120" y="575" on="1"/>
        <pt x="127" y="612" on="1"/>
        <pt x="309" y="612" on="1"/>
        <pt x="373" y="131" on="1"/>
        <pt x="620" y="612" on="1"/>
        <pt x="814" y="612" on="1"/>
        <pt x="807" y="575" on="1"/>
        <pt x="719" y="555" on="1"/>
        <pt x="643" y="58" on="1"/>
        <pt x="722" y="37" on="1"/>
        <pt x="715" y="0" on="1"/>
        <pt x="454" y="0" on="1"/>
        <pt x="461" y="37" on="1"/>
        <pt x="548" y="58" on="1"/>
        <pt x="614" y="483" on="1"/>
        <pt x="361" y="1" on="1"/>
        <pt x="301" y="-10" on="1"/>
        <pt x="233" y="483" on="1"/>
        <pt x="135" y="58" on="1"/>
        <pt x="213" y="37" on="1"/>
        <pt x="206" y="0" on="1"/>
      </contour>
    </TTGlyph>
    <TTGlyph name="N" xMin="-14" yMin="-9" xMax="709" yMax="612">
      <contour>
        <pt x="709" y="612" on="1"/>
        <pt x="703" y="575" on="1"/>
        <pt x="620" y="555" on="1"/>
        <pt x="513" y="0" on="1"/>
        <pt x="450" y="-9" on="1"/>
        <pt x="214" y="473" on="1"/>
        <pt x="134" y="58" on="1"/>
        <pt x="210" y="37" on="1"/>
        <pt x="203" y="0" on="1"/>
        <pt x="-14" y="0" on="1"/>
        <pt x="-7" y="37" on="1"/>
        <pt x="74" y="58" on="1"/>
        <pt x="170" y="555" on="1"/>
        <pt x="98" y="575" on="1"/>
        <pt x="104" y="612" on="1"/>
        <pt x="250" y="612" on="1"/>
        <pt x="483" y="142" on="1"/>
        <pt x="562" y="555" on="1"/>
        <pt x="487" y="575" on="1"/>
        <pt x="493" y="612" on="1"/>
      </contour>
    </TTGlyph>
    <TTGlyph name="Nacute" xMin="-7" yMin="-9" xMax="716" yMax="800">
      <contour>
        <pt x="340" y="670" on="1"/>
        <pt x="495" y="800" on="1"/>
        <pt x="577" y="770" on="1"/>
        <pt x="577" y="751" on="1"/>
        <pt x="359" y="646" on="1"/>
      </contour>
      <contour>
        <pt x="716" y="612" on="1"/>
        <pt x="710" y="575" on="1"/>
        <pt x="627" y="555" on="1"/>
        <pt x="520" y="0" on="1"/>
        <pt x="457" y="-9" on="1"/>
        <pt x="221" y="473" on="1"/>
        <pt x="141" y="58" on="1"/>
        <pt x="217" y="37" on="1"/>
        <pt x="210" y="0" on="1"/>
        <pt x="-7" y="0" on="1"/>
        <pt x="0" y="37" on="1"/>
        <pt x="81" y="58" on="1"/>
        <pt x="177" y="555" on="1"/>
        <pt x="105" y="575" on="1"/>
        <pt x="111" y="612" on="1"/>
        <pt x="257" y="612" on="1"/>
        <pt x="490" y="142" on="1"/>
        <pt x="569" y="555" on="1"/>
        <pt x="494" y="575" on="1"/>
        <pt x="500" y="612" on="1"/>
      </contour>
    </TTGlyph>
    <TTGlyph name="Nacute.loclPLK" xMin="-14" yMin="-9" xMax="709" yMax="810">
      <component glyphName=".ttfautohint" x="0" y="0" flags="0x0"/>
      <component glyphName="N" x="0" y="0" flags="0x0"/>
      <component glyphName="acute.loclPLK.case" x="233" y="0" flags="0x0"/>
    </TTGlyph>
    <TTGlyph name="Ncaron" xMin="-7" yMin="-9" xMax="716" yMax="802">
      <contour>
        <pt x="424" y="723" on="1"/>
        <pt x="555" y="802" on="1"/>
        <pt x="576" y="780" on="1"/>
        <pt x="446" y="648" on="1"/>
        <pt x="379" y="648" on="1"/>
        <pt x="292" y="781" on="1"/>
        <pt x="320" y="801" on="1"/>
      </contour>
      <contour>
        <pt x="716" y="612" on="1"/>
        <pt x="710" y="575" on="1"/>
        <pt x="627" y="555" on="1"/>
        <pt x="520" y="0" on="1"/>
        <pt x="457" y="-9" on="1"/>
        <pt x="221" y="473" on="1"/>
        <pt x="141" y="58" on="1"/>
        <pt x="217" y="37" on="1"/>
        <pt x="210" y="0" on="1"/>
        <pt x="-7" y="0" on="1"/>
        <pt x="0" y="37" on="1"/>
        <pt x="81" y="58" on="1"/>
        <pt x="177" y="555" on="1"/>
        <pt x="105" y="575" on="1"/>
        <pt x="111" y="612" on="1"/>
        <pt x="257" y="612" on="1"/>
        <pt x="490" y="142" on="1"/>
        <pt x="569" y="555" on="1"/>
        <pt x="494" y="575" on="1"/>
        <pt x="500" y="612" on="1"/>
      </contour>
    </TTGlyph>
    <TTGlyph name="Ncommaaccent" xMin="-7" yMin="-225" xMax="716" yMax="612">
      <contour>
        <pt x="716" y="612" on="1"/>
        <pt x="710" y="575" on="1"/>
        <pt x="627" y="555" on="1"/>
        <pt x="520" y="0" on="1"/>
        <pt x="457" y="-9" on="1"/>
        <pt x="221" y="473" on="1"/>
        <pt x="141" y="58" on="1"/>
        <pt x="217" y="37" on="1"/>
        <pt x="210" y="0" on="1"/>
        <pt x="-7" y="0" on="1"/>
        <pt x="0" y="37" on="1"/>
        <pt x="81" y="58" on="1"/>
        <pt x="177" y="555" on="1"/>
        <pt x="105" y="575" on="1"/>
        <pt x="111" y="612" on="1"/>
        <pt x="257" y="612" on="1"/>
        <pt x="490" y="142" on="1"/>
        <pt x="569" y="555" on="1"/>
        <pt x="494" y="575" on="1"/>
        <pt x="500" y="612" on="1"/>
      </contour>
      <contour>
        <pt x="222" y="-217" on="1"/>
        <pt x="257" y="-46" on="1"/>
        <pt x="337" y="-29" on="1"/>
        <pt x="354" y="-48" on="1"/>
        <pt x="251" y="-225" on="1"/>
      </contour>
    </TTGlyph>
    <TTGlyph name="Ntilde" xMin="-7" yMin="-9" xMax="716" yMax="783">
      <contour>
        <pt x="576" y="717" on="0"/>
        <pt x="539" y="666" on="0"/>
        <pt x="517" y="666" on="1"/>
        <pt x="493" y="666" on="0"/>
        <pt x="432" y="687" on="1"/>
        <pt x="374" y="705" on="0"/>
        <pt x="358" y="705" on="1"/>
        <pt x="348" y="705" on="0"/>
        <pt x="328" y="689" on="0"/>
        <pt x="316" y="673" on="0"/>
        <pt x="314" y="670" on="1"/>
        <pt x="279" y="684" on="1"/>
        <pt x="297" y="730" on="0"/>
        <pt x="335" y="783" on="0"/>
        <pt x="358" y="783" on="1"/>
        <pt x="381" y="783" on="0"/>
        <pt x="440" y="762" on="1"/>
        <pt x="447" y="760" on="0"/>
        <pt x="502" y="743" on="0"/>
        <pt x="517" y="743" on="1"/>
        <pt x="528" y="743" on="0"/>
        <pt x="547" y="758" on="0"/>
        <pt x="559" y="774" on="0"/>
        <pt x="560" y="777" on="1"/>
        <pt x="595" y="763" on="1"/>
      </contour>
      <contour>
        <pt x="716" y="612" on="1"/>
        <pt x="710" y="575" on="1"/>
        <pt x="627" y="555" on="1"/>
        <pt x="520" y="0" on="1"/>
        <pt x="457" y="-9" on="1"/>
        <pt x="221" y="473" on="1"/>
        <pt x="141" y="58" on="1"/>
        <pt x="217" y="37" on="1"/>
        <pt x="210" y="0" on="1"/>
        <pt x="-7" y="0" on="1"/>
        <pt x="0" y="37" on="1"/>
        <pt x="81" y="58" on="1"/>
        <pt x="177" y="555" on="1"/>
        <pt x="105" y="575" on="1"/>
        <pt x="111" y="612" on="1"/>
        <pt x="257" y="612" on="1"/>
        <pt x="490" y="142" on="1"/>
        <pt x="569" y="555" on="1"/>
        <pt x="494" y="575" on="1"/>
        <pt x="500" y="612" on="1"/>
      </contour>
    </TTGlyph>
    <TTGlyph name="O" xMin="40" yMin="-9" xMax="607" yMax="627">
      <contour>
        <pt x="147" y="-9" on="0"/>
        <pt x="40" y="108" on="0"/>
        <pt x="40" y="213" on="1"/>
        <pt x="40" y="322" on="0"/>
        <pt x="122" y="511" on="0"/>
        <pt x="278" y="627" on="0"/>
        <pt x="386" y="627" on="1"/>
        <pt x="501" y="627" on="0"/>
        <pt x="607" y="510" on="0"/>
        <pt x="607" y="410" on="1"/>
        <pt x="607" y="300" on="0"/>
        <pt x="527" y="108" on="0"/>
        <pt x="371" y="-9" on="0"/>
        <pt x="263" y="-9" on="1"/>
      </contour>
      <contour>
        <pt x="353" y="45" on="0"/>
        <pt x="456" y="159" on="0"/>
        <pt x="502" y="325" on="0"/>
        <pt x="502" y="407" on="1"/>
        <pt x="502" y="486" on="0"/>
        <pt x="444" y="573" on="0"/>
        <pt x="374" y="573" on="1"/>
        <pt x="289" y="573" on="0"/>
        <pt x="187" y="443" on="0"/>
        <pt x="147" y="276" on="0"/>
        <pt x="147" y="213" on="1"/>
        <pt x="147" y="132" on="0"/>
        <pt x="204" y="45" on="0"/>
        <pt x="273" y="45" on="1"/>
      </contour>
    </TTGlyph>
    <TTGlyph name="OE" xMin="57" yMin="0" xMax="841" yMax="612">
      <contour>
        <pt x="170" y="0" on="0"/>
        <pt x="57" y="110" on="0"/>
        <pt x="57" y="213" on="1"/>
        <pt x="57" y="323" on="0"/>
        <pt x="147" y="505" on="0"/>
        <pt x="314" y="612" on="0"/>
        <pt x="426" y="612" on="1"/>
        <pt x="841" y="612" on="1"/>
        <pt x="816" y="476" on="1"/>
        <pt x="773" y="476" on="1"/>
        <pt x="772" y="555" on="1"/>
        <pt x="596" y="555" on="1"/>
        <pt x="551" y="327" on="1"/>
        <pt x="677" y="327" on="1"/>
        <pt x="708" y="393" on="1"/>
        <pt x="747" y="393" on="1"/>
        <pt x="712" y="209" on="1"/>
        <pt x="673" y="209" on="1"/>
        <pt x="665" y="278" on="1"/>
        <pt x="542" y="278" on="1"/>
        <pt x="499" y="60" on="1"/>
        <pt x="690" y="60" on="1"/>
        <pt x="732" y="151" on="1"/>
        <pt x="774" y="151" on="1"/>
        <pt x="745" y="0" on="1"/>
        <pt x="287" y="0" on="1"/>
      </contour>
      <contour>
        <pt x="356" y="52" on="0"/>
        <pt x="405" y="62" on="1"/>
        <pt x="499" y="550" on="1"/>
        <pt x="458" y="559" on="0"/>
        <pt x="404" y="559" on="1"/>
        <pt x="314" y="559" on="0"/>
        <pt x="205" y="437" on="0"/>
        <pt x="161" y="278" on="0"/>
        <pt x="161" y="217" on="1"/>
        <pt x="161" y="138" on="0"/>
        <pt x="235" y="52" on="0"/>
        <pt x="308" y="52" on="1"/>
      </contour>
    </TTGlyph>
    <TTGlyph name="Oacute" xMin="40" yMin="-9" xMax="607" yMax="800">
      <component glyphName=".ttfautohint" x="40" y="0" flags="0x0"/>
      <component glyphName="O" x="0" y="0" flags="0x0"/>
      <component glyphName="acute.case" x="235" y="0" flags="0x0"/>
    </TTGlyph>
    <TTGlyph name="Oacute.loclPLK" xMin="40" yMin="-9" xMax="607" yMax="810">
      <component glyphName=".ttfautohint" x="40" y="0" flags="0x0"/>
      <component glyphName="O" x="0" y="0" flags="0x0"/>
      <component glyphName="acute.loclPLK.case" x="208" y="0" flags="0x0"/>
    </TTGlyph>
    <TTGlyph name="Obreve" xMin="40" yMin="-9" xMax="607" yMax="786">
      <component glyphName=".ttfautohint" x="40" y="0" flags="0x0"/>
      <component glyphName="O" x="0" y="0" flags="0x0"/>
      <component glyphName="uni0306" x="437" y="0" flags="0x0"/>
    </TTGlyph>
    <TTGlyph name="Ocircumflex" xMin="40" yMin="-9" xMax="607" yMax="801">
      <contour>
        <pt x="246" y="669" on="1"/>
        <pt x="381" y="801" on="1"/>
        <pt x="449" y="801" on="1"/>
        <pt x="529" y="668" on="1"/>
        <pt x="501" y="647" on="1"/>
        <pt x="403" y="727" on="1"/>
        <pt x="267" y="647" on="1"/>
      </contour>
      <contour>
        <pt x="147" y="-9" on="0"/>
        <pt x="40" y="108" on="0"/>
        <pt x="40" y="213" on="1"/>
        <pt x="40" y="322" on="0"/>
        <pt x="122" y="511" on="0"/>
        <pt x="278" y="627" on="0"/>
        <pt x="386" y="627" on="1"/>
        <pt x="501" y="627" on="0"/>
        <pt x="607" y="510" on="0"/>
        <pt x="607" y="410" on="1"/>
        <pt x="607" y="300" on="0"/>
        <pt x="527" y="108" on="0"/>
        <pt x="371" y="-9" on="0"/>
        <pt x="263" y="-9" on="1"/>
      </contour>
      <contour>
        <pt x="353" y="45" on="0"/>
        <pt x="456" y="159" on="0"/>
        <pt x="502" y="325" on="0"/>
        <pt x="502" y="407" on="1"/>
        <pt x="502" y="486" on="0"/>
        <pt x="444" y="573" on="0"/>
        <pt x="374" y="573" on="1"/>
        <pt x="289" y="573" on="0"/>
        <pt x="187" y="443" on="0"/>
        <pt x="147" y="276" on="0"/>
        <pt x="147" y="213" on="1"/>
        <pt x="147" y="132" on="0"/>
        <pt x="204" y="45" on="0"/>
        <pt x="273" y="45" on="1"/>
      </contour>
    </TTGlyph>
    <TTGlyph name="Odieresis" xMin="40" yMin="-9" xMax="607" yMax="786">
      <contour>
        <pt x="276" y="664" on="0"/>
        <pt x="238" y="699" on="0"/>
        <pt x="238" y="724" on="1"/>
        <pt x="238" y="750" on="0"/>
        <pt x="276" y="786" on="0"/>
        <pt x="301" y="786" on="1"/>
        <pt x="326" y="786" on="0"/>
        <pt x="363" y="750" on="0"/>
        <pt x="363" y="724" on="1"/>
        <pt x="363" y="699" on="0"/>
        <pt x="326" y="664" on="0"/>
        <pt x="301" y="664" on="1"/>
      </contour>
      <contour>
        <pt x="481" y="664" on="0"/>
        <pt x="443" y="699" on="0"/>
        <pt x="443" y="724" on="1"/>
        <pt x="443" y="750" on="0"/>
        <pt x="481" y="786" on="0"/>
        <pt x="506" y="786" on="1"/>
        <pt x="531" y="786" on="0"/>
        <pt x="569" y="750" on="0"/>
        <pt x="569" y="724" on="1"/>
        <pt x="569" y="699" on="0"/>
        <pt x="531" y="664" on="0"/>
        <pt x="506" y="664" on="1"/>
      </contour>
      <contour>
        <pt x="147" y="-9" on="0"/>
        <pt x="40" y="108" on="0"/>
        <pt x="40" y="213" on="1"/>
        <pt x="40" y="322" on="0"/>
        <pt x="122" y="511" on="0"/>
        <pt x="278" y="627" on="0"/>
        <pt x="386" y="627" on="1"/>
        <pt x="501" y="627" on="0"/>
        <pt x="607" y="510" on="0"/>
        <pt x="607" y="410" on="1"/>
        <pt x="607" y="300" on="0"/>
        <pt x="527" y="108" on="0"/>
        <pt x="371" y="-9" on="0"/>
        <pt x="263" y="-9" on="1"/>
      </contour>
      <contour>
        <pt x="353" y="45" on="0"/>
        <pt x="456" y="159" on="0"/>
        <pt x="502" y="325" on="0"/>
        <pt x="502" y="407" on="1"/>
        <pt x="502" y="486" on="0"/>
        <pt x="444" y="573" on="0"/>
        <pt x="374" y="573" on="1"/>
        <pt x="289" y="573" on="0"/>
        <pt x="187" y="443" on="0"/>
        <pt x="147" y="276" on="0"/>
        <pt x="147" y="213" on="1"/>
        <pt x="147" y="132" on="0"/>
        <pt x="204" y="45" on="0"/>
        <pt x="273" y="45" on="1"/>
      </contour>
    </TTGlyph>
    <TTGlyph name="Ograve" xMin="40" yMin="-9" xMax="607" yMax="800">
      <contour>
        <pt x="266" y="751" on="1"/>
        <pt x="267" y="770" on="1"/>
        <pt x="349" y="800" on="1"/>
        <pt x="503" y="670" on="1"/>
        <pt x="485" y="646" on="1"/>
      </contour>
      <contour>
        <pt x="147" y="-9" on="0"/>
        <pt x="40" y="108" on="0"/>
        <pt x="40" y="213" on="1"/>
        <pt x="40" y="322" on="0"/>
        <pt x="122" y="511" on="0"/>
        <pt x="278" y="627" on="0"/>
        <pt x="386" y="627" on="1"/>
        <pt x="501" y="627" on="0"/>
        <pt x="607" y="510" on="0"/>
        <pt x="607" y="410" on="1"/>
        <pt x="607" y="300" on="0"/>
        <pt x="527" y="108" on="0"/>
        <pt x="371" y="-9" on="0"/>
        <pt x="263" y="-9" on="1"/>
      </contour>
      <contour>
        <pt x="353" y="45" on="0"/>
        <pt x="456" y="159" on="0"/>
        <pt x="502" y="325" on="0"/>
        <pt x="502" y="407" on="1"/>
        <pt x="502" y="486" on="0"/>
        <pt x="444" y="573" on="0"/>
        <pt x="374" y="573" on="1"/>
        <pt x="289" y="573" on="0"/>
        <pt x="187" y="443" on="0"/>
        <pt x="147" y="276" on="0"/>
        <pt x="147" y="213" on="1"/>
        <pt x="147" y="132" on="0"/>
        <pt x="204" y="45" on="0"/>
        <pt x="273" y="45" on="1"/>
      </contour>
    </TTGlyph>
    <TTGlyph name="Ohorn" xMin="40" yMin="-9" xMax="692" yMax="694">
      <contour>
        <pt x="692" y="600" on="0"/>
        <pt x="629" y="547" on="0"/>
        <pt x="579" y="535" on="1"/>
        <pt x="607" y="485" on="0"/>
        <pt x="607" y="410" on="1"/>
        <pt x="607" y="300" on="0"/>
        <pt x="527" y="108" on="0"/>
        <pt x="371" y="-9" on="0"/>
        <pt x="263" y="-9" on="1"/>
        <pt x="147" y="-9" on="0"/>
        <pt x="40" y="108" on="0"/>
        <pt x="40" y="213" on="1"/>
        <pt x="40" y="322" on="0"/>
        <pt x="122" y="511" on="0"/>
        <pt x="278" y="627" on="0"/>
        <pt x="386" y="627" on="1"/>
        <pt x="493" y="627" on="0"/>
        <pt x="549" y="573" on="1"/>
        <pt x="577" y="575" on="0"/>
        <pt x="605" y="598" on="0"/>
        <pt x="605" y="626" on="1"/>
        <pt x="605" y="645" on="0"/>
        <pt x="600" y="667" on="1"/>
        <pt x="606" y="680" on="1"/>
        <pt x="679" y="694" on="1"/>
        <pt x="685" y="681" on="0"/>
        <pt x="692" y="649" on="0"/>
        <pt x="692" y="637" on="1"/>
      </contour>
      <contour>
        <pt x="353" y="45" on="0"/>
        <pt x="456" y="159" on="0"/>
        <pt x="502" y="325" on="0"/>
        <pt x="502" y="407" on="1"/>
        <pt x="502" y="486" on="0"/>
        <pt x="444" y="573" on="0"/>
        <pt x="374" y="573" on="1"/>
        <pt x="289" y="573" on="0"/>
        <pt x="187" y="443" on="0"/>
        <pt x="147" y="276" on="0"/>
        <pt x="147" y="213" on="1"/>
        <pt x="147" y="132" on="0"/>
        <pt x="204" y="45" on="0"/>
        <pt x="273" y="45" on="1"/>
      </contour>
    </TTGlyph>
    <TTGlyph name="Ohungarumlaut" xMin="40" yMin="-9" xMax="607" yMax="810">
      <contour>
        <pt x="251" y="657" on="1"/>
        <pt x="338" y="810" on="1"/>
        <pt x="418" y="810" on="1"/>
        <pt x="418" y="791" on="1"/>
        <pt x="273" y="642" on="1"/>
      </contour>
      <contour>
        <pt x="411" y="657" on="1"/>
        <pt x="499" y="810" on="1"/>
        <pt x="579" y="810" on="1"/>
        <pt x="579" y="791" on="1"/>
        <pt x="434" y="642" on="1"/>
      </contour>
      <contour>
        <pt x="147" y="-9" on="0"/>
        <pt x="40" y="108" on="0"/>
        <pt x="40" y="213" on="1"/>
        <pt x="40" y="322" on="0"/>
        <pt x="122" y="511" on="0"/>
        <pt x="278" y="627" on="0"/>
        <pt x="386" y="627" on="1"/>
        <pt x="501" y="627" on="0"/>
        <pt x="607" y="510" on="0"/>
        <pt x="607" y="410" on="1"/>
        <pt x="607" y="300" on="0"/>
        <pt x="527" y="108" on="0"/>
        <pt x="371" y="-9" on="0"/>
        <pt x="263" y="-9" on="1"/>
      </contour>
      <contour>
        <pt x="353" y="45" on="0"/>
        <pt x="456" y="159" on="0"/>
        <pt x="502" y="325" on="0"/>
        <pt x="502" y="407" on="1"/>
        <pt x="502" y="486" on="0"/>
        <pt x="444" y="573" on="0"/>
        <pt x="374" y="573" on="1"/>
        <pt x="289" y="573" on="0"/>
        <pt x="187" y="443" on="0"/>
        <pt x="147" y="276" on="0"/>
        <pt x="147" y="213" on="1"/>
        <pt x="147" y="132" on="0"/>
        <pt x="204" y="45" on="0"/>
        <pt x="273" y="45" on="1"/>
      </contour>
    </TTGlyph>
    <TTGlyph name="Omacron" xMin="40" yMin="-9" xMax="607" yMax="747">
      <contour>
        <pt x="289" y="747" on="1"/>
        <pt x="533" y="747" on="1"/>
        <pt x="524" y="686" on="1"/>
        <pt x="280" y="686" on="1"/>
      </contour>
      <contour>
        <pt x="147" y="-9" on="0"/>
        <pt x="40" y="108" on="0"/>
        <pt x="40" y="213" on="1"/>
        <pt x="40" y="322" on="0"/>
        <pt x="122" y="511" on="0"/>
        <pt x="278" y="627" on="0"/>
        <pt x="386" y="627" on="1"/>
        <pt x="501" y="627" on="0"/>
        <pt x="607" y="510" on="0"/>
        <pt x="607" y="410" on="1"/>
        <pt x="607" y="300" on="0"/>
        <pt x="527" y="108" on="0"/>
        <pt x="371" y="-9" on="0"/>
        <pt x="263" y="-9" on="1"/>
      </contour>
      <contour>
        <pt x="353" y="45" on="0"/>
        <pt x="456" y="159" on="0"/>
        <pt x="502" y="325" on="0"/>
        <pt x="502" y="407" on="1"/>
        <pt x="502" y="486" on="0"/>
        <pt x="444" y="573" on="0"/>
        <pt x="374" y="573" on="1"/>
        <pt x="289" y="573" on="0"/>
        <pt x="187" y="443" on="0"/>
        <pt x="147" y="276" on="0"/>
        <pt x="147" y="213" on="1"/>
        <pt x="147" y="132" on="0"/>
        <pt x="204" y="45" on="0"/>
        <pt x="273" y="45" on="1"/>
      </contour>
    </TTGlyph>
    <TTGlyph name="Oslash" xMin="40" yMin="-95" xMax="607" yMax="708">
      <contour>
        <pt x="188" y="-1" on="1"/>
        <pt x="40" y="33" on="0"/>
        <pt x="40" y="213" on="1"/>
        <pt x="40" y="322" on="0"/>
        <pt x="122" y="511" on="0"/>
        <pt x="278" y="627" on="0"/>
        <pt x="386" y="627" on="1"/>
        <pt x="391" y="627" on="1"/>
        <pt x="418" y="708" on="1"/>
        <pt x="482" y="708" on="1"/>
        <pt x="453" y="620" on="1"/>
        <pt x="533" y="603" on="0"/>
        <pt x="607" y="493" on="0"/>
        <pt x="607" y="410" on="1"/>
        <pt x="607" y="300" on="0"/>
        <pt x="527" y="108" on="0"/>
        <pt x="371" y="-9" on="0"/>
        <pt x="263" y="-9" on="1"/>
        <pt x="249" y="-9" on="1"/>
        <pt x="222" y="-95" on="1"/>
        <pt x="158" y="-95" on="1"/>
      </contour>
      <contour>
        <pt x="374" y="573" on="1"/>
        <pt x="302" y="573" on="0"/>
        <pt x="199" y="465" on="0"/>
        <pt x="147" y="299" on="0"/>
        <pt x="147" y="213" on="1"/>
        <pt x="147" y="92" on="0"/>
        <pt x="208" y="59" on="1"/>
      </contour>
      <contour>
        <pt x="342" y="45" on="0"/>
        <pt x="449" y="146" on="0"/>
        <pt x="502" y="311" on="0"/>
        <pt x="502" y="407" on="1"/>
        <pt x="502" y="530" on="0"/>
        <pt x="433" y="560" on="1"/>
        <pt x="266" y="45" on="1"/>
      </contour>
    </TTGlyph>
    <TTGlyph name="Oslashacute" xMin="40" yMin="-95" xMax="607" yMax="800">
      <component glyphName=".ttfautohint" x="40" y="0" flags="0x0"/>
      <component glyphName="Oslash" x="0" y="0" flags="0x0"/>
      <component glyphName="acutecomb" x="410" y="0" flags="0x0"/>
    </TTGlyph>
    <TTGlyph name="Otilde" xMin="40" yMin="-9" xMax="607" yMax="783">
      <contour>
        <pt x="469" y="666" on="0"/>
        <pt x="405" y="686" on="1"/>
        <pt x="350" y="705" on="0"/>
        <pt x="329" y="705" on="1"/>
        <pt x="319" y="705" on="0"/>
        <pt x="300" y="689" on="0"/>
        <pt x="287" y="673" on="0"/>
        <pt x="286" y="670" on="1"/>
        <pt x="251" y="684" on="1"/>
        <pt x="288" y="783" on="0"/>
        <pt x="330" y="783" on="1"/>
        <pt x="351" y="783" on="0"/>
        <pt x="411" y="763" on="1"/>
        <pt x="434" y="755" on="0"/>
        <pt x="477" y="743" on="0"/>
        <pt x="489" y="743" on="1"/>
        <pt x="499" y="743" on="0"/>
        <pt x="518" y="758" on="0"/>
        <pt x="530" y="774" on="0"/>
        <pt x="531" y="777" on="1"/>
        <pt x="566" y="763" on="1"/>
        <pt x="547" y="716" on="0"/>
        <pt x="511" y="666" on="0"/>
        <pt x="488" y="666" on="1"/>
      </contour>
      <contour>
        <pt x="147" y="-9" on="0"/>
        <pt x="40" y="108" on="0"/>
        <pt x="40" y="213" on="1"/>
        <pt x="40" y="322" on="0"/>
        <pt x="122" y="511" on="0"/>
        <pt x="278" y="627" on="0"/>
        <pt x="386" y="627" on="1"/>
        <pt x="501" y="627" on="0"/>
        <pt x="607" y="510" on="0"/>
        <pt x="607" y="410" on="1"/>
        <pt x="607" y="300" on="0"/>
        <pt x="527" y="108" on="0"/>
        <pt x="371" y="-9" on="0"/>
        <pt x="263" y="-9" on="1"/>
      </contour>
      <contour>
        <pt x="353" y="45" on="0"/>
        <pt x="456" y="159" on="0"/>
        <pt x="502" y="325" on="0"/>
        <pt x="502" y="407" on="1"/>
        <pt x="502" y="486" on="0"/>
        <pt x="444" y="573" on="0"/>
        <pt x="374" y="573" on="1"/>
        <pt x="289" y="573" on="0"/>
        <pt x="187" y="443" on="0"/>
        <pt x="147" y="276" on="0"/>
        <pt x="147" y="213" on="1"/>
        <pt x="147" y="132" on="0"/>
        <pt x="204" y="45" on="0"/>
        <pt x="273" y="45" on="1"/>
      </contour>
    </TTGlyph>
    <TTGlyph name="P" xMin="-12" yMin="0" xMax="522" yMax="612">
      <contour>
        <pt x="427" y="612" on="0"/>
        <pt x="522" y="544" on="0"/>
        <pt x="522" y="477" on="1"/>
        <pt x="522" y="403" on="0"/>
        <pt x="450" y="299" on="0"/>
        <pt x="340" y="247" on="0"/>
        <pt x="283" y="247" on="1"/>
        <pt x="269" y="247" on="0"/>
        <pt x="230" y="252" on="0"/>
        <pt x="216" y="256" on="1"/>
        <pt x="177" y="58" on="1"/>
        <pt x="279" y="38" on="1"/>
        <pt x="272" y="0" on="1"/>
        <pt x="-12" y="0" on="1"/>
        <pt x="-5" y="37" on="1"/>
        <pt x="83" y="58" on="1"/>
        <pt x="178" y="552" on="1"/>
        <pt x="99" y="574" on="1"/>
        <pt x="106" y="612" on="1"/>
        <pt x="340" y="612" on="1"/>
      </contour>
      <contour>
        <pt x="239" y="290" on="0"/>
        <pt x="271" y="290" on="1"/>
        <pt x="308" y="290" on="0"/>
        <pt x="378" y="329" on="0"/>
        <pt x="422" y="412" on="0"/>
        <pt x="422" y="472" on="1"/>
        <pt x="422" y="518" on="0"/>
        <pt x="374" y="564" on="0"/>
        <pt x="330" y="564" on="1"/>
        <pt x="300" y="564" on="0"/>
        <pt x="274" y="555" on="1"/>
        <pt x="224" y="297" on="1"/>
      </contour>
    </TTGlyph>
    <TTGlyph name="Q" xMin="36" yMin="-153" xMax="602" yMax="627">
      <contour>
        <pt x="431" y="-153" on="0"/>
        <pt x="382" y="-134" on="0"/>
        <pt x="339" y="-106" on="1"/>
        <pt x="179" y="-2" on="1"/>
        <pt x="103" y="45" on="0"/>
        <pt x="36" y="145" on="0"/>
        <pt x="36" y="222" on="1"/>
        <pt x="36" y="328" on="0"/>
        <pt x="118" y="514" on="0"/>
        <pt x="275" y="627" on="0"/>
        <pt x="382" y="627" on="1"/>
        <pt x="498" y="627" on="0"/>
        <pt x="602" y="510" on="0"/>
        <pt x="602" y="409" on="1"/>
        <pt x="602" y="301" on="0"/>
        <pt x="522" y="115" on="0"/>
        <pt x="377" y="4" on="0"/>
        <pt x="285" y="4" on="1"/>
        <pt x="289" y="0" on="1"/>
        <pt x="354" y="-37" on="0"/>
        <pt x="477" y="-94" on="0"/>
        <pt x="494" y="-94" on="1"/>
        <pt x="567" y="-94" on="1"/>
        <pt x="564" y="-125" on="1"/>
        <pt x="542" y="-135" on="0"/>
        <pt x="480" y="-153" on="0"/>
        <pt x="457" y="-153" on="1"/>
      </contour>
      <contour>
        <pt x="351" y="47" on="0"/>
        <pt x="456" y="174" on="0"/>
        <pt x="499" y="341" on="0"/>
        <pt x="499" y="405" on="1"/>
        <pt x="499" y="573" on="0"/>
        <pt x="367" y="573" on="1"/>
        <pt x="292" y="573" on="0"/>
        <pt x="190" y="459" on="0"/>
        <pt x="141" y="295" on="0"/>
        <pt x="141" y="218" on="1"/>
        <pt x="141" y="144" on="0"/>
        <pt x="198" y="47" on="0"/>
        <pt x="265" y="47" on="1"/>
      </contour>
    </TTGlyph>
    <TTGlyph name="R" xMin="-12" yMin="0" xMax="522" yMax="612">
      <contour>
        <pt x="346" y="80" on="1"/>
        <pt x="321" y="185" on="0"/>
        <pt x="301" y="255" on="0"/>
        <pt x="278" y="276" on="0"/>
        <pt x="252" y="276" on="1"/>
        <pt x="221" y="276" on="1"/>
        <pt x="179" y="58" on="1"/>
        <pt x="256" y="37" on="1"/>
        <pt x="250" y="0" on="1"/>
        <pt x="-12" y="0" on="1"/>
        <pt x="-5" y="37" on="1"/>
        <pt x="84" y="58" on="1"/>
        <pt x="181" y="555" on="1"/>
        <pt x="100" y="575" on="1"/>
        <pt x="106" y="612" on="1"/>
        <pt x="348" y="612" on="1"/>
        <pt x="438" y="612" on="0"/>
        <pt x="522" y="545" on="0"/>
        <pt x="522" y="488" on="1"/>
        <pt x="522" y="425" on="0"/>
        <pt x="438" y="314" on="0"/>
        <pt x="355" y="294" on="1"/>
        <pt x="376" y="286" on="0"/>
        <pt x="398" y="260" on="0"/>
        <pt x="413" y="213" on="0"/>
        <pt x="428" y="150" on="1"/>
        <pt x="451" y="59" on="1"/>
        <pt x="520" y="37" on="1"/>
        <pt x="513" y="0" on="1"/>
        <pt x="365" y="0" on="1"/>
      </contour>
      <contour>
        <pt x="343" y="320" on="0"/>
        <pt x="423" y="412" on="0"/>
        <pt x="423" y="483" on="1"/>
        <pt x="423" y="525" on="0"/>
        <pt x="380" y="564" on="0"/>
        <pt x="331" y="564" on="1"/>
        <pt x="304" y="564" on="0"/>
        <pt x="275" y="556" on="1"/>
        <pt x="230" y="320" on="1"/>
        <pt x="281" y="320" on="1"/>
      </contour>
    </TTGlyph>
    <TTGlyph name="Racute" xMin="-6" yMin="0" xMax="528" yMax="800">
      <contour>
        <pt x="251" y="670" on="1"/>
        <pt x="405" y="800" on="1"/>
        <pt x="488" y="770" on="1"/>
        <pt x="488" y="751" on="1"/>
        <pt x="270" y="646" on="1"/>
      </contour>
      <contour>
        <pt x="353" y="71" on="1"/>
        <pt x="328" y="181" on="0"/>
        <pt x="307" y="254" on="0"/>
        <pt x="284" y="276" on="0"/>
        <pt x="258" y="276" on="1"/>
        <pt x="227" y="276" on="1"/>
        <pt x="185" y="58" on="1"/>
        <pt x="262" y="37" on="1"/>
        <pt x="255" y="0" on="1"/>
        <pt x="-6" y="0" on="1"/>
        <pt x="1" y="37" on="1"/>
        <pt x="90" y="58" on="1"/>
        <pt x="186" y="555" on="1"/>
        <pt x="105" y="575" on="1"/>
        <pt x="112" y="612" on="1"/>
        <pt x="354" y="612" on="1"/>
        <pt x="444" y="612" on="0"/>
        <pt x="528" y="544" on="0"/>
        <pt x="528" y="488" on="1"/>
        <pt x="528" y="425" on="0"/>
        <pt x="444" y="314" on="0"/>
        <pt x="361" y="294" on="1"/>
        <pt x="382" y="286" on="0"/>
        <pt x="404" y="260" on="0"/>
        <pt x="419" y="213" on="0"/>
        <pt x="434" y="150" on="1"/>
        <pt x="457" y="59" on="1"/>
        <pt x="525" y="37" on="1"/>
        <pt x="519" y="0" on="1"/>
        <pt x="370" y="0" on="1"/>
      </contour>
      <contour>
        <pt x="348" y="320" on="0"/>
        <pt x="428" y="412" on="0"/>
        <pt x="428" y="483" on="1"/>
        <pt x="428" y="526" on="0"/>
        <pt x="386" y="564" on="0"/>
        <pt x="336" y="564" on="1"/>
        <pt x="310" y="564" on="0"/>
        <pt x="281" y="556" on="1"/>
        <pt x="236" y="320" on="1"/>
        <pt x="286" y="320" on="1"/>
      </contour>
    </TTGlyph>
    <TTGlyph name="Rcaron" xMin="-6" yMin="0" xMax="528" yMax="802">
      <contour>
        <pt x="350" y="723" on="1"/>
        <pt x="481" y="802" on="1"/>
        <pt x="502" y="780" on="1"/>
        <pt x="372" y="648" on="1"/>
        <pt x="305" y="648" on="1"/>
        <pt x="218" y="781" on="1"/>
        <pt x="246" y="801" on="1"/>
      </contour>
      <contour>
        <pt x="353" y="71" on="1"/>
        <pt x="328" y="181" on="0"/>
        <pt x="307" y="254" on="0"/>
        <pt x="284" y="276" on="0"/>
        <pt x="258" y="276" on="1"/>
        <pt x="227" y="276" on="1"/>
        <pt x="185" y="58" on="1"/>
        <pt x="262" y="37" on="1"/>
        <pt x="255" y="0" on="1"/>
        <pt x="-6" y="0" on="1"/>
        <pt x="1" y="37" on="1"/>
        <pt x="90" y="58" on="1"/>
        <pt x="186" y="555" on="1"/>
        <pt x="105" y="575" on="1"/>
        <pt x="112" y="612" on="1"/>
        <pt x="354" y="612" on="1"/>
        <pt x="444" y="612" on="0"/>
        <pt x="528" y="544" on="0"/>
        <pt x="528" y="488" on="1"/>
        <pt x="528" y="425" on="0"/>
        <pt x="444" y="314" on="0"/>
        <pt x="361" y="294" on="1"/>
        <pt x="382" y="286" on="0"/>
        <pt x="404" y="260" on="0"/>
        <pt x="419" y="213" on="0"/>
        <pt x="434" y="150" on="1"/>
        <pt x="457" y="59" on="1"/>
        <pt x="525" y="37" on="1"/>
        <pt x="519" y="0" on="1"/>
        <pt x="370" y="0" on="1"/>
      </contour>
      <contour>
        <pt x="348" y="320" on="0"/>
        <pt x="428" y="412" on="0"/>
        <pt x="428" y="483" on="1"/>
        <pt x="428" y="526" on="0"/>
        <pt x="386" y="564" on="0"/>
        <pt x="336" y="564" on="1"/>
        <pt x="310" y="564" on="0"/>
        <pt x="281" y="556" on="1"/>
        <pt x="236" y="320" on="1"/>
        <pt x="286" y="320" on="1"/>
      </contour>
    </TTGlyph>
    <TTGlyph name="Rcommaaccent" xMin="-6" yMin="-225" xMax="528" yMax="612">
      <contour>
        <pt x="353" y="71" on="1"/>
        <pt x="328" y="181" on="0"/>
        <pt x="307" y="254" on="0"/>
        <pt x="284" y="276" on="0"/>
        <pt x="258" y="276" on="1"/>
        <pt x="227" y="276" on="1"/>
        <pt x="185" y="58" on="1"/>
        <pt x="262" y="37" on="1"/>
        <pt x="255" y="0" on="1"/>
        <pt x="-6" y="0" on="1"/>
        <pt x="1" y="37" on="1"/>
        <pt x="90" y="58" on="1"/>
        <pt x="186" y="555" on="1"/>
        <pt x="105" y="575" on="1"/>
        <pt x="112" y="612" on="1"/>
        <pt x="354" y="612" on="1"/>
        <pt x="444" y="612" on="0"/>
        <pt x="528" y="544" on="0"/>
        <pt x="528" y="488" on="1"/>
        <pt x="528" y="425" on="0"/>
        <pt x="444" y="314" on="0"/>
        <pt x="361" y="294" on="1"/>
        <pt x="382" y="286" on="0"/>
        <pt x="404" y="260" on="0"/>
        <pt x="419" y="213" on="0"/>
        <pt x="434" y="150" on="1"/>
        <pt x="457" y="59" on="1"/>
        <pt x="525" y="37" on="1"/>
        <pt x="519" y="0" on="1"/>
        <pt x="370" y="0" on="1"/>
      </contour>
      <contour>
        <pt x="348" y="320" on="0"/>
        <pt x="428" y="412" on="0"/>
        <pt x="428" y="483" on="1"/>
        <pt x="428" y="526" on="0"/>
        <pt x="386" y="564" on="0"/>
        <pt x="336" y="564" on="1"/>
        <pt x="310" y="564" on="0"/>
        <pt x="281" y="556" on="1"/>
        <pt x="236" y="320" on="1"/>
        <pt x="286" y="320" on="1"/>
      </contour>
      <contour>
        <pt x="184" y="-217" on="1"/>
        <pt x="220" y="-46" on="1"/>
        <pt x="300" y="-29" on="1"/>
        <pt x="317" y="-48" on="1"/>
        <pt x="214" y="-225" on="1"/>
      </contour>
    </TTGlyph>
    <TTGlyph name="S" xMin="-1" yMin="-11" xMax="470" yMax="627">
      <contour>
        <pt x="118" y="-11" on="0"/>
        <pt x="32" y="5" on="0"/>
        <pt x="-1" y="20" on="1"/>
        <pt x="33" y="145" on="1"/>
        <pt x="73" y="145" on="1"/>
        <pt x="78" y="59" on="1"/>
        <pt x="125" y="44" on="0"/>
        <pt x="174" y="44" on="1"/>
        <pt x="242" y="44" on="0"/>
        <pt x="317" y="112" on="0"/>
        <pt x="317" y="167" on="1"/>
        <pt x="317" y="198" on="0"/>
        <pt x="287" y="244" on="0"/>
        <pt x="252" y="259" on="1"/>
        <pt x="173" y="298" on="1"/>
        <pt x="142" y="311" on="0"/>
        <pt x="88" y="376" on="0"/>
        <pt x="88" y="426" on="1"/>
        <pt x="88" y="518" on="0"/>
        <pt x="206" y="627" on="0"/>
        <pt x="319" y="627" on="1"/>
        <pt x="393" y="627" on="0"/>
        <pt x="470" y="599" on="1"/>
        <pt x="436" y="466" on="1"/>
        <pt x="396" y="466" on="1"/>
        <pt x="391" y="560" on="1"/>
        <pt x="379" y="565" on="0"/>
        <pt x="333" y="572" on="0"/>
        <pt x="313" y="572" on="1"/>
        <pt x="252" y="572" on="0"/>
        <pt x="179" y="516" on="0"/>
        <pt x="179" y="461" on="1"/>
        <pt x="179" y="432" on="0"/>
        <pt x="211" y="394" on="0"/>
        <pt x="245" y="379" on="1"/>
        <pt x="321" y="341" on="1"/>
        <pt x="363" y="321" on="0"/>
        <pt x="411" y="252" on="0"/>
        <pt x="411" y="207" on="1"/>
        <pt x="411" y="108" on="0"/>
        <pt x="280" y="-11" on="0"/>
        <pt x="158" y="-11" on="1"/>
      </contour>
    </TTGlyph>
    <TTGlyph name="Sacute" xMin="-2" yMin="-11" xMax="469" yMax="800">
      <contour>
        <pt x="214" y="670" on="1"/>
        <pt x="369" y="800" on="1"/>
        <pt x="451" y="770" on="1"/>
        <pt x="451" y="751" on="1"/>
        <pt x="233" y="646" on="1"/>
      </contour>
      <contour>
        <pt x="117" y="-11" on="0"/>
        <pt x="31" y="5" on="0"/>
        <pt x="-2" y="20" on="1"/>
        <pt x="32" y="145" on="1"/>
        <pt x="72" y="145" on="1"/>
        <pt x="77" y="59" on="1"/>
        <pt x="124" y="44" on="0"/>
        <pt x="173" y="44" on="1"/>
        <pt x="241" y="44" on="0"/>
        <pt x="316" y="112" on="0"/>
        <pt x="316" y="167" on="1"/>
        <pt x="316" y="232" on="0"/>
        <pt x="252" y="259" on="1"/>
        <pt x="172" y="298" on="1"/>
        <pt x="141" y="311" on="0"/>
        <pt x="87" y="376" on="0"/>
        <pt x="87" y="426" on="1"/>
        <pt x="87" y="518" on="0"/>
        <pt x="205" y="627" on="0"/>
        <pt x="318" y="627" on="1"/>
        <pt x="393" y="627" on="0"/>
        <pt x="469" y="599" on="1"/>
        <pt x="436" y="466" on="1"/>
        <pt x="396" y="466" on="1"/>
        <pt x="390" y="560" on="1"/>
        <pt x="377" y="565" on="0"/>
        <pt x="333" y="572" on="0"/>
        <pt x="313" y="572" on="1"/>
        <pt x="251" y="572" on="0"/>
        <pt x="179" y="516" on="0"/>
        <pt x="179" y="461" on="1"/>
        <pt x="179" y="431" on="0"/>
        <pt x="211" y="394" on="0"/>
        <pt x="245" y="379" on="1"/>
        <pt x="320" y="341" on="1"/>
        <pt x="362" y="321" on="0"/>
        <pt x="410" y="252" on="0"/>
        <pt x="410" y="207" on="1"/>
        <pt x="410" y="108" on="0"/>
        <pt x="279" y="-11" on="0"/>
        <pt x="157" y="-11" on="1"/>
      </contour>
    </TTGlyph>
    <TTGlyph name="Sacute.loclPLK" xMin="-1" yMin="-11" xMax="470" yMax="810">
      <component glyphName=".ttfautohint" x="0" y="0" flags="0x0"/>
      <component glyphName="S" x="0" y="0" flags="0x0"/>
      <component glyphName="acute.loclPLK.case" x="133" y="0" flags="0x0"/>
    </TTGlyph>
    <TTGlyph name="Scaron" xMin="-2" yMin="-11" xMax="471" yMax="802">
      <contour>
        <pt x="319" y="723" on="1"/>
        <pt x="450" y="802" on="1"/>
        <pt x="471" y="780" on="1"/>
        <pt x="342" y="648" on="1"/>
        <pt x="274" y="648" on="1"/>
        <pt x="188" y="781" on="1"/>
        <pt x="215" y="801" on="1"/>
      </contour>
      <contour>
        <pt x="117" y="-11" on="0"/>
        <pt x="31" y="5" on="0"/>
        <pt x="-2" y="20" on="1"/>
        <pt x="32" y="145" on="1"/>
        <pt x="72" y="145" on="1"/>
        <pt x="77" y="59" on="1"/>
        <pt x="124" y="44" on="0"/>
        <pt x="173" y="44" on="1"/>
        <pt x="241" y="44" on="0"/>
        <pt x="316" y="112" on="0"/>
        <pt x="316" y="167" on="1"/>
        <pt x="316" y="232" on="0"/>
        <pt x="252" y="259" on="1"/>
        <pt x="172" y="298" on="1"/>
        <pt x="141" y="311" on="0"/>
        <pt x="87" y="376" on="0"/>
        <pt x="87" y="426" on="1"/>
        <pt x="87" y="518" on="0"/>
        <pt x="205" y="627" on="0"/>
        <pt x="318" y="627" on="1"/>
        <pt x="393" y="627" on="0"/>
        <pt x="469" y="599" on="1"/>
        <pt x="436" y="466" on="1"/>
        <pt x="396" y="466" on="1"/>
        <pt x="390" y="560" on="1"/>
        <pt x="377" y="565" on="0"/>
        <pt x="333" y="572" on="0"/>
        <pt x="313" y="572" on="1"/>
        <pt x="251" y="572" on="0"/>
        <pt x="179" y="516" on="0"/>
        <pt x="179" y="461" on="1"/>
        <pt x="179" y="431" on="0"/>
        <pt x="211" y="394" on="0"/>
        <pt x="245" y="379" on="1"/>
        <pt x="320" y="341" on="1"/>
        <pt x="362" y="321" on="0"/>
        <pt x="410" y="252" on="0"/>
        <pt x="410" y="207" on="1"/>
        <pt x="410" y="108" on="0"/>
        <pt x="279" y="-11" on="0"/>
        <pt x="157" y="-11" on="1"/>
      </contour>
    </TTGlyph>
    <TTGlyph name="Scedilla" xMin="-3" yMin="-219" xMax="468" yMax="627">
      <contour>
        <pt x="409" y="112" on="0"/>
        <pt x="289" y="-5" on="0"/>
        <pt x="177" y="-10" on="1"/>
        <pt x="159" y="-45" on="1"/>
        <pt x="205" y="-45" on="0"/>
        <pt x="250" y="-78" on="0"/>
        <pt x="250" y="-104" on="1"/>
        <pt x="250" y="-136" on="0"/>
        <pt x="207" y="-189" on="0"/>
        <pt x="140" y="-219" on="0"/>
        <pt x="105" y="-219" on="1"/>
        <pt x="67" y="-219" on="0"/>
        <pt x="43" y="-210" on="1"/>
        <pt x="58" y="-180" on="1"/>
        <pt x="75" y="-187" on="0"/>
        <pt x="95" y="-187" on="1"/>
        <pt x="128" y="-187" on="0"/>
        <pt x="175" y="-148" on="0"/>
        <pt x="175" y="-120" on="1"/>
        <pt x="175" y="-103" on="0"/>
        <pt x="146" y="-80" on="0"/>
        <pt x="113" y="-80" on="1"/>
        <pt x="111" y="-68" on="1"/>
        <pt x="141" y="-10" on="1"/>
        <pt x="54" y="-6" on="0"/>
        <pt x="-3" y="20" on="1"/>
        <pt x="31" y="145" on="1"/>
        <pt x="71" y="145" on="1"/>
        <pt x="76" y="59" on="1"/>
        <pt x="124" y="44" on="0"/>
        <pt x="172" y="44" on="1"/>
        <pt x="240" y="44" on="0"/>
        <pt x="315" y="112" on="0"/>
        <pt x="315" y="167" on="1"/>
        <pt x="315" y="198" on="0"/>
        <pt x="285" y="244" on="0"/>
        <pt x="250" y="259" on="1"/>
        <pt x="171" y="298" on="1"/>
        <pt x="140" y="311" on="0"/>
        <pt x="86" y="376" on="0"/>
        <pt x="86" y="426" on="1"/>
        <pt x="86" y="518" on="0"/>
        <pt x="204" y="627" on="0"/>
        <pt x="317" y="627" on="1"/>
        <pt x="391" y="627" on="0"/>
        <pt x="468" y="599" on="1"/>
        <pt x="434" y="466" on="1"/>
        <pt x="394" y="466" on="1"/>
        <pt x="389" y="560" on="1"/>
        <pt x="376" y="565" on="0"/>
        <pt x="332" y="572" on="0"/>
        <pt x="311" y="572" on="1"/>
        <pt x="250" y="572" on="0"/>
        <pt x="178" y="516" on="0"/>
        <pt x="178" y="461" on="1"/>
        <pt x="178" y="432" on="0"/>
        <pt x="210" y="394" on="0"/>
        <pt x="243" y="379" on="1"/>
        <pt x="319" y="341" on="1"/>
        <pt x="361" y="321" on="0"/>
        <pt x="409" y="252" on="0"/>
        <pt x="409" y="207" on="1"/>
      </contour>
    </TTGlyph>
    <TTGlyph name="Scircumflex" xMin="-1" yMin="-11" xMax="470" yMax="801">
      <component glyphName=".ttfautohint" x="0" y="0" flags="0x0"/>
      <component glyphName="S" x="0" y="0" flags="0x0"/>
      <component glyphName="uni0302" x="360" y="0" flags="0x0"/>
    </TTGlyph>
    <TTGlyph name="Scommaaccent" xMin="-3" yMin="-225" xMax="468" yMax="627">
      <contour>
        <pt x="116" y="-11" on="0"/>
        <pt x="30" y="5" on="0"/>
        <pt x="-3" y="20" on="1"/>
        <pt x="31" y="145" on="1"/>
        <pt x="71" y="145" on="1"/>
        <pt x="76" y="59" on="1"/>
        <pt x="124" y="44" on="0"/>
        <pt x="172" y="44" on="1"/>
        <pt x="240" y="44" on="0"/>
        <pt x="315" y="112" on="0"/>
        <pt x="315" y="167" on="1"/>
        <pt x="315" y="198" on="0"/>
        <pt x="285" y="244" on="0"/>
        <pt x="250" y="259" on="1"/>
        <pt x="171" y="298" on="1"/>
        <pt x="140" y="311" on="0"/>
        <pt x="86" y="376" on="0"/>
        <pt x="86" y="426" on="1"/>
        <pt x="86" y="518" on="0"/>
        <pt x="204" y="627" on="0"/>
        <pt x="317" y="627" on="1"/>
        <pt x="391" y="627" on="0"/>
        <pt x="468" y="599" on="1"/>
        <pt x="434" y="466" on="1"/>
        <pt x="394" y="466" on="1"/>
        <pt x="389" y="560" on="1"/>
        <pt x="376" y="565" on="0"/>
        <pt x="332" y="572" on="0"/>
        <pt x="311" y="572" on="1"/>
        <pt x="250" y="572" on="0"/>
        <pt x="178" y="516" on="0"/>
        <pt x="178" y="461" on="1"/>
        <pt x="178" y="432" on="0"/>
        <pt x="210" y="394" on="0"/>
        <pt x="243" y="379" on="1"/>
        <pt x="319" y="341" on="1"/>
        <pt x="361" y="321" on="0"/>
        <pt x="409" y="252" on="0"/>
        <pt x="409" y="207" on="1"/>
        <pt x="409" y="108" on="0"/>
        <pt x="278" y="-11" on="0"/>
        <pt x="156" y="-11" on="1"/>
      </contour>
      <contour>
        <pt x="89" y="-217" on="1"/>
        <pt x="124" y="-46" on="1"/>
        <pt x="204" y="-29" on="1"/>
        <pt x="221" y="-48" on="1"/>
        <pt x="118" y="-225" on="1"/>
      </contour>
    </TTGlyph>
    <TTGlyph name="T" xMin="53" yMin="0" xMax="551" yMax="612">
      <contour>
        <pt x="551" y="612" on="1"/>
        <pt x="517" y="466" on="1"/>
        <pt x="475" y="466" on="1"/>
        <pt x="475" y="555" on="1"/>
        <pt x="350" y="555" on="1"/>
        <pt x="254" y="58" on="1"/>
        <pt x="344" y="37" on="1"/>
        <pt x="337" y="0" on="1"/>
        <pt x="53" y="0" on="1"/>
        <pt x="60" y="37" on="1"/>
        <pt x="159" y="58" on="1"/>
        <pt x="255" y="555" on="1"/>
        <pt x="130" y="555" on="1"/>
        <pt x="94" y="466" on="1"/>
        <pt x="55" y="466" on="1"/>
        <pt x="76" y="612" on="1"/>
      </contour>
    </TTGlyph>
    <TTGlyph name="Tbar" xMin="44" yMin="0" xMax="551" yMax="612">
      <contour>
        <pt x="475" y="466" on="1"/>
        <pt x="475" y="555" on="1"/>
        <pt x="350" y="555" on="1"/>
        <pt x="308" y="335" on="1"/>
        <pt x="483" y="335" on="1"/>
        <pt x="474" y="287" on="1"/>
        <pt x="298" y="287" on="1"/>
        <pt x="254" y="58" on="1"/>
        <pt x="344" y="37" on="1"/>
        <pt x="337" y="0" on="1"/>
        <pt x="53" y="0" on="1"/>
        <pt x="60" y="37" on="1"/>
        <pt x="159" y="58" on="1"/>
        <pt x="203" y="287" on="1"/>
        <pt x="44" y="287" on="1"/>
        <pt x="53" y="335" on="1"/>
        <pt x="213" y="335" on="1"/>
        <pt x="255" y="555" on="1"/>
        <pt x="130" y="555" on="1"/>
        <pt x="94" y="466" on="1"/>
        <pt x="55" y="466" on="1"/>
        <pt x="76" y="612" on="1"/>
        <pt x="551" y="612" on="1"/>
        <pt x="517" y="466" on="1"/>
      </contour>
    </TTGlyph>
    <TTGlyph name="Tcaron" xMin="63" yMin="0" xMax="561" yMax="802">
      <contour>
        <pt x="338" y="723" on="1"/>
        <pt x="469" y="802" on="1"/>
        <pt x="490" y="780" on="1"/>
        <pt x="361" y="648" on="1"/>
        <pt x="293" y="648" on="1"/>
        <pt x="206" y="781" on="1"/>
        <pt x="234" y="801" on="1"/>
      </contour>
      <contour>
        <pt x="561" y="612" on="1"/>
        <pt x="527" y="466" on="1"/>
        <pt x="485" y="466" on="1"/>
        <pt x="485" y="555" on="1"/>
        <pt x="360" y="555" on="1"/>
        <pt x="264" y="58" on="1"/>
        <pt x="354" y="37" on="1"/>
        <pt x="347" y="0" on="1"/>
        <pt x="63" y="0" on="1"/>
        <pt x="70" y="37" on="1"/>
        <pt x="169" y="58" on="1"/>
        <pt x="265" y="555" on="1"/>
        <pt x="140" y="555" on="1"/>
        <pt x="104" y="466" on="1"/>
        <pt x="65" y="466" on="1"/>
        <pt x="85" y="612" on="1"/>
      </contour>
    </TTGlyph>
    <TTGlyph name="Thorn" xMin="-12" yMin="0" xMax="475" yMax="612">
      <contour>
        <pt x="-5" y="37" on="1"/>
        <pt x="82" y="58" on="1"/>
        <pt x="178" y="555" on="1"/>
        <pt x="100" y="575" on="1"/>
        <pt x="106" y="612" on="1"/>
        <pt x="368" y="612" on="1"/>
        <pt x="361" y="575" on="1"/>
        <pt x="273" y="555" on="1"/>
        <pt x="258" y="477" on="1"/>
        <pt x="307" y="477" on="1"/>
        <pt x="475" y="477" on="0"/>
        <pt x="475" y="352" on="1"/>
        <pt x="475" y="283" on="0"/>
        <pt x="407" y="186" on="0"/>
        <pt x="302" y="138" on="0"/>
        <pt x="249" y="138" on="1"/>
        <pt x="218" y="138" on="0"/>
        <pt x="193" y="142" on="1"/>
        <pt x="177" y="58" on="1"/>
        <pt x="256" y="37" on="1"/>
        <pt x="249" y="0" on="1"/>
        <pt x="-12" y="0" on="1"/>
      </contour>
      <contour>
        <pt x="298" y="180" on="0"/>
        <pt x="378" y="260" on="0"/>
        <pt x="378" y="344" on="1"/>
        <pt x="378" y="431" on="0"/>
        <pt x="292" y="431" on="1"/>
        <pt x="265" y="431" on="0"/>
        <pt x="249" y="426" on="1"/>
        <pt x="201" y="183" on="1"/>
        <pt x="214" y="180" on="0"/>
        <pt x="238" y="180" on="1"/>
      </contour>
    </TTGlyph>
    <TTGlyph name="U" xMin="71" yMin="-10" xMax="665" yMax="612">
      <contour>
        <pt x="497" y="139" on="0"/>
        <pt x="384" y="-10" on="0"/>
        <pt x="258" y="-10" on="1"/>
        <pt x="160" y="-10" on="0"/>
        <pt x="76" y="77" on="0"/>
        <pt x="76" y="154" on="1"/>
        <pt x="76" y="202" on="0"/>
        <pt x="89" y="264" on="1"/>
        <pt x="145" y="555" on="1"/>
        <pt x="71" y="575" on="1"/>
        <pt x="77" y="612" on="1"/>
        <pt x="330" y="612" on="1"/>
        <pt x="324" y="575" on="1"/>
        <pt x="241" y="555" on="1"/>
        <pt x="185" y="264" on="1"/>
        <pt x="172" y="202" on="0"/>
        <pt x="172" y="159" on="1"/>
        <pt x="172" y="105" on="0"/>
        <pt x="220" y="45" on="0"/>
        <pt x="277" y="45" on="1"/>
        <pt x="355" y="45" on="0"/>
        <pt x="438" y="149" on="0"/>
        <pt x="455" y="239" on="1"/>
        <pt x="516" y="555" on="1"/>
        <pt x="440" y="575" on="1"/>
        <pt x="446" y="612" on="1"/>
        <pt x="665" y="612" on="1"/>
        <pt x="658" y="575" on="1"/>
        <pt x="578" y="555" on="1"/>
        <pt x="516" y="236" on="1"/>
      </contour>
    </TTGlyph>
    <TTGlyph name="Uacute" xMin="87" yMin="-10" xMax="682" yMax="800">
      <contour>
        <pt x="315" y="670" on="1"/>
        <pt x="469" y="800" on="1"/>
        <pt x="552" y="770" on="1"/>
        <pt x="552" y="751" on="1"/>
        <pt x="334" y="646" on="1"/>
      </contour>
      <contour>
        <pt x="513" y="139" on="0"/>
        <pt x="401" y="-10" on="0"/>
        <pt x="275" y="-10" on="1"/>
        <pt x="177" y="-10" on="0"/>
        <pt x="92" y="77" on="0"/>
        <pt x="92" y="154" on="1"/>
        <pt x="92" y="202" on="0"/>
        <pt x="105" y="264" on="1"/>
        <pt x="162" y="555" on="1"/>
        <pt x="87" y="575" on="1"/>
        <pt x="93" y="612" on="1"/>
        <pt x="347" y="612" on="1"/>
        <pt x="341" y="575" on="1"/>
        <pt x="257" y="555" on="1"/>
        <pt x="201" y="264" on="1"/>
        <pt x="188" y="193" on="0"/>
        <pt x="188" y="159" on="1"/>
        <pt x="188" y="105" on="0"/>
        <pt x="236" y="45" on="0"/>
        <pt x="293" y="45" on="1"/>
        <pt x="371" y="45" on="0"/>
        <pt x="454" y="149" on="0"/>
        <pt x="472" y="239" on="1"/>
        <pt x="533" y="555" on="1"/>
        <pt x="456" y="575" on="1"/>
        <pt x="463" y="612" on="1"/>
        <pt x="682" y="612" on="1"/>
        <pt x="675" y="575" on="1"/>
        <pt x="594" y="555" on="1"/>
        <pt x="532" y="236" on="1"/>
      </contour>
    </TTGlyph>
    <TTGlyph name="Ubreve" xMin="71" yMin="-10" xMax="665" yMax="786">
      <component glyphName=".ttfautohint" x="71" y="0" flags="0x0"/>
      <component glyphName="U" x="0" y="0" flags="0x0"/>
      <component glyphName="uni0306" x="430" y="0" flags="0x0"/>
    </TTGlyph>
    <TTGlyph name="Ucircumflex" xMin="87" yMin="-10" xMax="682" yMax="801">
      <contour>
        <pt x="418" y="727" on="1"/>
        <pt x="281" y="647" on="1"/>
        <pt x="260" y="669" on="1"/>
        <pt x="396" y="801" on="1"/>
        <pt x="463" y="801" on="1"/>
        <pt x="543" y="668" on="1"/>
        <pt x="516" y="647" on="1"/>
      </contour>
      <contour>
        <pt x="513" y="139" on="0"/>
        <pt x="401" y="-10" on="0"/>
        <pt x="275" y="-10" on="1"/>
        <pt x="177" y="-10" on="0"/>
        <pt x="92" y="77" on="0"/>
        <pt x="92" y="154" on="1"/>
        <pt x="92" y="202" on="0"/>
        <pt x="105" y="264" on="1"/>
        <pt x="162" y="555" on="1"/>
        <pt x="87" y="575" on="1"/>
        <pt x="93" y="612" on="1"/>
        <pt x="347" y="612" on="1"/>
        <pt x="341" y="575" on="1"/>
        <pt x="257" y="555" on="1"/>
        <pt x="201" y="264" on="1"/>
        <pt x="188" y="193" on="0"/>
        <pt x="188" y="159" on="1"/>
        <pt x="188" y="105" on="0"/>
        <pt x="236" y="45" on="0"/>
        <pt x="293" y="45" on="1"/>
        <pt x="371" y="45" on="0"/>
        <pt x="454" y="149" on="0"/>
        <pt x="472" y="239" on="1"/>
        <pt x="533" y="555" on="1"/>
        <pt x="456" y="575" on="1"/>
        <pt x="463" y="612" on="1"/>
        <pt x="682" y="612" on="1"/>
        <pt x="675" y="575" on="1"/>
        <pt x="594" y="555" on="1"/>
        <pt x="532" y="236" on="1"/>
      </contour>
    </TTGlyph>
    <TTGlyph name="Udieresis" xMin="87" yMin="-10" xMax="682" yMax="786">
      <contour>
        <pt x="378" y="699" on="0"/>
        <pt x="341" y="664" on="0"/>
        <pt x="316" y="664" on="1"/>
        <pt x="291" y="664" on="0"/>
        <pt x="253" y="699" on="0"/>
        <pt x="253" y="724" on="1"/>
        <pt x="253" y="750" on="0"/>
        <pt x="291" y="786" on="0"/>
        <pt x="316" y="786" on="1"/>
        <pt x="341" y="786" on="0"/>
        <pt x="378" y="750" on="0"/>
        <pt x="378" y="724" on="1"/>
      </contour>
      <contour>
        <pt x="584" y="699" on="0"/>
        <pt x="546" y="664" on="0"/>
        <pt x="521" y="664" on="1"/>
        <pt x="496" y="664" on="0"/>
        <pt x="459" y="699" on="0"/>
        <pt x="459" y="724" on="1"/>
        <pt x="459" y="750" on="0"/>
        <pt x="496" y="786" on="0"/>
        <pt x="521" y="786" on="1"/>
        <pt x="546" y="786" on="0"/>
        <pt x="584" y="750" on="0"/>
        <pt x="584" y="724" on="1"/>
      </contour>
      <contour>
        <pt x="513" y="139" on="0"/>
        <pt x="401" y="-10" on="0"/>
        <pt x="275" y="-10" on="1"/>
        <pt x="177" y="-10" on="0"/>
        <pt x="92" y="77" on="0"/>
        <pt x="92" y="154" on="1"/>
        <pt x="92" y="202" on="0"/>
        <pt x="105" y="264" on="1"/>
        <pt x="162" y="555" on="1"/>
        <pt x="87" y="575" on="1"/>
        <pt x="93" y="612" on="1"/>
        <pt x="347" y="612" on="1"/>
        <pt x="341" y="575" on="1"/>
        <pt x="257" y="555" on="1"/>
        <pt x="201" y="264" on="1"/>
        <pt x="188" y="193" on="0"/>
        <pt x="188" y="159" on="1"/>
        <pt x="188" y="105" on="0"/>
        <pt x="236" y="45" on="0"/>
        <pt x="293" y="45" on="1"/>
        <pt x="371" y="45" on="0"/>
        <pt x="454" y="149" on="0"/>
        <pt x="472" y="239" on="1"/>
        <pt x="533" y="555" on="1"/>
        <pt x="456" y="575" on="1"/>
        <pt x="463" y="612" on="1"/>
        <pt x="682" y="612" on="1"/>
        <pt x="675" y="575" on="1"/>
        <pt x="594" y="555" on="1"/>
        <pt x="532" y="236" on="1"/>
      </contour>
    </TTGlyph>
    <TTGlyph name="Ugrave" xMin="87" yMin="-10" xMax="682" yMax="800">
      <contour>
        <pt x="280" y="751" on="1"/>
        <pt x="282" y="770" on="1"/>
        <pt x="364" y="800" on="1"/>
        <pt x="518" y="670" on="1"/>
        <pt x="500" y="646" on="1"/>
      </contour>
      <contour>
        <pt x="513" y="139" on="0"/>
        <pt x="401" y="-10" on="0"/>
        <pt x="275" y="-10" on="1"/>
        <pt x="177" y="-10" on="0"/>
        <pt x="92" y="77" on="0"/>
        <pt x="92" y="154" on="1"/>
        <pt x="92" y="202" on="0"/>
        <pt x="105" y="264" on="1"/>
        <pt x="162" y="555" on="1"/>
        <pt x="87" y="575" on="1"/>
        <pt x="93" y="612" on="1"/>
        <pt x="347" y="612" on="1"/>
        <pt x="341" y="575" on="1"/>
        <pt x="257" y="555" on="1"/>
        <pt x="201" y="264" on="1"/>
        <pt x="188" y="193" on="0"/>
        <pt x="188" y="159" on="1"/>
        <pt x="188" y="105" on="0"/>
        <pt x="236" y="45" on="0"/>
        <pt x="293" y="45" on="1"/>
        <pt x="371" y="45" on="0"/>
        <pt x="454" y="149" on="0"/>
        <pt x="472" y="239" on="1"/>
        <pt x="533" y="555" on="1"/>
        <pt x="456" y="575" on="1"/>
        <pt x="463" y="612" on="1"/>
        <pt x="682" y="612" on="1"/>
        <pt x="675" y="575" on="1"/>
        <pt x="594" y="555" on="1"/>
        <pt x="532" y="236" on="1"/>
      </contour>
    </TTGlyph>
    <TTGlyph name="Uhorn" xMin="71" yMin="-10" xMax="715" yMax="733">
      <contour>
        <pt x="715" y="646" on="0"/>
        <pt x="674" y="600" on="0"/>
        <pt x="639" y="586" on="1"/>
        <pt x="639" y="585" on="1"/>
        <pt x="579" y="561" on="1"/>
        <pt x="516" y="236" on="1"/>
        <pt x="497" y="139" on="0"/>
        <pt x="384" y="-10" on="0"/>
        <pt x="258" y="-10" on="1"/>
        <pt x="160" y="-10" on="0"/>
        <pt x="76" y="77" on="0"/>
        <pt x="76" y="154" on="1"/>
        <pt x="76" y="202" on="0"/>
        <pt x="89" y="264" on="1"/>
        <pt x="145" y="555" on="1"/>
        <pt x="71" y="575" on="1"/>
        <pt x="77" y="612" on="1"/>
        <pt x="330" y="612" on="1"/>
        <pt x="324" y="575" on="1"/>
        <pt x="241" y="555" on="1"/>
        <pt x="185" y="264" on="1"/>
        <pt x="172" y="202" on="0"/>
        <pt x="172" y="159" on="1"/>
        <pt x="172" y="105" on="0"/>
        <pt x="220" y="45" on="0"/>
        <pt x="277" y="45" on="1"/>
        <pt x="355" y="45" on="0"/>
        <pt x="438" y="149" on="0"/>
        <pt x="455" y="239" on="1"/>
        <pt x="516" y="555" on="1"/>
        <pt x="440" y="575" on="1"/>
        <pt x="446" y="612" on="1"/>
        <pt x="557" y="612" on="1"/>
        <pt x="593" y="612" on="0"/>
        <pt x="628" y="634" on="0"/>
        <pt x="628" y="665" on="1"/>
        <pt x="628" y="684" on="0"/>
        <pt x="623" y="706" on="1"/>
        <pt x="629" y="719" on="1"/>
        <pt x="702" y="733" on="1"/>
        <pt x="708" y="720" on="0"/>
        <pt x="715" y="688" on="0"/>
        <pt x="715" y="676" on="1"/>
      </contour>
    </TTGlyph>
    <TTGlyph name="Uhungarumlaut" xMin="87" yMin="-10" xMax="682" yMax="810">
      <contour>
        <pt x="287" y="657" on="1"/>
        <pt x="375" y="810" on="1"/>
        <pt x="455" y="810" on="1"/>
        <pt x="455" y="791" on="1"/>
        <pt x="310" y="642" on="1"/>
      </contour>
      <contour>
        <pt x="448" y="657" on="1"/>
        <pt x="536" y="810" on="1"/>
        <pt x="616" y="810" on="1"/>
        <pt x="616" y="791" on="1"/>
        <pt x="471" y="642" on="1"/>
      </contour>
      <contour>
        <pt x="513" y="139" on="0"/>
        <pt x="401" y="-10" on="0"/>
        <pt x="275" y="-10" on="1"/>
        <pt x="177" y="-10" on="0"/>
        <pt x="92" y="77" on="0"/>
        <pt x="92" y="154" on="1"/>
        <pt x="92" y="202" on="0"/>
        <pt x="105" y="264" on="1"/>
        <pt x="162" y="555" on="1"/>
        <pt x="87" y="575" on="1"/>
        <pt x="93" y="612" on="1"/>
        <pt x="347" y="612" on="1"/>
        <pt x="341" y="575" on="1"/>
        <pt x="257" y="555" on="1"/>
        <pt x="201" y="264" on="1"/>
        <pt x="188" y="193" on="0"/>
        <pt x="188" y="159" on="1"/>
        <pt x="188" y="105" on="0"/>
        <pt x="236" y="45" on="0"/>
        <pt x="293" y="45" on="1"/>
        <pt x="371" y="45" on="0"/>
        <pt x="454" y="149" on="0"/>
        <pt x="472" y="239" on="1"/>
        <pt x="533" y="555" on="1"/>
        <pt x="456" y="575" on="1"/>
        <pt x="463" y="612" on="1"/>
        <pt x="682" y="612" on="1"/>
        <pt x="675" y="575" on="1"/>
        <pt x="594" y="555" on="1"/>
        <pt x="532" y="236" on="1"/>
      </contour>
    </TTGlyph>
    <TTGlyph name="Umacron" xMin="87" yMin="-10" xMax="682" yMax="747">
      <contour>
        <pt x="544" y="747" on="1"/>
        <pt x="535" y="686" on="1"/>
        <pt x="291" y="686" on="1"/>
        <pt x="300" y="747" on="1"/>
      </contour>
      <contour>
        <pt x="513" y="139" on="0"/>
        <pt x="401" y="-10" on="0"/>
        <pt x="275" y="-10" on="1"/>
        <pt x="177" y="-10" on="0"/>
        <pt x="92" y="77" on="0"/>
        <pt x="92" y="154" on="1"/>
        <pt x="92" y="202" on="0"/>
        <pt x="105" y="264" on="1"/>
        <pt x="162" y="555" on="1"/>
        <pt x="87" y="575" on="1"/>
        <pt x="93" y="612" on="1"/>
        <pt x="347" y="612" on="1"/>
        <pt x="341" y="575" on="1"/>
        <pt x="257" y="555" on="1"/>
        <pt x="201" y="264" on="1"/>
        <pt x="188" y="193" on="0"/>
        <pt x="188" y="159" on="1"/>
        <pt x="188" y="105" on="0"/>
        <pt x="236" y="45" on="0"/>
        <pt x="293" y="45" on="1"/>
        <pt x="371" y="45" on="0"/>
        <pt x="454" y="149" on="0"/>
        <pt x="472" y="239" on="1"/>
        <pt x="533" y="555" on="1"/>
        <pt x="456" y="575" on="1"/>
        <pt x="463" y="612" on="1"/>
        <pt x="682" y="612" on="1"/>
        <pt x="675" y="575" on="1"/>
        <pt x="594" y="555" on="1"/>
        <pt x="532" y="236" on="1"/>
      </contour>
    </TTGlyph>
    <TTGlyph name="Uogonek" xMin="87" yMin="-236" xMax="682" yMax="612">
      <contour>
        <pt x="496" y="46" on="0"/>
        <pt x="361" y="4" on="1"/>
        <pt x="313" y="-18" on="0"/>
        <pt x="260" y="-107" on="0"/>
        <pt x="260" y="-142" on="1"/>
        <pt x="260" y="-164" on="0"/>
        <pt x="283" y="-187" on="0"/>
        <pt x="305" y="-187" on="1"/>
        <pt x="333" y="-187" on="0"/>
        <pt x="362" y="-165" on="1"/>
        <pt x="377" y="-183" on="1"/>
        <pt x="377" y="-185" on="0"/>
        <pt x="348" y="-212" on="0"/>
        <pt x="301" y="-236" on="0"/>
        <pt x="271" y="-236" on="1"/>
        <pt x="227" y="-236" on="0"/>
        <pt x="186" y="-196" on="0"/>
        <pt x="186" y="-164" on="1"/>
        <pt x="186" y="-129" on="0"/>
        <pt x="243" y="-43" on="0"/>
        <pt x="296" y="-9" on="1"/>
        <pt x="289" y="-10" on="0"/>
        <pt x="275" y="-10" on="1"/>
        <pt x="177" y="-10" on="0"/>
        <pt x="92" y="77" on="0"/>
        <pt x="92" y="154" on="1"/>
        <pt x="92" y="202" on="0"/>
        <pt x="105" y="264" on="1"/>
        <pt x="162" y="555" on="1"/>
        <pt x="87" y="575" on="1"/>
        <pt x="93" y="612" on="1"/>
        <pt x="347" y="612" on="1"/>
        <pt x="341" y="575" on="1"/>
        <pt x="257" y="555" on="1"/>
        <pt x="201" y="264" on="1"/>
        <pt x="188" y="193" on="0"/>
        <pt x="188" y="159" on="1"/>
        <pt x="188" y="105" on="0"/>
        <pt x="236" y="45" on="0"/>
        <pt x="293" y="45" on="1"/>
        <pt x="371" y="45" on="0"/>
        <pt x="454" y="149" on="0"/>
        <pt x="472" y="239" on="1"/>
        <pt x="533" y="555" on="1"/>
        <pt x="456" y="575" on="1"/>
        <pt x="463" y="612" on="1"/>
        <pt x="682" y="612" on="1"/>
        <pt x="675" y="575" on="1"/>
        <pt x="594" y="555" on="1"/>
        <pt x="532" y="236" on="1"/>
      </contour>
    </TTGlyph>
    <TTGlyph name="Uring" xMin="87" yMin="-10" xMax="682" yMax="820">
      <contour>
        <pt x="365" y="636" on="0"/>
        <pt x="320" y="674" on="0"/>
        <pt x="320" y="706" on="1"/>
        <pt x="320" y="755" on="0"/>
        <pt x="384" y="820" on="0"/>
        <pt x="442" y="820" on="1"/>
        <pt x="485" y="820" on="0"/>
        <pt x="529" y="779" on="0"/>
        <pt x="529" y="746" on="1"/>
        <pt x="529" y="699" on="0"/>
        <pt x="462" y="636" on="0"/>
        <pt x="408" y="636" on="1"/>
      </contour>
      <contour>
        <pt x="444" y="674" on="0"/>
        <pt x="469" y="715" on="0"/>
        <pt x="469" y="744" on="1"/>
        <pt x="469" y="781" on="0"/>
        <pt x="434" y="781" on="1"/>
        <pt x="405" y="781" on="0"/>
        <pt x="379" y="740" on="0"/>
        <pt x="379" y="710" on="1"/>
        <pt x="379" y="674" on="0"/>
        <pt x="415" y="674" on="1"/>
      </contour>
      <contour>
        <pt x="177" y="-10" on="0"/>
        <pt x="92" y="77" on="0"/>
        <pt x="92" y="154" on="1"/>
        <pt x="92" y="202" on="0"/>
        <pt x="105" y="264" on="1"/>
        <pt x="162" y="555" on="1"/>
        <pt x="87" y="575" on="1"/>
        <pt x="93" y="612" on="1"/>
        <pt x="347" y="612" on="1"/>
        <pt x="341" y="575" on="1"/>
        <pt x="257" y="555" on="1"/>
        <pt x="201" y="264" on="1"/>
        <pt x="188" y="193" on="0"/>
        <pt x="188" y="159" on="1"/>
        <pt x="188" y="105" on="0"/>
        <pt x="236" y="45" on="0"/>
        <pt x="293" y="45" on="1"/>
        <pt x="371" y="45" on="0"/>
        <pt x="454" y="149" on="0"/>
        <pt x="472" y="239" on="1"/>
        <pt x="533" y="555" on="1"/>
        <pt x="456" y="575" on="1"/>
        <pt x="463" y="612" on="1"/>
        <pt x="682" y="612" on="1"/>
        <pt x="675" y="575" on="1"/>
        <pt x="594" y="555" on="1"/>
        <pt x="532" y="236" on="1"/>
        <pt x="513" y="139" on="0"/>
        <pt x="401" y="-10" on="0"/>
        <pt x="275" y="-10" on="1"/>
      </contour>
    </TTGlyph>
    <TTGlyph name="Utilde" xMin="91" yMin="-10" xMax="686" yMax="783">
      <contour>
        <pt x="557" y="717" on="0"/>
        <pt x="520" y="666" on="0"/>
        <pt x="497" y="666" on="1"/>
        <pt x="478" y="666" on="0"/>
        <pt x="414" y="686" on="1"/>
        <pt x="359" y="705" on="0"/>
        <pt x="338" y="705" on="1"/>
        <pt x="328" y="705" on="0"/>
        <pt x="309" y="689" on="0"/>
        <pt x="297" y="673" on="0"/>
        <pt x="295" y="670" on="1"/>
        <pt x="260" y="684" on="1"/>
        <pt x="278" y="730" on="0"/>
        <pt x="316" y="783" on="0"/>
        <pt x="339" y="783" on="1"/>
        <pt x="362" y="783" on="0"/>
        <pt x="421" y="762" on="1"/>
        <pt x="428" y="760" on="0"/>
        <pt x="483" y="743" on="0"/>
        <pt x="498" y="743" on="1"/>
        <pt x="509" y="743" on="0"/>
        <pt x="528" y="758" on="0"/>
        <pt x="540" y="774" on="0"/>
        <pt x="541" y="777" on="1"/>
        <pt x="576" y="763" on="1"/>
      </contour>
      <contour>
        <pt x="518" y="140" on="0"/>
        <pt x="405" y="-10" on="0"/>
        <pt x="279" y="-10" on="1"/>
        <pt x="181" y="-10" on="0"/>
        <pt x="96" y="77" on="0"/>
        <pt x="96" y="154" on="1"/>
        <pt x="96" y="193" on="0"/>
        <pt x="109" y="264" on="1"/>
        <pt x="166" y="555" on="1"/>
        <pt x="91" y="575" on="1"/>
        <pt x="97" y="612" on="1"/>
        <pt x="351" y="612" on="1"/>
        <pt x="345" y="575" on="1"/>
        <pt x="262" y="555" on="1"/>
        <pt x="205" y="264" on="1"/>
        <pt x="192" y="193" on="0"/>
        <pt x="192" y="159" on="1"/>
        <pt x="192" y="105" on="0"/>
        <pt x="241" y="45" on="0"/>
        <pt x="298" y="45" on="1"/>
        <pt x="376" y="45" on="0"/>
        <pt x="458" y="149" on="0"/>
        <pt x="476" y="239" on="1"/>
        <pt x="537" y="555" on="1"/>
        <pt x="460" y="575" on="1"/>
        <pt x="467" y="612" on="1"/>
        <pt x="686" y="612" on="1"/>
        <pt x="679" y="575" on="1"/>
        <pt x="598" y="555" on="1"/>
        <pt x="536" y="236" on="1"/>
      </contour>
    </TTGlyph>
    <TTGlyph name="V" xMin="51" yMin="-9" xMax="620" yMax="612">
      <contour>
        <pt x="424" y="612" on="1"/>
        <pt x="620" y="612" on="1"/>
        <pt x="613" y="575" on="1"/>
        <pt x="541" y="554" on="1"/>
        <pt x="259" y="2" on="1"/>
        <pt x="192" y="-9" on="1"/>
        <pt x="114" y="554" on="1"/>
        <pt x="51" y="575" on="1"/>
        <pt x="58" y="612" on="1"/>
        <pt x="278" y="612" on="1"/>
        <pt x="271" y="575" on="1"/>
        <pt x="210" y="555" on="1"/>
        <pt x="265" y="125" on="1"/>
        <pt x="480" y="555" on="1"/>
        <pt x="417" y="575" on="1"/>
      </contour>
    </TTGlyph>
    <TTGlyph name="W" xMin="43" yMin="-10" xMax="857" yMax="612">
      <contour>
        <pt x="659" y="612" on="1"/>
        <pt x="857" y="612" on="1"/>
        <pt x="850" y="576" on="1"/>
        <pt x="778" y="555" on="1"/>
        <pt x="531" y="2" on="1"/>
        <pt x="469" y="-10" on="1"/>
        <pt x="421" y="413" on="1"/>
        <pt x="235" y="2" on="1"/>
        <pt x="171" y="-10" on="1"/>
        <pt x="107" y="554" on="1"/>
        <pt x="43" y="575" on="1"/>
        <pt x="50" y="612" on="1"/>
        <pt x="270" y="612" on="1"/>
        <pt x="264" y="575" on="1"/>
        <pt x="204" y="555" on="1"/>
        <pt x="245" y="153" on="1"/>
        <pt x="422" y="556" on="1"/>
        <pt x="498" y="569" on="1"/>
        <pt x="540" y="150" on="1"/>
        <pt x="715" y="555" on="1"/>
        <pt x="653" y="575" on="1"/>
      </contour>
    </TTGlyph>
    <TTGlyph name="Wacute" xMin="43" yMin="-10" xMax="857" yMax="800">
      <component glyphName=".ttfautohint" x="43" y="0" flags="0x0"/>
      <component glyphName="W" x="0" y="0" flags="0x0"/>
      <component glyphName="acutecomb" x="571" y="0" flags="0x0"/>
    </TTGlyph>
    <TTGlyph name="Wcircumflex" xMin="43" yMin="-10" xMax="857" yMax="801">
      <component glyphName=".ttfautohint" x="43" y="0" flags="0x0"/>
      <component glyphName="W" x="0" y="0" flags="0x0"/>
      <component glyphName="uni0302" x="516" y="0" flags="0x0"/>
    </TTGlyph>
    <TTGlyph name="Wdieresis" xMin="43" yMin="-10" xMax="857" yMax="786">
      <component glyphName=".ttfautohint" x="43" y="0" flags="0x0"/>
      <component glyphName="W" x="0" y="0" flags="0x0"/>
      <component glyphName="uni0308" x="521" y="0" flags="0x0"/>
    </TTGlyph>
    <TTGlyph name="Wgrave" xMin="43" yMin="-10" xMax="857" yMax="800">
      <component glyphName=".ttfautohint" x="43" y="0" flags="0x0"/>
      <component glyphName="W" x="0" y="0" flags="0x0"/>
      <component glyphName="gravecomb" x="456" y="0" flags="0x0"/>
    </TTGlyph>
    <TTGlyph name="X" xMin="-39" yMin="0" xMax="612" yMax="612">
      <contour>
        <pt x="-33" y="37" on="1"/>
        <pt x="35" y="57" on="1"/>
        <pt x="237" y="304" on="1"/>
        <pt x="136" y="555" on="1"/>
        <pt x="77" y="575" on="1"/>
        <pt x="83" y="612" on="1"/>
        <pt x="307" y="612" on="1"/>
        <pt x="300" y="574" on="1"/>
        <pt x="239" y="555" on="1"/>
        <pt x="313" y="372" on="1"/>
        <pt x="466" y="555" on="1"/>
        <pt x="405" y="574" on="1"/>
        <pt x="412" y="612" on="1"/>
        <pt x="612" y="612" on="1"/>
        <pt x="605" y="575" on="1"/>
        <pt x="537" y="555" on="1"/>
        <pt x="335" y="316" on="1"/>
        <pt x="444" y="56" on="1"/>
        <pt x="506" y="37" on="1"/>
        <pt x="500" y="0" on="1"/>
        <pt x="272" y="0" on="1"/>
        <pt x="279" y="38" on="1"/>
        <pt x="338" y="56" on="1"/>
        <pt x="259" y="247" on="1"/>
        <pt x="106" y="57" on="1"/>
        <pt x="167" y="37" on="1"/>
        <pt x="161" y="0" on="1"/>
        <pt x="-39" y="0" on="1"/>
      </contour>
    </TTGlyph>
    <TTGlyph name="Y" xMin="59" yMin="0" xMax="593" yMax="612">
      <contour>
        <pt x="395" y="612" on="1"/>
        <pt x="593" y="612" on="1"/>
        <pt x="586" y="576" on="1"/>
        <pt x="514" y="554" on="1"/>
        <pt x="302" y="233" on="1"/>
        <pt x="268" y="58" on="1"/>
        <pt x="358" y="37" on="1"/>
        <pt x="352" y="0" on="1"/>
        <pt x="68" y="0" on="1"/>
        <pt x="75" y="37" on="1"/>
        <pt x="173" y="58" on="1"/>
        <pt x="208" y="237" on="1"/>
        <pt x="119" y="554" on="1"/>
        <pt x="59" y="575" on="1"/>
        <pt x="66" y="612" on="1"/>
        <pt x="280" y="612" on="1"/>
        <pt x="274" y="575" on="1"/>
        <pt x="212" y="555" on="1"/>
        <pt x="282" y="297" on="1"/>
        <pt x="451" y="555" on="1"/>
        <pt x="388" y="575" on="1"/>
      </contour>
    </TTGlyph>
    <TTGlyph name="Y.loclGUA" xMin="43" yMin="-167" xMax="686" yMax="612">
      <contour>
        <pt x="173" y="-167" on="0"/>
        <pt x="84" y="-143" on="0"/>
        <pt x="43" y="-117" on="1"/>
        <pt x="80" y="7" on="1"/>
        <pt x="120" y="7" on="1"/>
        <pt x="125" y="-75" on="1"/>
        <pt x="147" y="-91" on="0"/>
        <pt x="210" y="-109" on="0"/>
        <pt x="239" y="-109" on="1"/>
        <pt x="316" y="-109" on="0"/>
        <pt x="402" y="-25" on="0"/>
        <pt x="419" y="66" on="1"/>
        <pt x="428" y="107" on="1"/>
        <pt x="395" y="81" on="0"/>
        <pt x="310" y="50" on="0"/>
        <pt x="260" y="50" on="1"/>
        <pt x="168" y="50" on="0"/>
        <pt x="92" y="133" on="0"/>
        <pt x="92" y="213" on="1"/>
        <pt x="92" y="257" on="0"/>
        <pt x="106" y="327" on="1"/>
        <pt x="150" y="555" on="1"/>
        <pt x="75" y="575" on="1"/>
        <pt x="81" y="612" on="1"/>
        <pt x="334" y="612" on="1"/>
        <pt x="328" y="575" on="1"/>
        <pt x="245" y="555" on="1"/>
        <pt x="200" y="325" on="1"/>
        <pt x="187" y="260" on="0"/>
        <pt x="187" y="218" on="1"/>
        <pt x="187" y="162" on="0"/>
        <pt x="231" y="105" on="0"/>
        <pt x="283" y="105" on="1"/>
        <pt x="338" y="105" on="0"/>
        <pt x="421" y="157" on="0"/>
        <pt x="444" y="195" on="1"/>
        <pt x="513" y="555" on="1"/>
        <pt x="438" y="575" on="1"/>
        <pt x="445" y="612" on="1"/>
        <pt x="686" y="612" on="1"/>
        <pt x="679" y="575" on="1"/>
        <pt x="597" y="555" on="1"/>
        <pt x="503" y="66" on="1"/>
        <pt x="479" y="-59" on="0"/>
        <pt x="342" y="-167" on="0"/>
        <pt x="228" y="-167" on="1"/>
      </contour>
    </TTGlyph>
    <TTGlyph name="Yacute" xMin="67" yMin="0" xMax="601" yMax="800">
      <contour>
        <pt x="260" y="670" on="1"/>
        <pt x="415" y="800" on="1"/>
        <pt x="497" y="770" on="1"/>
        <pt x="497" y="751" on="1"/>
        <pt x="279" y="646" on="1"/>
      </contour>
      <contour>
        <pt x="403" y="612" on="1"/>
        <pt x="601" y="612" on="1"/>
        <pt x="594" y="576" on="1"/>
        <pt x="522" y="554" on="1"/>
        <pt x="310" y="233" on="1"/>
        <pt x="276" y="58" on="1"/>
        <pt x="366" y="37" on="1"/>
        <pt x="360" y="0" on="1"/>
        <pt x="76" y="0" on="1"/>
        <pt x="83" y="37" on="1"/>
        <pt x="181" y="58" on="1"/>
        <pt x="216" y="237" on="1"/>
        <pt x="127" y="554" on="1"/>
        <pt x="67" y="575" on="1"/>
        <pt x="74" y="612" on="1"/>
        <pt x="288" y="612" on="1"/>
        <pt x="282" y="575" on="1"/>
        <pt x="220" y="555" on="1"/>
        <pt x="290" y="297" on="1"/>
        <pt x="459" y="555" on="1"/>
        <pt x="396" y="575" on="1"/>
      </contour>
    </TTGlyph>
    <TTGlyph name="Yacute.loclGUA" xMin="43" yMin="-167" xMax="686" yMax="800">
      <contour>
        <pt x="319" y="670" on="1"/>
        <pt x="473" y="800" on="1"/>
        <pt x="556" y="770" on="1"/>
        <pt x="556" y="751" on="1"/>
        <pt x="338" y="646" on="1"/>
      </contour>
      <contour>
        <pt x="173" y="-167" on="0"/>
        <pt x="84" y="-143" on="0"/>
        <pt x="43" y="-117" on="1"/>
        <pt x="80" y="7" on="1"/>
        <pt x="120" y="7" on="1"/>
        <pt x="125" y="-75" on="1"/>
        <pt x="147" y="-91" on="0"/>
        <pt x="210" y="-109" on="0"/>
        <pt x="239" y="-109" on="1"/>
        <pt x="316" y="-109" on="0"/>
        <pt x="402" y="-25" on="0"/>
        <pt x="419" y="66" on="1"/>
        <pt x="428" y="107" on="1"/>
        <pt x="395" y="81" on="0"/>
        <pt x="310" y="50" on="0"/>
        <pt x="260" y="50" on="1"/>
        <pt x="168" y="50" on="0"/>
        <pt x="92" y="133" on="0"/>
        <pt x="92" y="213" on="1"/>
        <pt x="92" y="257" on="0"/>
        <pt x="106" y="327" on="1"/>
        <pt x="150" y="555" on="1"/>
        <pt x="75" y="575" on="1"/>
        <pt x="81" y="612" on="1"/>
        <pt x="334" y="612" on="1"/>
        <pt x="328" y="575" on="1"/>
        <pt x="245" y="555" on="1"/>
        <pt x="200" y="325" on="1"/>
        <pt x="187" y="260" on="0"/>
        <pt x="187" y="218" on="1"/>
        <pt x="187" y="162" on="0"/>
        <pt x="231" y="105" on="0"/>
        <pt x="283" y="105" on="1"/>
        <pt x="338" y="105" on="0"/>
        <pt x="421" y="157" on="0"/>
        <pt x="444" y="195" on="1"/>
        <pt x="513" y="555" on="1"/>
        <pt x="438" y="575" on="1"/>
        <pt x="445" y="612" on="1"/>
        <pt x="686" y="612" on="1"/>
        <pt x="679" y="575" on="1"/>
        <pt x="597" y="555" on="1"/>
        <pt x="503" y="66" on="1"/>
        <pt x="479" y="-59" on="0"/>
        <pt x="342" y="-167" on="0"/>
        <pt x="228" y="-167" on="1"/>
      </contour>
    </TTGlyph>
    <TTGlyph name="Ycircumflex" xMin="67" yMin="0" xMax="601" yMax="801">
      <contour>
        <pt x="369" y="727" on="1"/>
        <pt x="232" y="647" on="1"/>
        <pt x="211" y="669" on="1"/>
        <pt x="347" y="801" on="1"/>
        <pt x="414" y="801" on="1"/>
        <pt x="494" y="668" on="1"/>
        <pt x="467" y="647" on="1"/>
      </contour>
      <contour>
        <pt x="403" y="612" on="1"/>
        <pt x="601" y="612" on="1"/>
        <pt x="594" y="576" on="1"/>
        <pt x="522" y="554" on="1"/>
        <pt x="310" y="233" on="1"/>
        <pt x="276" y="58" on="1"/>
        <pt x="366" y="37" on="1"/>
        <pt x="360" y="0" on="1"/>
        <pt x="76" y="0" on="1"/>
        <pt x="83" y="37" on="1"/>
        <pt x="181" y="58" on="1"/>
        <pt x="216" y="237" on="1"/>
        <pt x="127" y="554" on="1"/>
        <pt x="67" y="575" on="1"/>
        <pt x="74" y="612" on="1"/>
        <pt x="288" y="612" on="1"/>
        <pt x="282" y="575" on="1"/>
        <pt x="220" y="555" on="1"/>
        <pt x="290" y="297" on="1"/>
        <pt x="459" y="555" on="1"/>
        <pt x="396" y="575" on="1"/>
      </contour>
    </TTGlyph>
    <TTGlyph name="Ycircumflex.loclGUA" xMin="43" yMin="-167" xMax="686" yMax="801">
      <contour>
        <pt x="259" y="669" on="1"/>
        <pt x="395" y="801" on="1"/>
        <pt x="462" y="801" on="1"/>
        <pt x="542" y="668" on="1"/>
        <pt x="515" y="647" on="1"/>
        <pt x="417" y="727" on="1"/>
        <pt x="280" y="647" on="1"/>
      </contour>
      <contour>
        <pt x="173" y="-167" on="0"/>
        <pt x="84" y="-143" on="0"/>
        <pt x="43" y="-117" on="1"/>
        <pt x="80" y="7" on="1"/>
        <pt x="120" y="7" on="1"/>
        <pt x="125" y="-75" on="1"/>
        <pt x="147" y="-91" on="0"/>
        <pt x="210" y="-109" on="0"/>
        <pt x="239" y="-109" on="1"/>
        <pt x="316" y="-109" on="0"/>
        <pt x="402" y="-25" on="0"/>
        <pt x="419" y="66" on="1"/>
        <pt x="428" y="107" on="1"/>
        <pt x="395" y="81" on="0"/>
        <pt x="310" y="50" on="0"/>
        <pt x="260" y="50" on="1"/>
        <pt x="168" y="50" on="0"/>
        <pt x="92" y="133" on="0"/>
        <pt x="92" y="213" on="1"/>
        <pt x="92" y="257" on="0"/>
        <pt x="106" y="327" on="1"/>
        <pt x="150" y="555" on="1"/>
        <pt x="75" y="575" on="1"/>
        <pt x="81" y="612" on="1"/>
        <pt x="334" y="612" on="1"/>
        <pt x="328" y="575" on="1"/>
        <pt x="245" y="555" on="1"/>
        <pt x="200" y="325" on="1"/>
        <pt x="187" y="260" on="0"/>
        <pt x="187" y="218" on="1"/>
        <pt x="187" y="162" on="0"/>
        <pt x="231" y="105" on="0"/>
        <pt x="283" y="105" on="1"/>
        <pt x="338" y="105" on="0"/>
        <pt x="421" y="157" on="0"/>
        <pt x="444" y="195" on="1"/>
        <pt x="513" y="555" on="1"/>
        <pt x="438" y="575" on="1"/>
        <pt x="445" y="612" on="1"/>
        <pt x="686" y="612" on="1"/>
        <pt x="679" y="575" on="1"/>
        <pt x="597" y="555" on="1"/>
        <pt x="503" y="66" on="1"/>
        <pt x="479" y="-59" on="0"/>
        <pt x="342" y="-167" on="0"/>
        <pt x="228" y="-167" on="1"/>
      </contour>
    </TTGlyph>
    <TTGlyph name="Ydieresis" xMin="67" yMin="0" xMax="601" yMax="786">
      <contour>
        <pt x="329" y="699" on="0"/>
        <pt x="292" y="664" on="0"/>
        <pt x="267" y="664" on="1"/>
        <pt x="241" y="664" on="0"/>
        <pt x="204" y="699" on="0"/>
        <pt x="204" y="724" on="1"/>
        <pt x="204" y="750" on="0"/>
        <pt x="241" y="786" on="0"/>
        <pt x="267" y="786" on="1"/>
        <pt x="292" y="786" on="0"/>
        <pt x="329" y="750" on="0"/>
        <pt x="329" y="724" on="1"/>
      </contour>
      <contour>
        <pt x="534" y="699" on="0"/>
        <pt x="497" y="664" on="0"/>
        <pt x="472" y="664" on="1"/>
        <pt x="446" y="664" on="0"/>
        <pt x="409" y="699" on="0"/>
        <pt x="409" y="724" on="1"/>
        <pt x="409" y="750" on="0"/>
        <pt x="446" y="786" on="0"/>
        <pt x="472" y="786" on="1"/>
        <pt x="497" y="786" on="0"/>
        <pt x="534" y="750" on="0"/>
        <pt x="534" y="724" on="1"/>
      </contour>
      <contour>
        <pt x="403" y="612" on="1"/>
        <pt x="601" y="612" on="1"/>
        <pt x="594" y="576" on="1"/>
        <pt x="522" y="554" on="1"/>
        <pt x="310" y="233" on="1"/>
        <pt x="276" y="58" on="1"/>
        <pt x="366" y="37" on="1"/>
        <pt x="360" y="0" on="1"/>
        <pt x="76" y="0" on="1"/>
        <pt x="83" y="37" on="1"/>
        <pt x="181" y="58" on="1"/>
        <pt x="216" y="237" on="1"/>
        <pt x="127" y="554" on="1"/>
        <pt x="67" y="575" on="1"/>
        <pt x="74" y="612" on="1"/>
        <pt x="288" y="612" on="1"/>
        <pt x="282" y="575" on="1"/>
        <pt x="220" y="555" on="1"/>
        <pt x="290" y="297" on="1"/>
        <pt x="459" y="555" on="1"/>
        <pt x="396" y="575" on="1"/>
      </contour>
    </TTGlyph>
    <TTGlyph name="Ydieresis.loclGUA" xMin="60" yMin="-167" xMax="703" yMax="786">
      <contour>
        <pt x="290" y="664" on="0"/>
        <pt x="252" y="699" on="0"/>
        <pt x="252" y="724" on="1"/>
        <pt x="252" y="750" on="0"/>
        <pt x="290" y="786" on="0"/>
        <pt x="316" y="786" on="1"/>
        <pt x="340" y="786" on="0"/>
        <pt x="377" y="750" on="0"/>
        <pt x="377" y="724" on="1"/>
        <pt x="377" y="699" on="0"/>
        <pt x="340" y="664" on="0"/>
        <pt x="316" y="664" on="1"/>
      </contour>
      <contour>
        <pt x="495" y="664" on="0"/>
        <pt x="458" y="699" on="0"/>
        <pt x="458" y="724" on="1"/>
        <pt x="458" y="750" on="0"/>
        <pt x="495" y="786" on="0"/>
        <pt x="521" y="786" on="1"/>
        <pt x="546" y="786" on="0"/>
        <pt x="583" y="750" on="0"/>
        <pt x="583" y="724" on="1"/>
        <pt x="583" y="699" on="0"/>
        <pt x="546" y="664" on="0"/>
        <pt x="521" y="664" on="1"/>
      </contour>
      <contour>
        <pt x="190" y="-167" on="0"/>
        <pt x="101" y="-143" on="0"/>
        <pt x="60" y="-117" on="1"/>
        <pt x="97" y="7" on="1"/>
        <pt x="137" y="7" on="1"/>
        <pt x="142" y="-75" on="1"/>
        <pt x="164" y="-91" on="0"/>
        <pt x="227" y="-109" on="0"/>
        <pt x="256" y="-109" on="1"/>
        <pt x="333" y="-109" on="0"/>
        <pt x="419" y="-25" on="0"/>
        <pt x="436" y="66" on="1"/>
        <pt x="445" y="107" on="1"/>
        <pt x="412" y="81" on="0"/>
        <pt x="327" y="50" on="0"/>
        <pt x="277" y="50" on="1"/>
        <pt x="185" y="50" on="0"/>
        <pt x="109" y="133" on="0"/>
        <pt x="109" y="213" on="1"/>
        <pt x="109" y="257" on="0"/>
        <pt x="123" y="327" on="1"/>
        <pt x="167" y="555" on="1"/>
        <pt x="92" y="575" on="1"/>
        <pt x="98" y="612" on="1"/>
        <pt x="351" y="612" on="1"/>
        <pt x="345" y="575" on="1"/>
        <pt x="262" y="555" on="1"/>
        <pt x="217" y="325" on="1"/>
        <pt x="204" y="260" on="0"/>
        <pt x="204" y="218" on="1"/>
        <pt x="204" y="162" on="0"/>
        <pt x="248" y="105" on="0"/>
        <pt x="300" y="105" on="1"/>
        <pt x="355" y="105" on="0"/>
        <pt x="438" y="157" on="0"/>
        <pt x="461" y="195" on="1"/>
        <pt x="530" y="555" on="1"/>
        <pt x="455" y="575" on="1"/>
        <pt x="462" y="612" on="1"/>
        <pt x="703" y="612" on="1"/>
        <pt x="696" y="575" on="1"/>
        <pt x="614" y="555" on="1"/>
        <pt x="520" y="66" on="1"/>
        <pt x="496" y="-59" on="0"/>
        <pt x="359" y="-167" on="0"/>
        <pt x="245" y="-167" on="1"/>
      </contour>
    </TTGlyph>
    <TTGlyph name="Ygrave" xMin="67" yMin="0" xMax="601" yMax="800">
      <contour>
        <pt x="218" y="751" on="1"/>
        <pt x="219" y="770" on="1"/>
        <pt x="301" y="800" on="1"/>
        <pt x="455" y="670" on="1"/>
        <pt x="437" y="646" on="1"/>
      </contour>
      <contour>
        <pt x="83" y="37" on="1"/>
        <pt x="181" y="58" on="1"/>
        <pt x="216" y="237" on="1"/>
        <pt x="127" y="554" on="1"/>
        <pt x="67" y="575" on="1"/>
        <pt x="74" y="612" on="1"/>
        <pt x="288" y="612" on="1"/>
        <pt x="282" y="575" on="1"/>
        <pt x="220" y="555" on="1"/>
        <pt x="290" y="297" on="1"/>
        <pt x="459" y="555" on="1"/>
        <pt x="396" y="575" on="1"/>
        <pt x="403" y="612" on="1"/>
        <pt x="601" y="612" on="1"/>
        <pt x="594" y="576" on="1"/>
        <pt x="522" y="554" on="1"/>
        <pt x="310" y="233" on="1"/>
        <pt x="276" y="58" on="1"/>
        <pt x="366" y="37" on="1"/>
        <pt x="360" y="0" on="1"/>
        <pt x="76" y="0" on="1"/>
      </contour>
    </TTGlyph>
    <TTGlyph name="Ygrave.loclGUA" xMin="43" yMin="-167" xMax="686" yMax="800">
      <contour>
        <pt x="246" y="751" on="1"/>
        <pt x="248" y="770" on="1"/>
        <pt x="330" y="800" on="1"/>
        <pt x="484" y="670" on="1"/>
        <pt x="466" y="646" on="1"/>
      </contour>
      <contour>
        <pt x="173" y="-167" on="0"/>
        <pt x="84" y="-143" on="0"/>
        <pt x="43" y="-117" on="1"/>
        <pt x="80" y="7" on="1"/>
        <pt x="120" y="7" on="1"/>
        <pt x="125" y="-75" on="1"/>
        <pt x="147" y="-91" on="0"/>
        <pt x="210" y="-109" on="0"/>
        <pt x="239" y="-109" on="1"/>
        <pt x="316" y="-109" on="0"/>
        <pt x="402" y="-25" on="0"/>
        <pt x="419" y="66" on="1"/>
        <pt x="428" y="107" on="1"/>
        <pt x="395" y="81" on="0"/>
        <pt x="310" y="50" on="0"/>
        <pt x="260" y="50" on="1"/>
        <pt x="168" y="50" on="0"/>
        <pt x="92" y="133" on="0"/>
        <pt x="92" y="213" on="1"/>
        <pt x="92" y="257" on="0"/>
        <pt x="106" y="327" on="1"/>
        <pt x="150" y="555" on="1"/>
        <pt x="75" y="575" on="1"/>
        <pt x="81" y="612" on="1"/>
        <pt x="334" y="612" on="1"/>
        <pt x="328" y="575" on="1"/>
        <pt x="245" y="555" on="1"/>
        <pt x="200" y="325" on="1"/>
        <pt x="187" y="260" on="0"/>
        <pt x="187" y="218" on="1"/>
        <pt x="187" y="162" on="0"/>
        <pt x="231" y="105" on="0"/>
        <pt x="283" y="105" on="1"/>
        <pt x="338" y="105" on="0"/>
        <pt x="421" y="157" on="0"/>
        <pt x="444" y="195" on="1"/>
        <pt x="513" y="555" on="1"/>
        <pt x="438" y="575" on="1"/>
        <pt x="445" y="612" on="1"/>
        <pt x="686" y="612" on="1"/>
        <pt x="679" y="575" on="1"/>
        <pt x="597" y="555" on="1"/>
        <pt x="503" y="66" on="1"/>
        <pt x="479" y="-59" on="0"/>
        <pt x="342" y="-167" on="0"/>
        <pt x="228" y="-167" on="1"/>
      </contour>
    </TTGlyph>
    <TTGlyph name="Z" xMin="-4" yMin="0" xMax="523" yMax="612">
      <contour>
        <pt x="408" y="0" on="1"/>
        <pt x="7" y="0" on="1"/>
        <pt x="-4" y="33" on="1"/>
        <pt x="395" y="555" on="1"/>
        <pt x="183" y="555" on="1"/>
        <pt x="146" y="476" on="1"/>
        <pt x="105" y="476" on="1"/>
        <pt x="122" y="612" on="1"/>
        <pt x="523" y="612" on="1"/>
        <pt x="522" y="580" on="1"/>
        <pt x="123" y="58" on="1"/>
        <pt x="352" y="58" on="1"/>
        <pt x="405" y="151" on="1"/>
        <pt x="446" y="151" on="1"/>
      </contour>
    </TTGlyph>
    <TTGlyph name="Zacute" xMin="-13" yMin="0" xMax="514" yMax="800">
      <contour>
        <pt x="213" y="670" on="1"/>
        <pt x="367" y="800" on="1"/>
        <pt x="450" y="770" on="1"/>
        <pt x="450" y="751" on="1"/>
        <pt x="232" y="646" on="1"/>
      </contour>
      <contour>
        <pt x="398" y="0" on="1"/>
        <pt x="-2" y="0" on="1"/>
        <pt x="-13" y="33" on="1"/>
        <pt x="386" y="555" on="1"/>
        <pt x="173" y="555" on="1"/>
        <pt x="137" y="476" on="1"/>
        <pt x="96" y="476" on="1"/>
        <pt x="113" y="612" on="1"/>
        <pt x="514" y="612" on="1"/>
        <pt x="513" y="580" on="1"/>
        <pt x="114" y="58" on="1"/>
        <pt x="343" y="58" on="1"/>
        <pt x="396" y="151" on="1"/>
        <pt x="437" y="151" on="1"/>
      </contour>
    </TTGlyph>
    <TTGlyph name="Zacute.loclPLK" xMin="-4" yMin="0" xMax="523" yMax="810">
      <component glyphName=".ttfautohint" x="0" y="0" flags="0x0"/>
      <component glyphName="Z" x="0" y="0" flags="0x0"/>
      <component glyphName="acute.loclPLK.case" x="146" y="0" flags="0x0"/>
    </TTGlyph>
    <TTGlyph name="Zcaron" xMin="-13" yMin="0" xMax="514" yMax="802">
      <contour>
        <pt x="328" y="723" on="1"/>
        <pt x="459" y="802" on="1"/>
        <pt x="480" y="780" on="1"/>
        <pt x="350" y="648" on="1"/>
        <pt x="283" y="648" on="1"/>
        <pt x="196" y="781" on="1"/>
        <pt x="224" y="801" on="1"/>
      </contour>
      <contour>
        <pt x="398" y="0" on="1"/>
        <pt x="-2" y="0" on="1"/>
        <pt x="-13" y="33" on="1"/>
        <pt x="386" y="555" on="1"/>
        <pt x="173" y="555" on="1"/>
        <pt x="137" y="476" on="1"/>
        <pt x="96" y="476" on="1"/>
        <pt x="113" y="612" on="1"/>
        <pt x="514" y="612" on="1"/>
        <pt x="513" y="580" on="1"/>
        <pt x="114" y="58" on="1"/>
        <pt x="343" y="58" on="1"/>
        <pt x="396" y="151" on="1"/>
        <pt x="437" y="151" on="1"/>
      </contour>
    </TTGlyph>
    <TTGlyph name="Zdotaccent" xMin="-13" yMin="0" xMax="514" yMax="789">
      <contour>
        <pt x="381" y="695" on="0"/>
        <pt x="342" y="658" on="0"/>
        <pt x="315" y="658" on="1"/>
        <pt x="288" y="658" on="0"/>
        <pt x="247" y="695" on="0"/>
        <pt x="247" y="722" on="1"/>
        <pt x="247" y="749" on="0"/>
        <pt x="288" y="789" on="0"/>
        <pt x="315" y="789" on="1"/>
        <pt x="342" y="789" on="0"/>
        <pt x="381" y="750" on="0"/>
        <pt x="381" y="722" on="1"/>
      </contour>
      <contour>
        <pt x="398" y="0" on="1"/>
        <pt x="-2" y="0" on="1"/>
        <pt x="-13" y="33" on="1"/>
        <pt x="386" y="555" on="1"/>
        <pt x="173" y="555" on="1"/>
        <pt x="137" y="476" on="1"/>
        <pt x="96" y="476" on="1"/>
        <pt x="113" y="612" on="1"/>
        <pt x="514" y="612" on="1"/>
        <pt x="513" y="580" on="1"/>
        <pt x="114" y="58" on="1"/>
        <pt x="343" y="58" on="1"/>
        <pt x="396" y="151" on="1"/>
        <pt x="437" y="151" on="1"/>
      </contour>
    </TTGlyph>
    <TTGlyph name="a" xMin="33" yMin="-9" xMax="480" yMax="527">
      <contour>
        <pt x="408" y="147" on="0"/>
        <pt x="400" y="59" on="0"/>
        <pt x="399" y="55" on="1"/>
        <pt x="477" y="55" on="1"/>
        <pt x="477" y="19" on="1"/>
        <pt x="434" y="4" on="0"/>
        <pt x="379" y="-9" on="0"/>
        <pt x="357" y="-9" on="1"/>
        <pt x="305" y="-9" on="0"/>
        <pt x="305" y="36" on="1"/>
        <pt x="306" y="48" on="0"/>
        <pt x="310" y="84" on="0"/>
        <pt x="311" y="92" on="1"/>
        <pt x="280" y="48" on="0"/>
        <pt x="191" y="-8" on="0"/>
        <pt x="154" y="-8" on="1"/>
        <pt x="99" y="-8" on="0"/>
        <pt x="33" y="61" on="0"/>
        <pt x="33" y="142" on="1"/>
        <pt x="33" y="253" on="0"/>
        <pt x="104" y="416" on="0"/>
        <pt x="233" y="504" on="0"/>
        <pt x="316" y="504" on="1"/>
        <pt x="345" y="504" on="0"/>
        <pt x="413" y="490" on="0"/>
        <pt x="413" y="489" on="1"/>
        <pt x="438" y="527" on="1"/>
        <pt x="480" y="518" on="1"/>
        <pt x="419" y="206" on="1"/>
      </contour>
      <contour>
        <pt x="214" y="59" on="0"/>
        <pt x="295" y="122" on="0"/>
        <pt x="316" y="154" on="1"/>
        <pt x="317" y="154" on="0"/>
        <pt x="361" y="379" on="1"/>
        <pt x="371" y="431" on="1"/>
        <pt x="342" y="451" on="0"/>
        <pt x="308" y="451" on="1"/>
        <pt x="252" y="451" on="0"/>
        <pt x="172" y="366" on="0"/>
        <pt x="132" y="226" on="0"/>
        <pt x="132" y="144" on="1"/>
        <pt x="132" y="98" on="0"/>
        <pt x="161" y="59" on="0"/>
        <pt x="188" y="59" on="1"/>
      </contour>
    </TTGlyph>
    <TTGlyph name="aacute" xMin="33" yMin="-9" xMax="480" yMax="717">
      <component glyphName=".ttfautohint" x="33" y="0" flags="0x0"/>
      <component glyphName="a" x="0" y="0" flags="0x0"/>
      <component glyphName="acute" x="143" y="0" flags="0x0"/>
    </TTGlyph>
    <TTGlyph name="abreve" xMin="33" yMin="-9" xMax="480" yMax="706">
      <contour>
        <pt x="212" y="584" on="0"/>
        <pt x="212" y="672" on="1"/>
        <pt x="212" y="686" on="0"/>
        <pt x="218" y="706" on="1"/>
        <pt x="258" y="706" on="1"/>
        <pt x="256" y="696" on="0"/>
        <pt x="256" y="689" on="1"/>
        <pt x="257" y="668" on="0"/>
        <pt x="284" y="644" on="0"/>
        <pt x="322" y="644" on="1"/>
        <pt x="368" y="644" on="0"/>
        <pt x="410" y="678" on="0"/>
        <pt x="415" y="706" on="1"/>
        <pt x="454" y="706" on="1"/>
        <pt x="430" y="584" on="0"/>
        <pt x="313" y="584" on="1"/>
      </contour>
      <contour>
        <pt x="408" y="147" on="0"/>
        <pt x="400" y="59" on="0"/>
        <pt x="399" y="55" on="1"/>
        <pt x="477" y="55" on="1"/>
        <pt x="477" y="19" on="1"/>
        <pt x="434" y="4" on="0"/>
        <pt x="379" y="-9" on="0"/>
        <pt x="357" y="-9" on="1"/>
        <pt x="305" y="-9" on="0"/>
        <pt x="305" y="36" on="1"/>
        <pt x="306" y="48" on="0"/>
        <pt x="310" y="84" on="0"/>
        <pt x="311" y="92" on="1"/>
        <pt x="280" y="48" on="0"/>
        <pt x="191" y="-8" on="0"/>
        <pt x="154" y="-8" on="1"/>
        <pt x="99" y="-8" on="0"/>
        <pt x="33" y="61" on="0"/>
        <pt x="33" y="142" on="1"/>
        <pt x="33" y="253" on="0"/>
        <pt x="104" y="416" on="0"/>
        <pt x="233" y="504" on="0"/>
        <pt x="316" y="504" on="1"/>
        <pt x="345" y="504" on="0"/>
        <pt x="413" y="490" on="0"/>
        <pt x="413" y="489" on="1"/>
        <pt x="438" y="527" on="1"/>
        <pt x="480" y="518" on="1"/>
        <pt x="419" y="206" on="1"/>
      </contour>
      <contour>
        <pt x="214" y="59" on="0"/>
        <pt x="295" y="122" on="0"/>
        <pt x="316" y="154" on="1"/>
        <pt x="317" y="154" on="0"/>
        <pt x="361" y="379" on="1"/>
        <pt x="371" y="431" on="1"/>
        <pt x="342" y="451" on="0"/>
        <pt x="308" y="451" on="1"/>
        <pt x="252" y="451" on="0"/>
        <pt x="172" y="366" on="0"/>
        <pt x="132" y="226" on="0"/>
        <pt x="132" y="144" on="1"/>
        <pt x="132" y="98" on="0"/>
        <pt x="161" y="59" on="0"/>
        <pt x="188" y="59" on="1"/>
      </contour>
    </TTGlyph>
    <TTGlyph name="acircumflex" xMin="33" yMin="-9" xMax="480" yMax="718">
      <contour>
        <pt x="331" y="642" on="1"/>
        <pt x="210" y="559" on="1"/>
        <pt x="188" y="581" on="1"/>
        <pt x="308" y="718" on="1"/>
        <pt x="376" y="718" on="1"/>
        <pt x="445" y="579" on="1"/>
        <pt x="415" y="559" on="1"/>
      </contour>
      <contour>
        <pt x="408" y="147" on="0"/>
        <pt x="400" y="59" on="0"/>
        <pt x="399" y="55" on="1"/>
        <pt x="477" y="55" on="1"/>
        <pt x="477" y="19" on="1"/>
        <pt x="434" y="4" on="0"/>
        <pt x="379" y="-9" on="0"/>
        <pt x="357" y="-9" on="1"/>
        <pt x="305" y="-9" on="0"/>
        <pt x="305" y="36" on="1"/>
        <pt x="306" y="48" on="0"/>
        <pt x="310" y="84" on="0"/>
        <pt x="311" y="92" on="1"/>
        <pt x="280" y="48" on="0"/>
        <pt x="191" y="-8" on="0"/>
        <pt x="154" y="-8" on="1"/>
        <pt x="99" y="-8" on="0"/>
        <pt x="33" y="61" on="0"/>
        <pt x="33" y="142" on="1"/>
        <pt x="33" y="253" on="0"/>
        <pt x="104" y="416" on="0"/>
        <pt x="233" y="504" on="0"/>
        <pt x="316" y="504" on="1"/>
        <pt x="345" y="504" on="0"/>
        <pt x="413" y="490" on="0"/>
        <pt x="413" y="489" on="1"/>
        <pt x="438" y="527" on="1"/>
        <pt x="480" y="518" on="1"/>
        <pt x="419" y="206" on="1"/>
      </contour>
      <contour>
        <pt x="214" y="59" on="0"/>
        <pt x="295" y="122" on="0"/>
        <pt x="316" y="154" on="1"/>
        <pt x="317" y="154" on="0"/>
        <pt x="361" y="379" on="1"/>
        <pt x="371" y="431" on="1"/>
        <pt x="342" y="451" on="0"/>
        <pt x="308" y="451" on="1"/>
        <pt x="252" y="451" on="0"/>
        <pt x="172" y="366" on="0"/>
        <pt x="132" y="226" on="0"/>
        <pt x="132" y="144" on="1"/>
        <pt x="132" y="98" on="0"/>
        <pt x="161" y="59" on="0"/>
        <pt x="188" y="59" on="1"/>
      </contour>
    </TTGlyph>
    <TTGlyph name="acute" xMin="82" yMin="563" xMax="320" yMax="717">
      <contour>
        <pt x="82" y="587" on="1"/>
        <pt x="237" y="717" on="1"/>
        <pt x="320" y="687" on="1"/>
        <pt x="320" y="668" on="1"/>
        <pt x="101" y="563" on="1"/>
      </contour>
    </TTGlyph>
    <TTGlyph name="acute.case" xMin="98" yMin="646" xMax="336" yMax="800">
      <contour>
        <pt x="98" y="670" on="1"/>
        <pt x="253" y="800" on="1"/>
        <pt x="336" y="770" on="1"/>
        <pt x="336" y="751" on="1"/>
        <pt x="117" y="646" on="1"/>
      </contour>
    </TTGlyph>
    <TTGlyph name="acute.loclPLK" xMin="120" yMin="550" xMax="290" yMax="724">
      <contour>
        <pt x="120" y="564" on="1"/>
        <pt x="210" y="724" on="1"/>
        <pt x="290" y="724" on="1"/>
        <pt x="290" y="705" on="1"/>
        <pt x="142" y="550" on="1"/>
      </contour>
    </TTGlyph>
    <TTGlyph name="acute.loclPLK.case" xMin="133" yMin="642" xMax="301" yMax="810">
      <contour>
        <pt x="133" y="657" on="1"/>
        <pt x="221" y="810" on="1"/>
        <pt x="301" y="810" on="1"/>
        <pt x="301" y="791" on="1"/>
        <pt x="156" y="642" on="1"/>
      </contour>
    </TTGlyph>
    <TTGlyph name="acutecomb" xMin="-157" yMin="646" xMax="81" yMax="800">
      <contour>
        <pt x="-157" y="670" on="1"/>
        <pt x="-2" y="800" on="1"/>
        <pt x="81" y="770" on="1"/>
        <pt x="81" y="751" on="1"/>
        <pt x="-138" y="646" on="1"/>
      </contour>
    </TTGlyph>
    <TTGlyph name="adieresis" xMin="33" yMin="-9" xMax="493" yMax="706">
      <contour>
        <pt x="287" y="619" on="0"/>
        <pt x="250" y="584" on="0"/>
        <pt x="225" y="584" on="1"/>
        <pt x="200" y="584" on="0"/>
        <pt x="162" y="619" on="0"/>
        <pt x="162" y="644" on="1"/>
        <pt x="162" y="669" on="0"/>
        <pt x="200" y="706" on="0"/>
        <pt x="225" y="706" on="1"/>
        <pt x="250" y="706" on="0"/>
        <pt x="287" y="669" on="0"/>
        <pt x="287" y="644" on="1"/>
      </contour>
      <contour>
        <pt x="493" y="619" on="0"/>
        <pt x="455" y="584" on="0"/>
        <pt x="430" y="584" on="1"/>
        <pt x="405" y="584" on="0"/>
        <pt x="368" y="619" on="0"/>
        <pt x="368" y="644" on="1"/>
        <pt x="368" y="669" on="0"/>
        <pt x="405" y="706" on="0"/>
        <pt x="430" y="706" on="1"/>
        <pt x="455" y="706" on="0"/>
        <pt x="493" y="669" on="0"/>
        <pt x="493" y="644" on="1"/>
      </contour>
      <contour>
        <pt x="408" y="147" on="0"/>
        <pt x="400" y="59" on="0"/>
        <pt x="399" y="55" on="1"/>
        <pt x="477" y="55" on="1"/>
        <pt x="477" y="19" on="1"/>
        <pt x="434" y="4" on="0"/>
        <pt x="379" y="-9" on="0"/>
        <pt x="357" y="-9" on="1"/>
        <pt x="305" y="-9" on="0"/>
        <pt x="305" y="36" on="1"/>
        <pt x="306" y="48" on="0"/>
        <pt x="310" y="84" on="0"/>
        <pt x="311" y="92" on="1"/>
        <pt x="280" y="48" on="0"/>
        <pt x="191" y="-8" on="0"/>
        <pt x="154" y="-8" on="1"/>
        <pt x="99" y="-8" on="0"/>
        <pt x="33" y="61" on="0"/>
        <pt x="33" y="142" on="1"/>
        <pt x="33" y="253" on="0"/>
        <pt x="104" y="416" on="0"/>
        <pt x="233" y="504" on="0"/>
        <pt x="316" y="504" on="1"/>
        <pt x="345" y="504" on="0"/>
        <pt x="413" y="490" on="0"/>
        <pt x="413" y="489" on="1"/>
        <pt x="438" y="527" on="1"/>
        <pt x="480" y="518" on="1"/>
        <pt x="419" y="206" on="1"/>
      </contour>
      <contour>
        <pt x="214" y="59" on="0"/>
        <pt x="295" y="122" on="0"/>
        <pt x="316" y="154" on="1"/>
        <pt x="317" y="154" on="0"/>
        <pt x="361" y="379" on="1"/>
        <pt x="371" y="431" on="1"/>
        <pt x="342" y="451" on="0"/>
        <pt x="308" y="451" on="1"/>
        <pt x="252" y="451" on="0"/>
        <pt x="172" y="366" on="0"/>
        <pt x="132" y="226" on="0"/>
        <pt x="132" y="144" on="1"/>
        <pt x="132" y="98" on="0"/>
        <pt x="161" y="59" on="0"/>
        <pt x="188" y="59" on="1"/>
      </contour>
    </TTGlyph>
    <TTGlyph name="ae" xMin="33" yMin="-9" xMax="719" yMax="527">
      <contour>
        <pt x="427" y="-9" on="0"/>
        <pt x="342" y="52" on="0"/>
        <pt x="331" y="114" on="1"/>
        <pt x="284" y="49" on="0"/>
        <pt x="192" y="-8" on="0"/>
        <pt x="153" y="-8" on="1"/>
        <pt x="33" y="-8" on="0"/>
        <pt x="33" y="142" on="1"/>
        <pt x="33" y="253" on="0"/>
        <pt x="104" y="419" on="0"/>
        <pt x="233" y="508" on="0"/>
        <pt x="316" y="508" on="1"/>
        <pt x="343" y="508" on="0"/>
        <pt x="412" y="494" on="0"/>
        <pt x="412" y="493" on="1"/>
        <pt x="437" y="527" on="1"/>
        <pt x="475" y="517" on="1"/>
        <pt x="464" y="466" on="1"/>
        <pt x="491" y="485" on="0"/>
        <pt x="567" y="508" on="0"/>
        <pt x="607" y="508" on="1"/>
        <pt x="657" y="508" on="0"/>
        <pt x="719" y="458" on="0"/>
        <pt x="719" y="410" on="1"/>
        <pt x="719" y="330" on="0"/>
        <pt x="569" y="238" on="0"/>
        <pt x="432" y="238" on="1"/>
        <pt x="424" y="192" on="0"/>
        <pt x="424" y="162" on="1"/>
        <pt x="424" y="100" on="0"/>
        <pt x="479" y="49" on="0"/>
        <pt x="539" y="49" on="1"/>
        <pt x="572" y="49" on="0"/>
        <pt x="624" y="67" on="1"/>
        <pt x="633" y="29" on="1"/>
        <pt x="562" y="-9" on="0"/>
        <pt x="487" y="-9" on="1"/>
      </contour>
      <contour>
        <pt x="214" y="59" on="0"/>
        <pt x="294" y="121" on="0"/>
        <pt x="315" y="153" on="1"/>
        <pt x="321" y="187" on="0"/>
        <pt x="355" y="361" on="0"/>
        <pt x="370" y="435" on="1"/>
        <pt x="357" y="445" on="0"/>
        <pt x="329" y="454" on="0"/>
        <pt x="308" y="454" on="1"/>
        <pt x="250" y="454" on="0"/>
        <pt x="171" y="368" on="0"/>
        <pt x="132" y="226" on="0"/>
        <pt x="132" y="144" on="1"/>
        <pt x="132" y="98" on="0"/>
        <pt x="161" y="59" on="0"/>
        <pt x="188" y="59" on="1"/>
      </contour>
      <contour>
        <pt x="528" y="278" on="0"/>
        <pt x="631" y="342" on="0"/>
        <pt x="631" y="401" on="1"/>
        <pt x="631" y="424" on="0"/>
        <pt x="608" y="453" on="0"/>
        <pt x="584" y="453" on="1"/>
        <pt x="530" y="453" on="0"/>
        <pt x="457" y="362" on="0"/>
        <pt x="440" y="278" on="1"/>
      </contour>
    </TTGlyph>
    <TTGlyph name="aeacute" xMin="33" yMin="-9" xMax="719" yMax="717">
      <component glyphName=".ttfautohint" x="33" y="0" flags="0x0"/>
      <component glyphName="ae" x="0" y="0" flags="0x0"/>
      <component glyphName="acute" x="235" y="0" flags="0x0"/>
    </TTGlyph>
    <TTGlyph name="agrave" xMin="33" yMin="-9" xMax="480" yMax="718">
      <contour>
        <pt x="189" y="669" on="1"/>
        <pt x="190" y="688" on="1"/>
        <pt x="273" y="718" on="1"/>
        <pt x="426" y="588" on="1"/>
        <pt x="408" y="564" on="1"/>
      </contour>
      <contour>
        <pt x="408" y="147" on="0"/>
        <pt x="400" y="59" on="0"/>
        <pt x="399" y="55" on="1"/>
        <pt x="477" y="55" on="1"/>
        <pt x="477" y="19" on="1"/>
        <pt x="434" y="4" on="0"/>
        <pt x="379" y="-9" on="0"/>
        <pt x="357" y="-9" on="1"/>
        <pt x="305" y="-9" on="0"/>
        <pt x="305" y="36" on="1"/>
        <pt x="306" y="48" on="0"/>
        <pt x="310" y="84" on="0"/>
        <pt x="311" y="92" on="1"/>
        <pt x="280" y="48" on="0"/>
        <pt x="191" y="-8" on="0"/>
        <pt x="154" y="-8" on="1"/>
        <pt x="99" y="-8" on="0"/>
        <pt x="33" y="61" on="0"/>
        <pt x="33" y="142" on="1"/>
        <pt x="33" y="253" on="0"/>
        <pt x="104" y="416" on="0"/>
        <pt x="233" y="504" on="0"/>
        <pt x="316" y="504" on="1"/>
        <pt x="345" y="504" on="0"/>
        <pt x="413" y="490" on="0"/>
        <pt x="413" y="489" on="1"/>
        <pt x="438" y="527" on="1"/>
        <pt x="480" y="518" on="1"/>
        <pt x="419" y="206" on="1"/>
      </contour>
      <contour>
        <pt x="214" y="59" on="0"/>
        <pt x="295" y="122" on="0"/>
        <pt x="316" y="154" on="1"/>
        <pt x="317" y="154" on="0"/>
        <pt x="361" y="379" on="1"/>
        <pt x="371" y="431" on="1"/>
        <pt x="342" y="451" on="0"/>
        <pt x="308" y="451" on="1"/>
        <pt x="252" y="451" on="0"/>
        <pt x="172" y="366" on="0"/>
        <pt x="132" y="226" on="0"/>
        <pt x="132" y="144" on="1"/>
        <pt x="132" y="98" on="0"/>
        <pt x="161" y="59" on="0"/>
        <pt x="188" y="59" on="1"/>
      </contour>
    </TTGlyph>
    <TTGlyph name="amacron" xMin="33" yMin="-9" xMax="480" yMax="650">
      <contour>
        <pt x="434" y="650" on="1"/>
        <pt x="425" y="590" on="1"/>
        <pt x="201" y="590" on="1"/>
        <pt x="210" y="650" on="1"/>
      </contour>
      <contour>
        <pt x="408" y="147" on="0"/>
        <pt x="400" y="59" on="0"/>
        <pt x="399" y="55" on="1"/>
        <pt x="477" y="55" on="1"/>
        <pt x="477" y="19" on="1"/>
        <pt x="434" y="4" on="0"/>
        <pt x="379" y="-9" on="0"/>
        <pt x="357" y="-9" on="1"/>
        <pt x="305" y="-9" on="0"/>
        <pt x="305" y="36" on="1"/>
        <pt x="306" y="48" on="0"/>
        <pt x="310" y="84" on="0"/>
        <pt x="311" y="92" on="1"/>
        <pt x="280" y="48" on="0"/>
        <pt x="191" y="-8" on="0"/>
        <pt x="154" y="-8" on="1"/>
        <pt x="99" y="-8" on="0"/>
        <pt x="33" y="61" on="0"/>
        <pt x="33" y="142" on="1"/>
        <pt x="33" y="253" on="0"/>
        <pt x="104" y="416" on="0"/>
        <pt x="233" y="504" on="0"/>
        <pt x="316" y="504" on="1"/>
        <pt x="345" y="504" on="0"/>
        <pt x="413" y="490" on="0"/>
        <pt x="413" y="489" on="1"/>
        <pt x="438" y="527" on="1"/>
        <pt x="480" y="518" on="1"/>
        <pt x="419" y="206" on="1"/>
      </contour>
      <contour>
        <pt x="214" y="59" on="0"/>
        <pt x="295" y="122" on="0"/>
        <pt x="316" y="154" on="1"/>
        <pt x="317" y="154" on="0"/>
        <pt x="361" y="379" on="1"/>
        <pt x="371" y="431" on="1"/>
        <pt x="342" y="451" on="0"/>
        <pt x="308" y="451" on="1"/>
        <pt x="252" y="451" on="0"/>
        <pt x="172" y="366" on="0"/>
        <pt x="132" y="226" on="0"/>
        <pt x="132" y="144" on="1"/>
        <pt x="132" y="98" on="0"/>
        <pt x="161" y="59" on="0"/>
        <pt x="188" y="59" on="1"/>
      </contour>
    </TTGlyph>
    <TTGlyph name="ampersand" xMin="23" yMin="-10" xMax="580" yMax="625">
      <contour>
        <pt x="453" y="37" on="1"/>
        <pt x="410" y="17" on="0"/>
        <pt x="291" y="-10" on="0"/>
        <pt x="223" y="-10" on="1"/>
        <pt x="127" y="-10" on="0"/>
        <pt x="23" y="73" on="0"/>
        <pt x="23" y="153" on="1"/>
        <pt x="23" y="228" on="0"/>
        <pt x="119" y="341" on="0"/>
        <pt x="206" y="361" on="1"/>
        <pt x="173" y="382" on="0"/>
        <pt x="139" y="434" on="0"/>
        <pt x="139" y="473" on="1"/>
        <pt x="139" y="525" on="0"/>
        <pt x="197" y="593" on="0"/>
        <pt x="284" y="625" on="0"/>
        <pt x="328" y="625" on="1"/>
        <pt x="380" y="625" on="0"/>
        <pt x="460" y="609" on="0"/>
        <pt x="504" y="593" on="1"/>
        <pt x="469" y="457" on="1"/>
        <pt x="424" y="457" on="1"/>
        <pt x="420" y="551" on="1"/>
        <pt x="376" y="567" on="0"/>
        <pt x="334" y="567" on="1"/>
        <pt x="289" y="567" on="0"/>
        <pt x="233" y="516" on="0"/>
        <pt x="233" y="466" on="1"/>
        <pt x="233" y="422" on="0"/>
        <pt x="288" y="380" on="0"/>
        <pt x="332" y="374" on="1"/>
        <pt x="326" y="323" on="1"/>
        <pt x="226" y="321" on="0"/>
        <pt x="123" y="250" on="0"/>
        <pt x="123" y="155" on="1"/>
        <pt x="123" y="105" on="0"/>
        <pt x="194" y="46" on="0"/>
        <pt x="255" y="46" on="1"/>
        <pt x="284" y="46" on="0"/>
        <pt x="346" y="58" on="0"/>
        <pt x="367" y="65" on="1"/>
        <pt x="396" y="217" on="1"/>
        <pt x="316" y="222" on="1"/>
        <pt x="309" y="273" on="1"/>
        <pt x="580" y="273" on="1"/>
        <pt x="580" y="208" on="1"/>
        <pt x="487" y="213" on="1"/>
      </contour>
    </TTGlyph>
    <TTGlyph name="aogonek" xMin="33" yMin="-236" xMax="480" yMax="527">
      <contour>
        <pt x="329" y="-236" on="0"/>
        <pt x="288" y="-196" on="0"/>
        <pt x="288" y="-164" on="1"/>
        <pt x="288" y="-130" on="0"/>
        <pt x="338" y="-48" on="0"/>
        <pt x="393" y="-4" on="1"/>
        <pt x="370" y="-9" on="0"/>
        <pt x="357" y="-9" on="1"/>
        <pt x="305" y="-9" on="0"/>
        <pt x="305" y="36" on="1"/>
        <pt x="306" y="48" on="0"/>
        <pt x="310" y="84" on="0"/>
        <pt x="311" y="92" on="1"/>
        <pt x="280" y="48" on="0"/>
        <pt x="191" y="-8" on="0"/>
        <pt x="154" y="-8" on="1"/>
        <pt x="99" y="-8" on="0"/>
        <pt x="33" y="61" on="0"/>
        <pt x="33" y="142" on="1"/>
        <pt x="33" y="253" on="0"/>
        <pt x="104" y="416" on="0"/>
        <pt x="233" y="504" on="0"/>
        <pt x="316" y="504" on="1"/>
        <pt x="345" y="504" on="0"/>
        <pt x="413" y="490" on="0"/>
        <pt x="413" y="489" on="1"/>
        <pt x="438" y="527" on="1"/>
        <pt x="480" y="518" on="1"/>
        <pt x="419" y="206" on="1"/>
        <pt x="408" y="147" on="0"/>
        <pt x="400" y="59" on="0"/>
        <pt x="399" y="55" on="1"/>
        <pt x="477" y="55" on="1"/>
        <pt x="477" y="19" on="1"/>
        <pt x="442" y="2" on="0"/>
        <pt x="390" y="-57" on="0"/>
        <pt x="362" y="-119" on="0"/>
        <pt x="362" y="-142" on="1"/>
        <pt x="362" y="-164" on="0"/>
        <pt x="386" y="-187" on="0"/>
        <pt x="408" y="-187" on="1"/>
        <pt x="436" y="-187" on="0"/>
        <pt x="464" y="-165" on="1"/>
        <pt x="480" y="-183" on="1"/>
        <pt x="480" y="-185" on="0"/>
        <pt x="451" y="-212" on="0"/>
        <pt x="404" y="-236" on="0"/>
        <pt x="374" y="-236" on="1"/>
      </contour>
      <contour>
        <pt x="214" y="59" on="0"/>
        <pt x="295" y="122" on="0"/>
        <pt x="316" y="154" on="1"/>
        <pt x="317" y="154" on="0"/>
        <pt x="361" y="379" on="1"/>
        <pt x="371" y="431" on="1"/>
        <pt x="342" y="451" on="0"/>
        <pt x="308" y="451" on="1"/>
        <pt x="252" y="451" on="0"/>
        <pt x="172" y="366" on="0"/>
        <pt x="132" y="226" on="0"/>
        <pt x="132" y="144" on="1"/>
        <pt x="132" y="98" on="0"/>
        <pt x="161" y="59" on="0"/>
        <pt x="188" y="59" on="1"/>
      </contour>
    </TTGlyph>
    <TTGlyph name="approxequal" xMin="46" yMin="170" xMax="462" yMax="442">
      <contour>
        <pt x="46" y="342" on="1"/>
        <pt x="94" y="440" on="0"/>
        <pt x="163" y="440" on="1"/>
        <pt x="183" y="440" on="0"/>
        <pt x="223" y="427" on="0"/>
        <pt x="255" y="413" on="1"/>
        <pt x="284" y="400" on="0"/>
        <pt x="323" y="387" on="0"/>
        <pt x="342" y="387" on="1"/>
        <pt x="369" y="387" on="0"/>
        <pt x="404" y="411" on="0"/>
        <pt x="424" y="442" on="1"/>
        <pt x="462" y="420" on="1"/>
        <pt x="405" y="319" on="0"/>
        <pt x="338" y="319" on="1"/>
        <pt x="319" y="319" on="0"/>
        <pt x="281" y="333" on="0"/>
        <pt x="249" y="347" on="1"/>
        <pt x="220" y="361" on="0"/>
        <pt x="178" y="375" on="0"/>
        <pt x="159" y="375" on="1"/>
        <pt x="137" y="375" on="0"/>
        <pt x="101" y="350" on="0"/>
        <pt x="82" y="320" on="1"/>
      </contour>
      <contour>
        <pt x="46" y="193" on="1"/>
        <pt x="94" y="291" on="0"/>
        <pt x="163" y="291" on="1"/>
        <pt x="184" y="291" on="0"/>
        <pt x="226" y="277" on="0"/>
        <pt x="255" y="263" on="1"/>
        <pt x="282" y="250" on="0"/>
        <pt x="322" y="236" on="0"/>
        <pt x="342" y="236" on="1"/>
        <pt x="369" y="236" on="0"/>
        <pt x="404" y="260" on="0"/>
        <pt x="424" y="291" on="1"/>
        <pt x="462" y="270" on="1"/>
        <pt x="407" y="170" on="0"/>
        <pt x="338" y="170" on="1"/>
        <pt x="320" y="170" on="0"/>
        <pt x="284" y="182" on="0"/>
        <pt x="249" y="197" on="1"/>
        <pt x="220" y="211" on="0"/>
        <pt x="178" y="225" on="0"/>
        <pt x="159" y="225" on="1"/>
        <pt x="137" y="225" on="0"/>
        <pt x="102" y="199" on="0"/>
        <pt x="82" y="170" on="1"/>
      </contour>
    </TTGlyph>
    <TTGlyph name="aring" xMin="33" yMin="-9" xMax="480" yMax="747">
      <contour>
        <pt x="267" y="542" on="0"/>
        <pt x="221" y="587" on="0"/>
        <pt x="221" y="624" on="1"/>
        <pt x="221" y="676" on="0"/>
        <pt x="286" y="747" on="0"/>
        <pt x="342" y="747" on="1"/>
        <pt x="385" y="747" on="0"/>
        <pt x="430" y="701" on="0"/>
        <pt x="430" y="663" on="1"/>
        <pt x="430" y="612" on="0"/>
        <pt x="364" y="542" on="0"/>
        <pt x="310" y="542" on="1"/>
      </contour>
      <contour>
        <pt x="370" y="582" on="0"/>
        <pt x="370" y="666" on="1"/>
        <pt x="370" y="685" on="0"/>
        <pt x="354" y="706" on="0"/>
        <pt x="335" y="706" on="1"/>
        <pt x="306" y="706" on="0"/>
        <pt x="281" y="659" on="0"/>
        <pt x="281" y="621" on="1"/>
        <pt x="281" y="602" on="0"/>
        <pt x="297" y="582" on="0"/>
        <pt x="317" y="582" on="1"/>
      </contour>
      <contour>
        <pt x="99" y="-8" on="0"/>
        <pt x="33" y="61" on="0"/>
        <pt x="33" y="142" on="1"/>
        <pt x="33" y="253" on="0"/>
        <pt x="104" y="416" on="0"/>
        <pt x="233" y="504" on="0"/>
        <pt x="316" y="504" on="1"/>
        <pt x="345" y="504" on="0"/>
        <pt x="413" y="490" on="0"/>
        <pt x="413" y="489" on="1"/>
        <pt x="438" y="527" on="1"/>
        <pt x="480" y="518" on="1"/>
        <pt x="419" y="206" on="1"/>
        <pt x="408" y="147" on="0"/>
        <pt x="400" y="59" on="0"/>
        <pt x="399" y="55" on="1"/>
        <pt x="477" y="55" on="1"/>
        <pt x="477" y="19" on="1"/>
        <pt x="434" y="4" on="0"/>
        <pt x="379" y="-9" on="0"/>
        <pt x="357" y="-9" on="1"/>
        <pt x="305" y="-9" on="0"/>
        <pt x="305" y="36" on="1"/>
        <pt x="306" y="48" on="0"/>
        <pt x="310" y="84" on="0"/>
        <pt x="311" y="92" on="1"/>
        <pt x="280" y="48" on="0"/>
        <pt x="191" y="-8" on="0"/>
        <pt x="154" y="-8" on="1"/>
      </contour>
      <contour>
        <pt x="214" y="59" on="0"/>
        <pt x="295" y="122" on="0"/>
        <pt x="316" y="154" on="1"/>
        <pt x="317" y="154" on="0"/>
        <pt x="361" y="379" on="1"/>
        <pt x="371" y="431" on="1"/>
        <pt x="342" y="451" on="0"/>
        <pt x="308" y="451" on="1"/>
        <pt x="252" y="451" on="0"/>
        <pt x="172" y="366" on="0"/>
        <pt x="132" y="226" on="0"/>
        <pt x="132" y="144" on="1"/>
        <pt x="132" y="98" on="0"/>
        <pt x="161" y="59" on="0"/>
        <pt x="188" y="59" on="1"/>
      </contour>
    </TTGlyph>
    <TTGlyph name="aringacute" xMin="33" yMin="-9" xMax="534" yMax="861">
      <component glyphName=".ttfautohint" x="33" y="0" flags="0x0"/>
      <component glyphName="a" x="0" y="0" flags="0x0"/>
      <component glyphName="uni030A" x="367" y="-119" flags="0x4"/>
      <component glyphName="acutecomb" x="453" y="61" flags="0x4"/>
    </TTGlyph>
    <TTGlyph name="arrowdown" xMin="70" yMin="29" xMax="495" yMax="495">
      <contour>
        <pt x="101" y="352" on="1"/>
        <pt x="253" y="184" on="1"/>
        <pt x="241" y="495" on="1"/>
        <pt x="337" y="495" on="1"/>
        <pt x="324" y="185" on="1"/>
        <pt x="465" y="353" on="1"/>
        <pt x="495" y="321" on="1"/>
        <pt x="296" y="29" on="1"/>
        <pt x="282" y="29" on="1"/>
        <pt x="70" y="321" on="1"/>
      </contour>
    </TTGlyph>
    <TTGlyph name="arrowleft" xMin="49" yMin="48" xMax="515" yMax="473">
      <contour>
        <pt x="515" y="316" on="1"/>
        <pt x="515" y="219" on="1"/>
        <pt x="204" y="231" on="1"/>
        <pt x="372" y="79" on="1"/>
        <pt x="341" y="48" on="1"/>
        <pt x="49" y="260" on="1"/>
        <pt x="49" y="274" on="1"/>
        <pt x="341" y="473" on="1"/>
        <pt x="372" y="443" on="1"/>
        <pt x="204" y="302" on="1"/>
      </contour>
    </TTGlyph>
    <TTGlyph name="arrowright" xMin="50" yMin="48" xMax="516" yMax="473">
      <contour>
        <pt x="192" y="79" on="1"/>
        <pt x="360" y="231" on="1"/>
        <pt x="50" y="219" on="1"/>
        <pt x="50" y="316" on="1"/>
        <pt x="360" y="302" on="1"/>
        <pt x="192" y="443" on="1"/>
        <pt x="224" y="473" on="1"/>
        <pt x="516" y="274" on="1"/>
        <pt x="516" y="260" on="1"/>
        <pt x="224" y="48" on="1"/>
      </contour>
    </TTGlyph>
    <TTGlyph name="arrowup" xMin="70" yMin="26" xMax="495" yMax="492">
      <contour>
        <pt x="464" y="169" on="1"/>
        <pt x="311" y="337" on="1"/>
        <pt x="324" y="26" on="1"/>
        <pt x="227" y="26" on="1"/>
        <pt x="242" y="337" on="1"/>
        <pt x="99" y="169" on="1"/>
        <pt x="70" y="200" on="1"/>
        <pt x="268" y="492" on="1"/>
        <pt x="283" y="492" on="1"/>
        <pt x="495" y="200" on="1"/>
      </contour>
    </TTGlyph>
    <TTGlyph name="asciicircum" xMin="45" yMin="251" xMax="456" yMax="611">
      <contour>
        <pt x="224" y="611" on="1"/>
        <pt x="279" y="611" on="1"/>
        <pt x="456" y="251" on="1"/>
        <pt x="381" y="251" on="1"/>
        <pt x="252" y="519" on="1"/>
        <pt x="120" y="251" on="1"/>
        <pt x="45" y="251" on="1"/>
      </contour>
    </TTGlyph>
    <TTGlyph name="asciitilde" xMin="56" yMin="220" xMax="463" yMax="338">
      <contour>
        <pt x="146" y="273" on="0"/>
        <pt x="110" y="248" on="0"/>
        <pt x="91" y="220" on="1"/>
        <pt x="56" y="242" on="1"/>
        <pt x="103" y="337" on="0"/>
        <pt x="171" y="337" on="1"/>
        <pt x="191" y="337" on="0"/>
        <pt x="233" y="323" on="0"/>
        <pt x="261" y="310" on="1"/>
        <pt x="291" y="297" on="0"/>
        <pt x="327" y="285" on="0"/>
        <pt x="346" y="285" on="1"/>
        <pt x="372" y="285" on="0"/>
        <pt x="406" y="308" on="0"/>
        <pt x="425" y="338" on="1"/>
        <pt x="463" y="316" on="1"/>
        <pt x="409" y="220" on="0"/>
        <pt x="342" y="220" on="1"/>
        <pt x="323" y="220" on="0"/>
        <pt x="282" y="234" on="0"/>
        <pt x="255" y="247" on="1"/>
        <pt x="224" y="260" on="0"/>
        <pt x="186" y="273" on="0"/>
        <pt x="167" y="273" on="1"/>
      </contour>
    </TTGlyph>
    <TTGlyph name="asterisk" xMin="41" yMin="427" xMax="371" yMax="742">
      <contour>
        <pt x="54" y="477" on="1"/>
        <pt x="157" y="564" on="1"/>
        <pt x="156" y="571" on="1"/>
        <pt x="41" y="590" on="1"/>
        <pt x="82" y="672" on="1"/>
        <pt x="182" y="618" on="1"/>
        <pt x="188" y="621" on="1"/>
        <pt x="193" y="742" on="1"/>
        <pt x="277" y="742" on="1"/>
        <pt x="237" y="621" on="1"/>
        <pt x="242" y="617" on="1"/>
        <pt x="362" y="672" on="1"/>
        <pt x="371" y="590" on="1"/>
        <pt x="248" y="571" on="1"/>
        <pt x="244" y="564" on="1"/>
        <pt x="312" y="477" on="1"/>
        <pt x="235" y="427" on="1"/>
        <pt x="199" y="534" on="1"/>
        <pt x="192" y="534" on="1"/>
        <pt x="116" y="427" on="1"/>
      </contour>
    </TTGlyph>
</ttFont>
